<svg xmlns="http://www.w3.org/2000/svg" width="300" height="124" viewBox="0 0 300 124"><defs><linearGradient id="a" x1="73.51" x2="30.49" y1="78.51" y2="54.31" gradientUnits="userSpaceOnUse"><stop offset="0" stop-color="#fff"/><stop offset=".13" stop-color="#fefcfb"/><stop offset=".26" stop-color="#fef4ef"/><stop offset=".39" stop-color="#fee7db"/><stop offset=".52" stop-color="#fdd5bf"/><stop offset=".65" stop-color="#fcbd9b"/><stop offset=".78" stop-color="#fba06f"/><stop offset=".91" stop-color="#fa7f3b"/><stop offset="1" stop-color="#f96311"/></linearGradient><linearGradient id="b" x1="86.32" x2="86.32" y1="39.27" y2="79.46" gradientUnits="userSpaceOnUse"><stop offset="0" stop-color="#fff"/><stop offset=".04" stop-color="#efeef5"/><stop offset=".19" stop-color="#b7b5d5"/><stop offset=".33" stop-color="#8783ba"/><stop offset=".48" stop-color="#605ba3"/><stop offset=".62" stop-color="#423b92"/><stop offset=".76" stop-color="#2c2586"/><stop offset=".88" stop-color="#1f177e"/><stop offset="1" stop-color="#1b137c"/></linearGradient><linearGradient id="c" x1="113.53" x2="113.53" y1="39.28" y2="79.47" gradientUnits="userSpaceOnUse"><stop offset="0" stop-color="#fff"/><stop offset=".04" stop-color="#efeef5"/><stop offset=".19" stop-color="#b7b5d5"/><stop offset=".33" stop-color="#8783ba"/><stop offset=".48" stop-color="#605ba3"/><stop offset=".62" stop-color="#423b92"/><stop offset=".76" stop-color="#2c2586"/><stop offset=".88" stop-color="#1f177e"/><stop offset="1" stop-color="#1b137c"/></linearGradient><linearGradient id="d" x1="141.71" x2="141.71" y1="39.27" y2="79.47" gradientUnits="userSpaceOnUse"><stop offset="0" stop-color="#fff"/><stop offset=".04" stop-color="#efeef5"/><stop offset=".19" stop-color="#b7b5d5"/><stop offset=".33" stop-color="#8783ba"/><stop offset=".48" stop-color="#605ba3"/><stop offset=".62" stop-color="#423b92"/><stop offset=".76" stop-color="#2c2586"/><stop offset=".88" stop-color="#1f177e"/><stop offset="1" stop-color="#1b137c"/></linearGradient><linearGradient id="e" x1="171.43" x2="171.43" y1="39.27" y2="79.47" gradientUnits="userSpaceOnUse"><stop offset="0" stop-color="#fff"/><stop offset=".04" stop-color="#efeef5"/><stop offset=".19" stop-color="#b7b5d5"/><stop offset=".33" stop-color="#8783ba"/><stop offset=".48" stop-color="#605ba3"/><stop offset=".62" stop-color="#423b92"/><stop offset=".76" stop-color="#2c2586"/><stop offset=".88" stop-color="#1f177e"/><stop offset="1" stop-color="#1b137c"/></linearGradient></defs><path fill="#f96311" d="M80.876 99.894h2.484c-.03 2.875-.626 5.07-1.79 6.587-1.165 1.516-2.842 2.274-5.033 2.274-2.339 0-4.07-.965-5.195-2.894-1.125-1.93-1.688-4.905-1.688-8.931 0-4.202.557-7.242 1.671-9.123 1.113-1.88 2.911-2.82 5.394-2.82 2.07 0 3.667.6 4.79 1.801 1.123 1.201 1.685 2.91 1.685 5.124v.28h-2.442c0-1.548-.363-2.763-1.09-3.645-.725-.883-1.717-1.323-2.973-1.323-1.541 0-2.65.748-3.327 2.247-.678 1.499-1.016 3.986-1.016 7.465 0 3.4.35 5.82 1.05 7.257.7 1.441 1.853 2.16 3.46 2.16 1.29 0 2.283-.529 2.977-1.585.695-1.057 1.043-2.564 1.043-4.52zM90.475 99.755c0-2.526.263-4.3.79-5.324.525-1.024 1.403-1.535 2.632-1.535 1.221 0 2.094.516 2.62 1.55.527 1.033.79 2.802.79 5.309 0 2.486-.263 4.256-.79 5.31-.526 1.051-1.399 1.578-2.62 1.578-1.239 0-2.119-.516-2.64-1.55-.522-1.032-.782-2.812-.782-5.338zm-1.096 6.775c.953 1.428 2.462 2.142 4.525 2.142 2.054 0 3.562-.718 4.525-2.157.963-1.437 1.445-3.693 1.445-6.765 0-3.072-.484-5.333-1.452-6.786-.968-1.453-2.474-2.18-4.518-2.18-2.015 0-3.511.734-4.489 2.202-.977 1.466-1.466 3.721-1.466 6.764 0 3.092.477 5.352 1.43 6.78zM104.515 108.216V91.28h2.187v2.022c.463-.803 1.071-1.409 1.824-1.819.754-.411 1.638-.617 2.652-.617.955 0 1.746.211 2.372.632.625.42 1.056 1.032 1.292 1.833.502-.82 1.117-1.438 1.845-1.848.728-.411 1.585-.617 2.568-.617 1.378 0 2.433.358 3.166 1.073.733.715 1.1 1.745 1.1 3.088v13.188h-2.443V96.5c0-1.374-.178-2.305-.533-2.791-.354-.487-.975-.73-1.861-.73-1.015 0-1.843.32-2.484.958-.64.639-.96 1.463-.96 2.475v11.804h-2.444V96.412c0-1.247-.19-2.132-.57-2.652-.38-.52-1.008-.781-1.885-.781-1.036 0-1.88.31-2.53.929-.652.618-.977 1.413-.977 2.387v11.92zM128.521 108.216V91.28h2.187v2.022c.462-.803 1.07-1.409 1.824-1.819.754-.411 1.637-.617 2.652-.617.955 0 1.745.211 2.37.632.626.42 1.057 1.032 1.294 1.833.501-.82 1.116-1.438 1.844-1.848.728-.411 1.585-.617 2.568-.617 1.379 0 2.433.358 3.167 1.073.732.715 1.1 1.745 1.1 3.088v13.188h-2.443V96.5c0-1.374-.179-2.305-.534-2.791-.354-.487-.975-.73-1.861-.73-1.015 0-1.843.32-2.484.958-.64.639-.96 1.463-.96 2.475v11.804h-2.443V96.412c0-1.247-.19-2.132-.57-2.652-.38-.52-1.009-.781-1.886-.781-1.036 0-1.879.31-2.53.929-.65.618-.976 1.413-.976 2.387v11.92zM160.724 108.216v-2.201c-.335.852-.866 1.508-1.596 1.967-.731.459-1.606.69-2.626.69-1.411 0-2.441-.348-3.089-1.043-.646-.696-.97-1.803-.97-3.322V91.281h2.484v13.086c0 .696.174 1.237.52 1.62.348.381.834.573 1.46.573 1.135 0 2.02-.353 2.657-1.06.635-.706.953-1.698.953-2.973V91.28h2.402v16.935zM168.213 108.216V91.28h2.238v2.092c.41-.821.967-1.437 1.672-1.848.703-.41 1.56-.617 2.568-.617 1.486 0 2.544.378 3.175 1.132.63.754.946 2.053.946 3.896v12.28h-2.402V95.758c0-.922-.194-1.609-.583-2.06-.39-.452-.983-.678-1.78-.678-1.053 0-1.888.334-2.506 1.001-.619.669-.926 1.57-.926 2.71v11.485zM183.857 108.216V91.28h2.443v16.935zm0-19.585v-3.105h2.443v3.105zM199.613 102.254h2.319c0 2.046-.473 3.628-1.417 4.744-.943 1.116-2.275 1.674-3.996 1.674-1.888 0-3.286-.74-4.196-2.222-.91-1.48-1.364-3.756-1.364-6.826 0-2.952.472-5.157 1.417-6.614.944-1.456 2.376-2.184 4.295-2.184 1.583 0 2.836.482 3.756 1.45.92.966 1.38 2.283 1.38 3.95v.355h-2.319c-.05-1.19-.305-2.094-.767-2.713-.462-.62-1.117-.931-1.963-.931-1.16 0-1.99.513-2.487 1.54-.497 1.026-.745 2.77-.745 5.234 0 2.494.25 4.26.753 5.296.502 1.035 1.34 1.553 2.513 1.553.885 0 1.57-.368 2.052-1.102.483-.735.738-1.803.769-3.204zM214.037 102.398c0 1.256-.29 2.258-.873 3.002-.582.746-1.362 1.119-2.34 1.119-.675 0-1.2-.23-1.57-.693-.372-.462-.557-1.115-.557-1.96 0-.943.165-1.656.498-2.137.332-.481 1.045-.914 2.14-1.297.05-.02.128-.048.235-.087 1.273-.457 2.096-.89 2.467-1.298zm3.754 4.02a.121.121 0 0 1-.06.016c-.148.03-.257.043-.326.043-.355 0-.613-.095-.77-.288-.158-.192-.238-.51-.238-.953v-9.895c0-1.577-.37-2.732-1.11-3.46-.743-.73-1.919-1.097-3.529-1.097-1.719 0-2.976.398-3.771 1.191-.796.794-1.207 2.053-1.237 3.778h2.236v-.293c0-.911.205-1.586.617-2.027.411-.44 1.038-.661 1.88-.661.871 0 1.505.159 1.9.478.397.318.596.824.596 1.519v1.555c0 .773-.862 1.447-2.585 2.023l-.044.015c-2.102.707-3.471 1.444-4.104 2.21-.636.765-.951 1.88-.951 3.343 0 1.494.34 2.653 1.023 3.478.68.825 1.637 1.237 2.863 1.237.942 0 1.756-.232 2.443-.692.688-.462 1.213-1.127 1.576-1.993.03.778.236 1.38.621 1.802.383.424.91.635 1.58.635.188 0 .392-.011.614-.034.221-.024.485-.06.79-.103zM224.433 104.713c0 .707.128 1.171.382 1.392.256.22.862.331 1.821.331.128 0 .234-.002.318-.007.082-.006.153-.013.213-.023l.013 2.07c-.147.01-.343.019-.588.027-.6.03-.987.044-1.163.044-1.12 0-1.952-.223-2.497-.667-.545-.445-.818-1.118-.818-2.019V93.227h-2.36v-1.946h2.36v-4.513h2.319v4.513h2.747v1.946h-2.747zM230.628 108.216V91.28h2.444v16.935zm0-19.585v-3.105h2.444v3.105zM240.214 99.755c0-2.526.263-4.3.789-5.324.527-1.024 1.405-1.535 2.635-1.535 1.22 0 2.092.516 2.619 1.55.526 1.033.79 2.802.79 5.309 0 2.486-.264 4.256-.79 5.31-.527 1.051-1.4 1.578-2.62 1.578-1.24 0-2.12-.516-2.64-1.55-.522-1.032-.783-2.812-.783-5.338zm-2.525-.005c0 3.092.476 5.352 1.43 6.78.953 1.428 2.461 2.142 4.526 2.142 2.052 0 3.56-.718 4.524-2.157.962-1.437 1.445-3.693 1.445-6.765 0-3.072-.485-5.333-1.453-6.786-.968-1.453-2.474-2.18-4.516-2.18-2.016 0-3.512.734-4.49 2.202-.978 1.466-1.466 3.721-1.466 6.764zM254.254 108.216V91.28h2.239v2.092c.41-.821.968-1.437 1.671-1.848.705-.41 1.56-.617 2.569-.617 1.486 0 2.544.378 3.175 1.132.63.754.946 2.053.946 3.896v12.28h-2.402V95.758c0-.922-.194-1.609-.584-2.06-.389-.452-.983-.678-1.78-.678-1.053 0-1.887.334-2.504 1.001-.62.669-.928 1.57-.928 2.71v11.485zM269.486 103.123h2.329a4.662 4.662 0 0 0-.052.574c0 .921.261 1.62.785 2.101.524.481 1.284.72 2.283.72.91 0 1.626-.244 2.15-.735.523-.491.786-1.159.786-2.003 0-1.335-1.027-2.356-3.078-3.063a.259.259 0 0 0-.06-.015c-2.048-.719-3.376-1.432-3.983-2.14-.608-.708-.913-1.736-.913-3.083 0-1.477.434-2.628 1.302-3.454.867-.828 2.076-1.24 3.625-1.24 1.646 0 2.886.396 3.72 1.187.833.793 1.25 1.962 1.25 3.507v.233h-2.237c-.048-1.01-.28-1.745-.693-2.207-.415-.461-1.06-.691-1.937-.691-.926 0-1.623.217-2.09.65-.47.435-.704 1.08-.704 1.938 0 .38.063.722.185 1.025.123.303.303.546.539.731.433.374 1.294.767 2.582 1.18.688.216 1.218.398 1.593.545 1.17.453 2.005 1.025 2.506 1.718.502.693.753 1.609.753 2.749 0 1.7-.487 3.012-1.462 3.936-.973.924-2.36 1.386-4.16 1.386-1.654 0-2.904-.44-3.75-1.317-.847-.879-1.27-2.17-1.27-3.88z"/><g><path fill="#e3e3e2" d="M64.074 86.313a2.3 2.3 0 0 0-1.592.555l-30.64 26.535 15.767-37.34a2.303 2.303 0 0 0-.932-2.87L11.972 52.25l40.385 3.457a2.305 2.305 0 0 0 2.44-1.774s6.293-27.02 9.192-39.476c1.712 7.346 4.602 19.757 6.685 28.705l4.722-.051-9.16-39.341a2.305 2.305 0 0 0-4.49 0L50.76 50.944 2.5 46.814a2.306 2.306 0 0 0-1.387 4.27l41.471 25.024-18.841 44.622a2.303 2.303 0 0 0 .769 2.762 2.307 2.307 0 0 0 2.863-.123L63.99 91.66c.025.02.055.047.084.072z"/></g><g><path fill="url(#a)" d="M76.153 38.615L66.016 9.465 55.2 48.553l-45.956.663L45.74 72.403l-18.248 45.05 39.199-31.137z"/></g><g><path fill="#f96311" d="M66.061 84.326a2.3 2.3 0 0 0-1.592.555l-30.64 26.534 15.767-37.34a2.303 2.303 0 0 0-.932-2.87L13.96 50.263c12.742 1.092 40.385 3.457 40.385 3.457a2.305 2.305 0 0 0 2.442-1.774l9.192-39.477 6.684 28.706 4.722-.05-9.161-39.343a2.306 2.306 0 0 0-4.49 0L52.748 48.957l-48.26-4.13a2.306 2.306 0 0 0-1.388 4.27L44.573 74.12 25.73 118.742a2.303 2.303 0 0 0 .769 2.761c.866.63 2.054.58 2.863-.121L65.98 89.673l.082.072z"/></g><g><path fill="url(#b)" d="M68.718 71.277h12.339c.336 1.444.946 2.481 1.832 3.113.885.63 2.205.945 3.958.945 1.468 0 2.624-.254 3.465-.767.841-.513 1.262-1.218 1.262-2.118 0-1.435-1.771-2.604-5.308-3.503a247.16 247.16 0 0 0-1.627-.404c-2.909-.749-5.225-1.43-6.947-2.047-1.722-.616-2.976-1.19-3.762-1.726-1.516-1.088-2.654-2.39-3.413-3.906-.758-1.517-1.137-3.247-1.137-5.193 0-3.906 1.47-6.975 4.417-9.205 2.943-2.23 6.993-3.345 12.15-3.345 5.068 0 9.056 1.065 11.964 3.192 2.91 2.127 4.55 5.177 4.925 9.147H90.828c-.196-1.14-.71-1.991-1.54-2.553-.831-.562-2.015-.843-3.55-.843-1.36 0-2.368.222-3.028.664-.66.443-.991 1.114-.991 2.016 0 1.293 1.733 2.373 5.198 3.238.302.089.535.151.696.186.5.126 1.257.313 2.275.563 4.586 1.163 7.583 2.218 8.993 3.165 1.748 1.163 3.024 2.486 3.827 3.97.802 1.484 1.205 3.236 1.205 5.256 0 4.363-1.52 7.716-4.56 10.058-3.04 2.342-7.395 3.513-13.065 3.513-5.225 0-9.366-1.171-12.424-3.515-3.057-2.343-4.773-5.644-5.146-9.9z"/><path fill="none" stroke="#1b137c" stroke-miterlimit="20" stroke-width=".76" d="M68.718 71.277h12.339c.336 1.444.946 2.481 1.832 3.113.885.63 2.205.945 3.958.945 1.468 0 2.624-.254 3.465-.767.841-.513 1.262-1.218 1.262-2.118 0-1.435-1.771-2.604-5.308-3.503a247.16 247.16 0 0 0-1.627-.404c-2.909-.749-5.225-1.43-6.947-2.047-1.722-.616-2.976-1.19-3.762-1.726-1.516-1.088-2.654-2.39-3.413-3.906-.758-1.517-1.137-3.247-1.137-5.193 0-3.906 1.47-6.975 4.417-9.205 2.943-2.23 6.993-3.345 12.15-3.345 5.068 0 9.056 1.065 11.964 3.192 2.91 2.127 4.55 5.177 4.925 9.147H90.828c-.196-1.14-.71-1.991-1.54-2.553-.831-.562-2.015-.843-3.55-.843-1.36 0-2.368.222-3.028.664-.66.443-.991 1.114-.991 2.016 0 1.293 1.733 2.373 5.198 3.238.302.089.535.151.696.186.5.126 1.257.313 2.275.563 4.586 1.163 7.583 2.218 8.993 3.165 1.748 1.163 3.024 2.486 3.827 3.97.802 1.484 1.205 3.236 1.205 5.256 0 4.363-1.52 7.716-4.56 10.058-3.04 2.342-7.395 3.513-13.065 3.513-5.225 0-9.366-1.171-12.424-3.515-3.057-2.343-4.773-5.644-5.146-9.9z"/><path fill="url(#c)" d="M118.543 72.837c0 .978.286 1.666.858 2.064.571.4 1.59.6 3.055.6.43 0 .755-.004.977-.014.224-.007.443-.021.658-.04v8.391c-1.428.09-2.727.158-3.897.207-1.17.045-2.264.068-3.28.068-3.678 0-6.245-.617-7.7-1.851-1.455-1.235-2.182-3.399-2.182-6.493V61.257h-4.058V54.55h4.058v-9.027h11.51v9.027h5.442v6.708h-5.441z"/><path fill="none" stroke="#1b137c" stroke-miterlimit="20" stroke-width=".76" d="M118.543 72.837c0 .978.286 1.666.858 2.064.571.4 1.59.6 3.055.6.43 0 .755-.004.977-.014.224-.007.443-.021.658-.04v8.391c-1.428.09-2.727.158-3.897.207-1.17.045-2.264.068-3.28.068-3.678 0-6.245-.617-7.7-1.851-1.455-1.235-2.182-3.399-2.182-6.493V61.257h-4.058v-6.708h4.058v-9.027h11.51v9.027h5.442v6.708h-5.441z"/><g><path fill="url(#d)" d="M145.631 70.698zm0 0c.035.16.057.341.066.546.01.204.014.51.014.92 0 1.938-.443 3.351-1.329 4.24-.886.888-2.296 1.332-4.23 1.332-1.056 0-1.87-.23-2.442-.693-.574-.462-.86-1.101-.86-1.919 0-1.279 1.45-2.302 4.35-3.066 1.843-.48 3.32-.933 4.431-1.36zm12.683 12.918v-.823a2.637 2.637 0 0 1-.936-1.024 3.07 3.07 0 0 1-.322-1.425v-16.21c0-2.185-.276-3.863-.829-5.035-.554-1.173-1.516-2.225-2.891-3.156-1.124-.751-2.699-1.352-4.723-1.8-2.024-.447-4.232-.67-6.623-.67-5.086 0-8.939.837-11.56 2.51-2.624 1.676-3.961 4.15-4.014 7.428h11.262c.108-.984.484-1.714 1.129-2.188.644-.473 1.565-.711 2.766-.711 1.451 0 2.511.193 3.183.577.672.384 1.008.995 1.008 1.834 0 1.502-1.83 2.449-5.49 2.842a64.465 64.465 0 0 0-2.517.295c-4.91.625-8.248 1.624-10.015 2.998-1.768 1.375-2.651 3.498-2.651 6.372 0 2.945.896 5.226 2.69 6.84 1.794 1.614 4.334 2.423 7.62 2.423 2.143 0 4.07-.314 5.784-.941 1.713-.627 3.311-1.594 4.794-2.902l.723 2.766z"/><path fill="none" stroke="#1b137c" stroke-miterlimit="20" stroke-width=".76" d="M145.631 70.698zm0 0c.035.16.057.341.066.546.01.204.014.51.014.92 0 1.938-.443 3.351-1.329 4.24-.886.888-2.296 1.332-4.23 1.332-1.056 0-1.87-.23-2.442-.693-.574-.462-.86-1.101-.86-1.919 0-1.279 1.45-2.302 4.35-3.066 1.843-.48 3.32-.933 4.431-1.36zm12.683 12.918v-.823a2.637 2.637 0 0 1-.936-1.024 3.07 3.07 0 0 1-.322-1.425v-16.21c0-2.185-.276-3.863-.829-5.035-.554-1.173-1.516-2.225-2.891-3.156-1.124-.751-2.699-1.352-4.723-1.8-2.024-.447-4.232-.67-6.623-.67-5.086 0-8.939.837-11.56 2.51-2.624 1.676-3.961 4.15-4.014 7.428h11.262c.108-.984.484-1.714 1.129-2.188.644-.473 1.565-.711 2.766-.711 1.451 0 2.511.193 3.183.577.672.384 1.008.995 1.008 1.834 0 1.502-1.83 2.449-5.49 2.842a64.465 64.465 0 0 0-2.517.295c-4.91.625-8.248 1.624-10.015 2.998-1.768 1.375-2.651 3.498-2.651 6.372 0 2.945.896 5.226 2.69 6.84 1.794 1.614 4.334 2.423 7.62 2.423 2.143 0 4.07-.314 5.784-.941 1.713-.627 3.311-1.594 4.794-2.902l.723 2.766z"/></g><g><path fill="url(#e)" d="M161.036 83.616V54.55h10.659v5.287c.769-2.119 1.876-3.668 3.317-4.647 1.441-.978 3.361-1.468 5.762-1.468h1.048v11.561c-.43-.035-.843-.066-1.237-.093-.394-.026-.77-.04-1.129-.04-2.347 0-4.07.527-5.174 1.58-1.102 1.053-1.652 2.703-1.652 4.95v11.937z"/><path fill="none" stroke="#1b137c" stroke-miterlimit="20" stroke-width=".76" d="M161.036 83.616V54.55h10.659v5.287c.769-2.119 1.876-3.668 3.317-4.647 1.441-.978 3.361-1.468 5.762-1.468h1.048v11.561c-.43-.035-.843-.066-1.237-.093-.394-.026-.77-.04-1.129-.04-2.347 0-4.07.527-5.174 1.58-1.102 1.053-1.652 2.703-1.652 4.95v11.937z"/></g></g><g><path fill="#cdcfcf" d="M300 95.205c0-36.514-52.097-66.114-116.359-66.114-22.298 0-43.114 3.578-60.812 9.76l2.295 3.264c16.98-5.511 36.6-8.696 57.556-8.696 64.261 0 116.358 29.6 116.358 66.112 0 2.096-.192 4.166-.527 6.213.969-3.434 1.49-6.952 1.49-10.54z"/></g><g><path fill="#cdcfcf" d="M286.645 97.756c0-32.16-45.888-58.231-102.491-58.231-18.726 0-36.238 2.884-51.342 7.869l2.033 2.887c14.433-4.417 30.919-6.945 48.462-6.945 56.605 0 102.492 26.071 102.492 58.232 0 1.847-.169 3.67-.465 5.473.854-3.025 1.311-6.124 1.311-9.285z"/></g><g><path fill="#1b2b88" d="M300 93.879c0-36.513-52.097-66.113-116.359-66.113-22.298 0-43.114 3.578-60.812 9.76l2.295 3.264c16.98-5.511 36.6-8.696 57.556-8.696 64.261 0 116.358 29.6 116.358 66.112a38.39 38.39 0 0 1-.527 6.212c.969-3.433 1.49-6.951 1.49-10.54z"/></g><g><path fill="#f96311" d="M286.645 96.432c0-32.16-45.888-58.233-102.491-58.233-18.726 0-36.238 2.885-51.342 7.87l2.033 2.887c14.433-4.416 30.919-6.945 48.462-6.945 56.605 0 102.492 26.072 102.492 58.233 0 1.847-.169 3.669-.465 5.471.854-3.023 1.311-6.122 1.311-9.283z"/></g></svg>