<svg xmlns="http://www.w3.org/2000/svg" viewBox="0 0 540 540"><rect x="40" y="40" width="460" height="244" rx="15" fill="#f5f5f5"/><path d="M470 196a10 10 0 0 0 10-10V70a10 10 0 0 0-10-10H356a10 10 0 0 0-10 10v116a10 10 0 0 0 10 10h55.5v16H272v-16h55a10 10 0 0 0 10-10V70a10 10 0 0 0-10-10H213a10 10 0 0 0-10 10v116a10 10 0 0 0 10 10h56v16H128.5v-16H184a10 10 0 0 0 10-10V70a10 10 0 0 0-10-10H70a10 10 0 0 0-10 10v116a10 10 0 0 0 10 10h55.5v16H70a10 10 0 0 0-10 10v32a10 10 0 0 0 10 10h400a10 10 0 0 0 10-10v-32a10 10 0 0 0-10-10h-55.5v-16z" fill="#fff"/><path d="M480 305H60a20 20 0 0 0-20 20 20 20 0 0 0 20 20h51.5v16.5a1.5 1.5 0 0 0 3 0V345h154v16a1.5 1.5 0 0 0 3 0v-16h154v16a1.5 1.5 0 0 0 3 0v-16H480a20 20 0 0 0 20-20 20 20 0 0 0-20-20z" fill="#f5f5f5"/><rect x="40" y="460" width="460" height="40" rx="20" fill="#23d152"/><path d="M309 369h-78a8 8 0 0 0-8 8v50a8 8 0 0 0 8 8h32.518l-4.116 8h-2.9a1.5 1.5 0 0 0 0 3h27a1.5 1.5 0 0 0 0-3h-2.9l-4.116-8H309a8 8 0 0 0 8-8v-50a8 8 0 0 0-8-8zm-78 3h78a5.006 5.006 0 0 1 5 5v43h-88v-43a5.006 5.006 0 0 1 5-5zm42.166 63.113l4.058 7.887h-14.448l4.058-7.887a1.2 1.2 0 0 0 .044-.113h6.244a1.2 1.2 0 0 0 .044.113zM309 432h-78a5.006 5.006 0 0 1-5-5v-4h88v4a5.006 5.006 0 0 1-5 5z" fill="#222"/><ellipse cx="270" cy="396" rx="15.5" ry="15.409" fill="#23d152"/><ellipse cx="427" cy="404" rx="15.5" ry="15.409" fill="#23d152"/><path d="M465 427v-41a8 8 0 0 0-8-8h-60a8 8 0 0 0-8 8v41h-8a9 9 0 0 0 9 9h74a9 9 0 0 0 9-9zm-73-41a5.006 5.006 0 0 1 5-5h60a5.006 5.006 0 0 1 5 5v41h-70zm72 47h-74a6 6 0 0 1-5.195-3H469.2a6 6 0 0 1-5.2 3z" fill="#222"/><ellipse cx="118.5" cy="400" rx="15.5" ry="15.409" fill="#23d152"/><path d="M146 372a1 1 0 0 1 1 1v68a1 1 0 0 1-1 1H91a1 1 0 0 1-1-1v-68a1 1 0 0 1 1-1h55m0-3H91a4 4 0 0 0-4 4v68a4 4 0 0 0 4 4h55a4 4 0 0 0 4-4v-68a4 4 0 0 0-4-4z" fill="#222"/><rect x="76" y="407" width="23" height="38" rx="4" fill="#fff"/><path d="M148.206 428H99v-17a4 4 0 0 0-4-4H80a4 4 0 0 0-4 4v30a4 4 0 0 0 4 4h15a4 4 0 0 0 4-4v-10h49.206a1.516 1.516 0 0 0 0-3zM96 441a1 1 0 0 1-1 1H80a1 1 0 0 1-1-1v-30a1 1 0 0 1 1-1h15a1 1 0 0 1 1 1z" fill="#222"/><circle cx="118.5" cy="436.5" r="3" fill="#222"/><path d="M81.5 407h12v3a2 2 0 0 1-2 2h-8a2 2 0 0 1-2-2v-3zM163.812 326.473l-3.11-6.57h2.2l1.037 2.522c.294.769.574 1.5.9 2.3h.056c.322-.8.631-1.528.925-2.3l1.037-2.522h2.157l-3.124 6.57v3.8h-2.073zM169.144 326.36a3.782 3.782 0 1 1 3.768 4.1 3.83 3.83 0 0 1-3.768-4.1zm5.435 0c0-1.484-.6-2.451-1.667-2.451s-1.667.967-1.667 2.451.6 2.424 1.667 2.424 1.667-.953 1.667-2.424zM178.734 327.327v-4.9h2.059v4.636c0 1.218.337 1.639 1.093 1.639a1.89 1.89 0 0 0 1.6-.981v-5.294h2.059v7.844h-1.681l-.154-1.122h-.056a3.152 3.152 0 0 1-2.507 1.318c-1.684-.002-2.413-1.179-2.413-3.14zM188.451 327.523v-3.474h-1.107v-1.527l1.205-.1.238-2.1h1.723v2.1h1.933v1.624h-1.933v3.474c0 .9.364 1.317 1.064 1.317a2.3 2.3 0 0 0 .771-.168l.336 1.5a5.073 5.073 0 0 1-1.653.294c-1.863.002-2.577-1.175-2.577-2.94zM194.372 327.327v-4.9h2.059v4.636c0 1.218.337 1.639 1.093 1.639a1.891 1.891 0 0 0 1.6-.981v-5.294h2.059v7.844H199.5l-.154-1.122h-.056a3.154 3.154 0 0 1-2.508 1.318c-1.682-.002-2.41-1.179-2.41-3.14zM205.629 329.442h-.042l-.182.827h-1.611v-11.178h2.045v2.815l-.042 1.261a3.344 3.344 0 0 1 2.171-.938c1.933 0 3.1 1.583 3.1 3.977 0 2.7-1.611 4.259-3.334 4.259a3.05 3.05 0 0 1-2.105-1.023zm3.32-3.194c0-1.5-.476-2.325-1.555-2.325a2.214 2.214 0 0 0-1.555.812v3.447a2.177 2.177 0 0 0 1.429.588c.953 0 1.681-.813 1.681-2.522zM212.74 326.36a3.84 3.84 0 0 1 3.656-4.131c2.157 0 3.278 1.583 3.278 3.753a3.84 3.84 0 0 1-.1.939h-4.833a2.061 2.061 0 0 0 2.171 1.961 3.232 3.232 0 0 0 1.765-.546l.7 1.261a4.949 4.949 0 0 1-2.745.868 3.8 3.8 0 0 1-3.892-4.105zm5.169-.8c0-1.065-.476-1.737-1.485-1.737a1.769 1.769 0 0 0-1.709 1.737zM228.718 322.1a20.358 20.358 0 0 1-2.409.475 25.626 25.626 0 0 1-2.97 5.94l-1.695-.855a21.154 21.154 0 0 0 2.83-4.9c-.238.013-.476.013-.715.013a35.57 35.57 0 0 1-1.737-.042l-.126-1.625a17.407 17.407 0 0 0 1.85.1c.405 0 .826-.015 1.246-.042a11.814 11.814 0 0 0 .378-2.325l1.919.195c-.112.448-.28 1.149-.476 1.892a14.828 14.828 0 0 0 1.863-.435zm1.821 1.246c-.042.589-.014 1.163 0 1.779.014.392.042 1.064.084 1.751a9.248 9.248 0 0 1 2.872 1.778l-.925 1.486a12.244 12.244 0 0 0-1.877-1.471v.126c0 1.289-.7 2.3-2.675 2.3-1.723 0-3.082-.771-3.082-2.3 0-1.359 1.135-2.409 3.068-2.409.322 0 .644.027.938.055-.042-1.036-.112-2.255-.154-3.1zm-1.527 4.594a4.907 4.907 0 0 0-1.12-.139c-.8 0-1.317.336-1.317.826 0 .517.434.868 1.191.868.938 0 1.246-.546 1.246-1.289zm3.908-3.852a18.472 18.472 0 0 0-3.334-1.975l.9-1.373a25.024 25.024 0 0 1 3.418 1.877zM245.743 322.522c-.42.252-.854.491-1.372.743a38.016 38.016 0 0 0-3.432 1.863c-1.149.756-1.919 1.555-1.919 2.521 0 1 .952 1.527 2.885 1.527a23.2 23.2 0 0 0 4.525-.5l-.028 1.989a25.509 25.509 0 0 1-4.455.35c-2.759 0-4.846-.771-4.846-3.165 0-1.528.966-2.662 2.3-3.643-.63-1.177-1.3-2.661-1.933-4.132l1.751-.715a32.39 32.39 0 0 0 1.737 3.838c1.023-.6 2-1.091 2.647-1.47a9.105 9.105 0 0 0 1.275-.827zm.211-3.418a20.686 20.686 0 0 1 1.12 1.919l-1.135.477a16.767 16.767 0 0 0-1.092-1.947zm1.667-.644a18.957 18.957 0 0 1 1.12 1.919l-1.107.476a14.91 14.91 0 0 0-1.134-1.932zM256.115 329.2c.532-.07.925-.141 1.289-.225a3.754 3.754 0 0 0 3.152-3.711 3.434 3.434 0 0 0-2.9-3.67 30.2 30.2 0 0 1-.826 3.768c-.827 2.8-2.032 4.51-3.544 4.51-1.527 0-2.83-1.694-2.83-4.034a6.186 6.186 0 0 1 6.388-5.939 5.294 5.294 0 0 1 5.6 5.421c0 2.913-1.793 4.987-5.3 5.519zm-1.078-4.2a22.308 22.308 0 0 0 .742-3.362 4.349 4.349 0 0 0-3.516 4.02c0 1.4.56 2.087 1.079 2.087.574.002 1.134-.866 1.695-2.745zM277.188 321.556s-.013.547-.013.742c-.126 5.729-.238 7.761-.687 8.4a1.562 1.562 0 0 1-1.106.7 9.319 9.319 0 0 1-1.737.056 3.889 3.889 0 0 0-.491-1.6c.617.056 1.149.071 1.415.071a.51.51 0 0 0 .476-.239c.295-.378.434-2.087.519-6.611H274.3c-.182 3.754-.826 6.64-3.179 8.5a5.492 5.492 0 0 0-.981-1.106c-2.017.209-4.034.419-5.547.546l-.2-1.4a1005.8 1005.8 0 0 1 2.843-.2v-.84h-2.465v-1.177h2.465v-.547h-2.409v-4.328h2.409v-.546h-2.759v-1.2h2.759v-.559c-.812.055-1.611.1-2.367.111a5.193 5.193 0 0 0-.364-1.177 43.283 43.283 0 0 0 6.037-.685l.728 1.246c-.742.154-1.61.28-2.521.378v.686h2.689v.771h1.317c.014-.924.014-1.891.014-2.928h1.6c0 1.022 0 2-.028 2.928zm-11.037 2.644h1.092v-.616h-1.092zm1.092 1.625v-.63h-1.092v.63zm1.513 3.474c.8-.056 1.625-.126 2.437-.2 1.093-1.512 1.429-3.515 1.527-6.022h-1.275v-1.087h-2.689v.546h2.479v4.328h-2.479v.547h2.536v1.177h-2.536zm1.093-5.1v-.616h-1.093v.616zm-1.093 1v.63h1.093v-.63zM291.637 319.244v1.556h-5.491v1.12h2.554v6.346h-6.668v-6.346h2.452v-1.12H279.1v-1.556zm-2.032 2.48h1.611v9.75h-1.611v-.813h-8.46v.826h-1.625v-9.763h1.625v7.368h8.46zm-6.219 2.731h1.219v-1.177h-1.219zm0 2.452h1.219v-1.191h-1.219zm3.866-3.629h-1.218v1.177h1.218zm0 2.438h-1.218v1.191h1.218zM293.408 318.908h6.36v1.471h-1.737v1.121h1.485v9.721h-1.331v-.7h-3.25v.882h-1.275v-9.9h1.625v-1.121h-1.891zm4.175 7.256c-.6 0-.785-.182-.785-1.008v-2.269h-.49v1.106a3.87 3.87 0 0 1-.785 2.55 4.211 4.211 0 0 0-.588-.519v1.107h3.25v-.967h-.6zm-2.648-3.277v3.1a2.855 2.855 0 0 0 .616-2v-1.092zm3.25 6.345v-.953h-3.25v.953zm-1.247-8.853h-.574v1.121h.574zm1.247 2.508h-.631v2.269c0 .182.014.2.127.2h.252c.126 0 .154 0 .182-.042a.305.305 0 0 0 .07.056zm6.009 6.849c.546 0 .63-.336.714-2.185a4.732 4.732 0 0 0 1.485.658c-.168 2.368-.616 3.082-2.059 3.082h-1.947c-1.555 0-2.045-.477-2.045-2.2v-5.814h3.908v-2.632h-3.964v-1.612h5.575v6.7h-1.611v-.869H302v4.217c0 .588.084.658.63.658zM312.325 318.937a22.882 22.882 0 0 1-1.3 2.7v9.805h-1.583v-7.4a13.658 13.658 0 0 1-1.163 1.317 10.794 10.794 0 0 0-.868-1.695 14.917 14.917 0 0 0 3.376-5.238zm8.446 2v1.345h-8.965v-1.345zm-8.083 6.01H320v4.483h-1.68v-.519h-4.034v.561h-1.6zm7.117-2.689h-6.892v-1.289h6.892zm-6.892.7h6.836v1.3h-6.836zm6.639-4.707h-6.415v-1.3h6.415zm-5.266 7.984v1.373h4.034v-1.373zM333.132 321.892a8.308 8.308 0 0 0 1.541-.1v1.863c-.308-.028-.8-.042-1.541-.042H332.1v.462c0 3.474-.84 5.589-4.216 7.074l-1.5-1.415c2.7-.938 3.894-2.157 3.894-5.589v-.532h-3.319v1.9c0 .617.042 1.191.056 1.471h-1.962a11.12 11.12 0 0 0 .085-1.471v-1.9h-1.191c-.7 0-1.2.028-1.513.056v-1.9a9.272 9.272 0 0 0 1.513.126h1.191v-1.387a11.121 11.121 0 0 0-.085-1.261h1.99a8.657 8.657 0 0 0-.084 1.276v1.372h3.319v-1.471a9.255 9.255 0 0 0-.084-1.3h1.989a12.061 12.061 0 0 0-.084 1.3v1.471zM337.326 323.783c.5.042 1.527.084 2.256.084h7.518c.644 0 1.274-.055 1.639-.084v2.2c-.337-.014-1.051-.07-1.639-.07h-7.522c-.8 0-1.737.028-2.256.07zM354.646 328.056c0 .6.28.756.91.882a13.147 13.147 0 0 0 1.625.083 23.678 23.678 0 0 0 4.875-.49v2.046a40.023 40.023 0 0 1-4.987.294 15.38 15.38 0 0 1-2.353-.168 2 2 0 0 1-1.919-2.088v-7.634a11.823 11.823 0 0 0-.112-1.457h2.073a10.71 10.71 0 0 0-.112 1.457v2.648a35.29 35.29 0 0 0 4.846-1.555 8.959 8.959 0 0 0 1.527-.757l.756 1.78c-.546.224-1.176.49-1.638.658a48.376 48.376 0 0 1-5.491 1.709zm6.135-6.739a15.391 15.391 0 0 0-1.093-1.932l1.107-.462c.351.517.854 1.4 1.121 1.919zm1.667-3.025a17.55 17.55 0 0 1 1.135 1.905l-1.107.477a14.806 14.806 0 0 0-1.135-1.934zM376.56 320.771a6.627 6.627 0 0 0-.491.869 20.579 20.579 0 0 1-2.2 3.852 39.188 39.188 0 0 1 3.908 4.006l-1.6 1.387a31.97 31.97 0 0 0-3.53-3.964 18.458 18.458 0 0 1-5.267 3.935l-1.443-1.512a15.878 15.878 0 0 0 5.743-4.02 10.859 10.859 0 0 0 2.087-3.432h-4.749c-.587 0-1.358.084-1.652.1V320a15.657 15.657 0 0 0 1.652.1h4.931a5.057 5.057 0 0 0 1.457-.182z" fill="#222"/><path d="M165.976 475.714l.882.574a7.129 7.129 0 0 0-.308.967 14.148 14.148 0 0 1-2.1 5.1 11.1 11.1 0 0 1-5.631 3.866l-1.527-1.667a9.208 9.208 0 0 0 5.491-3.292 8.983 8.983 0 0 0 1.653-3.95h-6.528c-.644 0-1.3.028-1.667.056v-1.975a15.607 15.607 0 0 0 1.667.112h6.486a5.874 5.874 0 0 0 .658-.028 15.713 15.713 0 0 0-.784-1.359l1.149-.476a18.364 18.364 0 0 1 1.078 1.849zm1.4-2.423c.351.5.855 1.358 1.121 1.849l-1.163.5a16.521 16.521 0 0 0-1.12-1.877zM181.866 478.768a5.36 5.36 0 0 0-.266.587 10.055 10.055 0 0 1-2.073 3.881 10.488 10.488 0 0 1-5 3.026l-1.4-1.583a9.446 9.446 0 0 0 4.86-2.451 6.071 6.071 0 0 0 1.443-2.424h-6.765c-.337 0-1.037.014-1.625.07v-1.821c.588.056 1.19.085 1.625.085h6.935a2.955 2.955 0 0 0 1.02-.138zm-9.539-4.063a11.634 11.634 0 0 0 1.457.07h5.393a12.993 12.993 0 0 0 1.513-.07v1.808a24.348 24.348 0 0 0-1.541-.042h-5.365c-.448 0-1.051.013-1.457.042zM196.356 476.961a9.348 9.348 0 0 0-.28 1.12 13.016 13.016 0 0 1-1.3 3.964 8.9 8.9 0 0 1-5.714 4.2l-1.457-1.682a11.435 11.435 0 0 0 1.975-.545 6.86 6.86 0 0 0 3.179-2.4 8.308 8.308 0 0 0 1.247-3.6h-6.948v2.045c0 .323.014.757.043 1.036h-1.933a10.59 10.59 0 0 0 .069-1.175V477.5a9.1 9.1 0 0 0-.069-1.2 11.966 11.966 0 0 0 1.428.069h3v-1.078a6.92 6.92 0 0 0-.112-1.289h2.157a10.176 10.176 0 0 0-.1 1.289v1.078h2.437a3.392 3.392 0 0 0 1.163-.154zM209.319 477.3a8.034 8.034 0 0 0 1.541-.112v1.863c-.308-.028-.8-.042-1.527-.042h-1.05v.462c0 3.473-.826 5.589-4.216 7.088l-1.5-1.415c2.7-.953 3.894-2.157 3.894-5.6v-.532h-3.32v1.905c0 .63.042 1.191.056 1.471h-1.961a11.341 11.341 0 0 0 .084-1.471v-1.905h-1.19c-.7 0-1.2.028-1.512.056v-1.906a8.69 8.69 0 0 0 1.512.141h1.191v-1.4a11.335 11.335 0 0 0-.084-1.26h1.989a11.147 11.147 0 0 0-.084 1.274v1.383h3.32v-1.485a8.866 8.866 0 0 0-.084-1.289h2a8.625 8.625 0 0 0-.1 1.289v1.485zm-.055-.519a18.883 18.883 0 0 0-.715-1.919l.939-.307a14.105 14.105 0 0 1 .742 1.919zm1.47-.462a12.592 12.592 0 0 0-.756-1.9l.953-.307c.266.559.588 1.372.77 1.9zM220.6 477.591a24.974 24.974 0 0 1-2.689.462c-.126.589-.267 1.2-.42 1.779a45.416 45.416 0 0 1-2.2 6.416l-1.947-.644a30.937 30.937 0 0 0 2.4-6.249c.1-.377.21-.769.294-1.162-.322.014-.631.029-.911.029-.672 0-1.19-.029-1.681-.057l-.042-1.723a13.453 13.453 0 0 0 1.751.1c.407 0 .813-.014 1.233-.042.056-.294.1-.574.126-.784a7.314 7.314 0 0 0 .056-1.415l2.115.168c-.1.392-.224 1.009-.294 1.317l-.112.519a25.53 25.53 0 0 0 2.325-.449zm-.28 4.553a4.908 4.908 0 0 0-.2 1.162c0 .6.35 1.065 1.835 1.065a17.487 17.487 0 0 0 2.886-.28l-.071 1.778a22.006 22.006 0 0 1-2.829.2c-2.339 0-3.53-.812-3.53-2.212a9.25 9.25 0 0 1 .238-1.85zm-.812-3.474a26.11 26.11 0 0 1 2.661-.141 24.014 24.014 0 0 1 2.437.113l-.042 1.68a19.892 19.892 0 0 0-2.381-.181 22.912 22.912 0 0 0-2.675.154zm3.642-1.429a15.5 15.5 0 0 0-1.093-1.947l1.107-.463a19.283 19.283 0 0 1 1.106 1.92zm1.666-3.04a16.448 16.448 0 0 1 1.135 1.9l-1.106.476a15.043 15.043 0 0 0-1.135-1.933zM230.848 474.594a10.718 10.718 0 0 0-.322 1.12 18 18 0 0 0-.463 6.163c.183-.42.421-1.092.645-1.6l.882.547a34.729 34.729 0 0 0-.938 3.39 3.232 3.232 0 0 0-.1.672c.014.14.028.379.042.574l-1.555.154a15.465 15.465 0 0 1-.8-4.5 36.173 36.173 0 0 1 .462-5.533 7.283 7.283 0 0 0 .084-1.205zm8.895 4.034a31.33 31.33 0 0 1-2.059.168v.574c0 3.277-.252 5.28-3.012 7.046l-1.611-1.261a5.412 5.412 0 0 0 1.625-1.106c1.064-1.108 1.289-2.34 1.289-4.679v-.5c-.518.015-1.051.029-1.555.029-.6 0-1.457-.042-2.143-.071v-1.764a14.709 14.709 0 0 0 2.1.14c.5 0 1.037-.014 1.569-.028a37.72 37.72 0 0 0-.071-1.863 6.189 6.189 0 0 0-.153-.953h2.031a7.052 7.052 0 0 0-.07.939c-.015.308-.015 1.022-.015 1.778a17.716 17.716 0 0 0 2.088-.252zM243.685 475.8c1.163-.1 3.46-.308 6-.532 1.429-.113 2.942-.2 3.923-.239l.013 1.793a14.329 14.329 0 0 0-2.675.183 4.21 4.21 0 0 0-2.928 3.88c0 2.283 2.13 3.109 4.483 3.221l-.644 1.919c-2.914-.181-5.66-1.751-5.66-4.762a5.5 5.5 0 0 1 2.045-4.273c-1.2.126-4.118.435-5.729.785l-.182-1.905a23.927 23.927 0 0 0 1.354-.07zm9.1 4.272l-1.064.477a10.806 10.806 0 0 0-1.093-1.947l1.036-.435a18.476 18.476 0 0 1 1.126 1.903zm1.625-.686l-1.051.5a12.291 12.291 0 0 0-1.143-1.886l1.022-.476a20.967 20.967 0 0 1 1.177 1.86zM268.247 477.661a15.637 15.637 0 0 1-1.569 5.169 6.9 6.9 0 0 0 2.773 2.325 6.312 6.312 0 0 0-1.149 1.429 7.56 7.56 0 0 1-2.619-2.256 9.139 9.139 0 0 1-3.012 2.368 7.909 7.909 0 0 0-.924-1.457 7.337 7.337 0 0 0 3.025-2.395 16.132 16.132 0 0 1-1.05-2.829 8.249 8.249 0 0 1-.588.9 9.537 9.537 0 0 0-1.135-.938c-.07 3.964-.14 5.49-.5 5.98a1.261 1.261 0 0 1-.925.6 8.1 8.1 0 0 1-1.5.056 4.562 4.562 0 0 0-.434-1.513c.448.042.841.042 1.065.042a.406.406 0 0 0 .406-.21c.182-.281.266-1.471.322-4.79h-1.177a9.141 9.141 0 0 1-2.059 6.457 6.082 6.082 0 0 0-1.218-1.093 7.981 7.981 0 0 0 1.709-5.547v-2.7h-1.373v-1.541h2.2v-2.129h1.653v2.129h2.311v1.541h-3.222v1.373h2.774s0 .476-.014.658v.14a14.031 14.031 0 0 0 1.947-5.841l1.723.238a29.318 29.318 0 0 1-.476 2.3h4.09v1.541zm-3.531.1a16.285 16.285 0 0 0 1.009 3.362 14.706 14.706 0 0 0 .869-3.46h-1.849zM274.038 483.418c.574.938 1.625 1.316 3.081 1.373 1.639.07 4.791.028 6.654-.112a8.741 8.741 0 0 0-.518 1.68c-1.681.084-4.5.113-6.164.042a4.659 4.659 0 0 1-3.782-1.554 34.219 34.219 0 0 1-2 1.68l-.812-1.736a18.516 18.516 0 0 0 1.919-1.289v-2.955H270.8v-1.527h3.236zm-.967-6.289a10.557 10.557 0 0 0-2.255-2.213l1.233-1.009a11.193 11.193 0 0 1 2.339 2.115zm7.06 3.235a4.893 4.893 0 0 0 3.4 2.676 6.133 6.133 0 0 0-1.051 1.4 5.73 5.73 0 0 1-3.376-2.885 6.577 6.577 0 0 1-3.4 2.858 5.225 5.225 0 0 0-1.107-1.2c2.129-.784 2.942-1.835 3.25-2.844H274.6v-1.5h3.432v-1.344h-2.956v-1.475h1.4a9.227 9.227 0 0 0-1.037-1.862l1.415-.589a7.218 7.218 0 0 1 1.219 2.129l-.742.322h3.123l-.714-.252a13.913 13.913 0 0 0 1.162-2.213l1.709.519a27.384 27.384 0 0 1-1.33 1.946h1.75v1.471H279.7v1.344h3.8v1.5zM291.567 478.333a1.793 1.793 0 1 1-1.793 1.793 1.806 1.806 0 0 1 1.793-1.793zM299.614 474.089h6.36v1.471h-1.737v1.121h1.485v9.72h-1.331v-.7h-3.25v.883h-1.275v-9.9h1.625v-1.124H299.6zm4.175 7.256c-.6 0-.785-.182-.785-1.008v-2.27h-.49v1.107a3.864 3.864 0 0 1-.785 2.55 4.093 4.093 0 0 0-.588-.519v1.107h3.25v-.967h-.6zm-2.648-3.278v3.1a2.85 2.85 0 0 0 .616-2v-1.093zm3.25 6.346v-.953h-3.25v.953zm-1.247-8.853h-.574v1.121h.574zm1.247 2.507h-.631v2.27c0 .182.014.195.127.195h.252c.126 0 .154 0 .182-.042a.306.306 0 0 0 .07.057zm6.009 6.85c.546 0 .63-.336.714-2.186a4.712 4.712 0 0 0 1.485.659c-.168 2.368-.616 3.082-2.059 3.082h-1.947c-1.555 0-2.045-.477-2.045-2.2v-5.813h3.908v-2.633h-3.964v-1.611h5.575v6.7h-1.611v-.869H308.2v4.217c0 .588.084.658.63.658zM318.531 474.117a22.652 22.652 0 0 1-1.3 2.7v9.806h-1.583v-7.4a13.54 13.54 0 0 1-1.163 1.318 10.751 10.751 0 0 0-.868-1.7 14.912 14.912 0 0 0 3.376-5.239zm8.446 2v1.345h-8.965v-1.342zm-8.082 6.01h7.312v4.482h-1.681v-.518h-4.034v.56h-1.6zm7.116-2.69h-6.892v-1.289h6.892zm-6.892.7h6.836v1.3h-6.836zm6.639-4.707h-6.415v-1.3h6.415zm-5.266 7.984v1.373h4.034v-1.373zM334.2 474.523c-.084.365-.168.8-.238 1.149-.084.42-.2.925-.294 1.429.462-.029.882-.056 1.163-.056 1.47 0 2.507.658 2.507 2.647a13.549 13.549 0 0 1-.785 5.057 2.215 2.215 0 0 1-2.283 1.274 7.867 7.867 0 0 1-1.653-.2l-.308-1.835a8.1 8.1 0 0 0 1.709.294 1.02 1.02 0 0 0 1.037-.6 10.6 10.6 0 0 0 .56-3.8c0-1.108-.476-1.261-1.345-1.261-.224 0-.56.027-.953.056a29.994 29.994 0 0 1-2.829 7.41l-1.807-.729a20.562 20.562 0 0 0 2.788-6.485c-.49.056-.925.112-1.191.154-.392.042-1.107.14-1.541.21l-.154-1.877a12.891 12.891 0 0 0 1.471 0 41.936 41.936 0 0 0 1.793-.112 15.369 15.369 0 0 0 .294-2.942zm4.973 1.653a27.579 27.579 0 0 1 2.255 4.833l-1.765.826a15.727 15.727 0 0 0-2.339-5.225l1.288-.546a15.326 15.326 0 0 0-.952-1.653l1.107-.462c.35.518.84 1.4 1.12 1.919zm1.274-.462a13.98 13.98 0 0 0-1.134-1.933l1.107-.463a16.585 16.585 0 0 1 1.134 1.906zM355.579 476.2h-1.611v8.349c0 1.009-.238 1.5-.9 1.779a9.461 9.461 0 0 1-3.165.308 7.5 7.5 0 0 0-.687-1.765c1 .056 2.214.042 2.55.042s.448-.1.448-.393v-8.32h-9.259v-1.681h12.621zm-9.707 6.99v1.065h-1.625v-6.486h5.939v5.421zm0-3.839v2.249h2.661v-2.242zM362.533 474.51a13.741 13.741 0 0 1 1.695 3.249l-1.527.616a5.171 5.171 0 0 0-.252-.742c-1.849.126-3.754.238-5.183.322l-.14-1.583c.336 0 .7-.014 1.092-.027a22.01 22.01 0 0 0 1.023-2.817l1.737.351c-.322.812-.7 1.653-1.051 2.395l1.864-.084a23.166 23.166 0 0 0-.659-1.148zm.7 10.463c0 .728-.14 1.134-.6 1.373a4.156 4.156 0 0 1-1.961.28 6.152 6.152 0 0 0-.532-1.471 11.631 11.631 0 0 0 1.232 0c.168 0 .224-.042.224-.21v-.938h-2.1v2.647h-1.541v-8.041h5.281zm-3.74-4.987v.729h2.1v-.729zm2.1 2.787v-.826h-2.1v.826zm4.777-2.9c-1.639 0-2.031-.49-2.031-2.031v-4.216h1.653v2a21.9 21.9 0 0 0 2.521-1.163l1.065 1.205a25.763 25.763 0 0 1-3.586 1.316v.827c0 .5.084.56.616.56h1.527c.448 0 .546-.21.6-1.429a4.563 4.563 0 0 0 1.471.616c-.182 1.793-.616 2.312-1.905 2.312zm1.849 5.239c.476 0 .574-.266.644-1.681a5.162 5.162 0 0 0 1.457.617c-.182 1.974-.6 2.521-1.947 2.521h-1.989c-1.639 0-2.045-.476-2.045-2.017v-4.4h1.639v1.891a15.909 15.909 0 0 0 2.633-1.316l1.107 1.218a21.279 21.279 0 0 1-3.74 1.485v1.121c0 .49.1.56.644.56zM375.229 474.762a11.884 11.884 0 0 0-.335 1.232 34.181 34.181 0 0 0-.673 5.085 6.705 6.705 0 0 0 .056.9c.2-.491.42-.954.617-1.4l.868.673a33.435 33.435 0 0 0-.994 3.4 4.1 4.1 0 0 0-.084.645c.013.154.013.379.027.574l-1.6.112a17.658 17.658 0 0 1-.547-4.538 38.3 38.3 0 0 1 .575-5.491 10.377 10.377 0 0 0 .14-1.358zm3.25 6.849a4.57 4.57 0 0 0-.167 1.162c0 .617.532.981 1.933.981a15.926 15.926 0 0 0 3.473-.364l.042 1.878a19.3 19.3 0 0 1-3.586.279c-2.395 0-3.529-.868-3.529-2.283a8.553 8.553 0 0 1 .238-1.807zm4.847-5.939v1.793a38.41 38.41 0 0 1-5.953 0l-.014-1.793a28.317 28.317 0 0 0 5.967 0z" fill="#fff"/><path d="M160.6 237.53a5.684 5.684 0 0 0-7.3-4.993c-3.35-4.74-11.187-2.781-11.455 2.97-6.3 1.643-5.09 10.618 1.541 10.618h15.672c5.292 0 6.431-7.079 1.542-8.595z" fill="#222" fill-rule="evenodd"/><path d="M184.581 234.725a5.606 5.606 0 0 0-.463 1.008 14.6 14.6 0 0 1-2.437 4.679 13.2 13.2 0 0 1-5.659 3.95l-1.653-1.485a11.165 11.165 0 0 0 5.645-3.46 9.945 9.945 0 0 0 1.986-3.823h-3.936a15.972 15.972 0 0 1-3.53 3.389l-1.569-1.163a12.343 12.343 0 0 0 4.371-4.51 6.744 6.744 0 0 0 .63-1.471l2.045.673a17.97 17.97 0 0 0-.854 1.428l-.042.071h2.815a4.536 4.536 0 0 0 1.219-.168zM199.07 236.756a5.37 5.37 0 0 0-.266.588 10.062 10.062 0 0 1-2.073 3.881 10.494 10.494 0 0 1-5 3.025l-1.4-1.583a9.439 9.439 0 0 0 4.86-2.451 6.071 6.071 0 0 0 1.443-2.424h-6.765c-.337 0-1.037.015-1.625.07v-1.821c.588.057 1.191.085 1.625.085h6.931a2.951 2.951 0 0 0 1.023-.141zm-9.539-4.063a11.625 11.625 0 0 0 1.457.071h5.393a12.988 12.988 0 0 0 1.513-.071v1.807a25.122 25.122 0 0 0-1.541-.042h-5.365c-.448 0-1.05.014-1.457.042zM213.561 234.949a9.172 9.172 0 0 0-.281 1.12 13.041 13.041 0 0 1-1.3 3.964 8.9 8.9 0 0 1-5.715 4.2l-1.457-1.681a11.5 11.5 0 0 0 1.975-.546 6.86 6.86 0 0 0 3.179-2.4 8.3 8.3 0 0 0 1.247-3.6h-6.948v2.045c0 .322.014.756.043 1.036h-1.933a10.623 10.623 0 0 0 .069-1.176V235.5a9.11 9.11 0 0 0-.069-1.2 11.76 11.76 0 0 0 1.428.069h3v-1.078a6.933 6.933 0 0 0-.112-1.289h2.157a10.2 10.2 0 0 0-.1 1.289v1.078h2.437a3.383 3.383 0 0 0 1.163-.154zM221.131 236.294a48.756 48.756 0 0 1 5.855 2.185l-.784 1.947a37.419 37.419 0 0 0-5.071-2.087v3.961c0 .392.07 1.373.14 1.947h-2.2a15.162 15.162 0 0 0 .14-1.947v-8.055a9.879 9.879 0 0 0-.14-1.694h2.185a15.225 15.225 0 0 0-.126 1.694zm3.726-.616a11.3 11.3 0 0 0-1.233-2.157l1.177-.5c.392.588.952 1.485 1.274 2.115zm1.919-.785a13.122 13.122 0 0 0-1.3-2.1l1.163-.547a18.8 18.8 0 0 1 1.317 2.073zM242.961 242.667v1.541H230.34v-1.541h5.477v-1.12h-4.062v-1.514h4.045v-.882h-1.036v-2.689h-1.289a4.272 4.272 0 0 1-2.2 3.067 7.208 7.208 0 0 0-1.093-1.162 3.1 3.1 0 0 0 1.709-1.905h-1.411v-1.471h1.583v-1.47h-1.106v-1.458h6.359v1.458h-.994v1.47h1.316v1.471h-1.316v2.451h1.2v1.12h4.048v1.514h-4.048v1.12zm-8.194-7.676v-1.47h-1.177v1.47zm4.986 2.115h-1.526v-4.735h1.526zm2.606.6c0 .771-.14 1.163-.672 1.4a5.778 5.778 0 0 1-2.2.266A6.28 6.28 0 0 0 239 237.9c.63.029 1.3.029 1.513.015s.266-.057.266-.238v-5.953h1.583zM253.7 233.492a6.185 6.185 0 0 0 .8-.055 1.475 1.475 0 0 1-.029-.267 1.674 1.674 0 1 1 1.681 1.667.8.8 0 0 1-.182-.014l-.112.42a14.13 14.13 0 0 1-2.1 5.1 11.1 11.1 0 0 1-5.631 3.866l-1.527-1.667a9.2 9.2 0 0 0 5.491-3.292 8.983 8.983 0 0 0 1.653-3.95h-6.528c-.644 0-1.3.028-1.666.056v-1.976a15.349 15.349 0 0 0 1.666.112zm3.25-.322a.806.806 0 1 0-.8.8.811.811 0 0 0 .797-.8zM271.171 236.756a5.205 5.205 0 0 0-.267.588 10.073 10.073 0 0 1-2.072 3.881 10.494 10.494 0 0 1-5 3.025l-1.4-1.583a9.446 9.446 0 0 0 4.861-2.451 6.08 6.08 0 0 0 1.442-2.424h-6.765c-.337 0-1.037.015-1.625.07v-1.821c.588.057 1.19.085 1.625.085h6.93a2.951 2.951 0 0 0 1.023-.141zm-9.54-4.063a11.625 11.625 0 0 0 1.457.071h5.393a12.978 12.978 0 0 0 1.513-.071v1.807a25.099 25.099 0 0 0-1.541-.042h-5.365c-.448 0-1.05.014-1.457.042zM278.055 239.039l-1.709.645a28.516 28.516 0 0 0-1.275-3.237l1.681-.6c.348.713 1.022 2.408 1.303 3.192zm7.115-2.913c-.168.448-.252.742-.336 1.022a11.283 11.283 0 0 1-1.905 4.1 10.952 10.952 0 0 1-4.692 3.475l-1.471-1.5a8.259 8.259 0 0 0 6.434-7.723zm-4.02 2.045l-1.681.588a23.212 23.212 0 0 0-1.135-3.11L280 235.1c.268.605.954 2.426 1.15 3.071zM298.722 240.216a40.183 40.183 0 0 0-5.057-2.087v3.964c0 .406.07 1.386.126 1.947h-2.185a15.009 15.009 0 0 0 .14-1.947v-8.04a9.787 9.787 0 0 0-.14-1.7h2.185a15.263 15.263 0 0 0-.126 1.7v2.058a45.765 45.765 0 0 1 5.855 2.172zM314.22 234.108a5.74 5.74 0 0 0-.308.981 14.385 14.385 0 0 1-2.1 5.1 11.206 11.206 0 0 1-5.631 3.866l-1.527-1.681a9.237 9.237 0 0 0 5.491-3.278 8.867 8.867 0 0 0 1.639-3.95h-6.528c-.63 0-1.3.028-1.667.056v-1.975c.421.042 1.219.112 1.682.112h6.471a4.706 4.706 0 0 0 1.107-.112zM327.226 236.742c.364 0 .9-.056 1.134-.084v1.7a27.659 27.659 0 0 0-1.064-.028h-1.681c.042 1.666.084 3.571.1 5a1.229 1.229 0 0 1-1.359 1.234c-.672 0-1.541-.029-2.171-.071l-.112-1.6a12.816 12.816 0 0 0 1.611.126c.266 0 .364-.155.364-.435 0-.687-.014-1.709-.028-2.773a15.909 15.909 0 0 1-4.524 3.683l-1.219-1.4a14.018 14.018 0 0 0 4.9-3.768h-3c-.406 0-.91.028-1.317.056v-1.723a12.464 12.464 0 0 0 1.275.084h3.81c0-.308-.014-.589-.028-.854a12.01 12.01 0 0 0-.112-1.163h1.807a10.267 10.267 0 0 0-.056 1.163l.014.854zM331.9 236.952c.5.042 1.527.084 2.256.084h7.522c.644 0 1.275-.056 1.639-.084v2.2c-.336-.014-1.051-.07-1.639-.07h-7.522c-.8 0-1.737.028-2.256.07zM356.066 244.067a59.441 59.441 0 0 0-.658-1.652 978.78 978.78 0 0 1-8.293.9c-.35.042-.868.112-1.317.167l-.321-2.044c.476 0 1.078 0 1.54-.015l.379-.014c.812-2.073 2.017-5.911 2.423-7.368a10.388 10.388 0 0 0 .336-1.61l2.227.448a15.857 15.857 0 0 0-.6 1.555c-.448 1.373-1.583 4.93-2.283 6.807 1.709-.168 3.7-.392 5.112-.56a16.954 16.954 0 0 0-1.47-2.564l1.751-.714a43.049 43.049 0 0 1 3.067 5.828zM366.088 241.42c.028-.405.042-1.05.056-1.652-1.023.56-1.583 1.106-1.583 1.793 0 .77.658.98 2.017.98a21.236 21.236 0 0 0 3.936-.406l-.056 1.806a38.091 38.091 0 0 1-3.922.225c-2.171 0-3.81-.519-3.81-2.312 0-1.764 1.681-2.885 3.264-3.7a1.086 1.086 0 0 0-.967-.475 3.434 3.434 0 0 0-2.171.952 17.962 17.962 0 0 0-1.289 1.527l-1.484-1.107a13.563 13.563 0 0 0 3.053-3.81h-.168c-.56 0-1.583-.028-2.339-.1v-1.624a17.961 17.961 0 0 0 2.437.153h.672a7.809 7.809 0 0 0 .281-1.582l1.82.153c-.069.337-.168.813-.335 1.373a31.836 31.836 0 0 0 3.921-.406l-.014 1.625a45.183 45.183 0 0 1-4.524.364 8.452 8.452 0 0 1-.8 1.4 4.348 4.348 0 0 1 1.569-.281 1.89 1.89 0 0 1 1.848 1.084c.715-.336 1.3-.574 1.877-.826.533-.238 1.023-.476 1.527-.715l.7 1.612a14.314 14.314 0 0 0-1.652.588c-.617.238-1.4.545-2.255.938.013.771.042 1.793.055 2.423zM378.378 238c.687.518 2.074 1.709 2.452 2l-.967 1.429c-.336-.435-.925-1.065-1.485-1.639v4.832h-1.61v-5.015a13.955 13.955 0 0 1-2.143 3.292 9.453 9.453 0 0 0-.841-1.625 13.561 13.561 0 0 0 2.661-4.034h-2.339v-1.52h2.662v-1.738c-.8.155-1.6.281-2.354.378a5.224 5.224 0 0 0-.476-1.3 23.667 23.667 0 0 0 5.631-1.443l1.177 1.289a18.234 18.234 0 0 1-2.368.728v2.088h2.41v1.526h-2.41zm4.693 3.1h-1.625v-7.831h1.625zm3.334-9.26v10.786c0 .967-.2 1.429-.771 1.695a6.893 6.893 0 0 1-2.787.323 6.405 6.405 0 0 0-.575-1.724c.911.042 1.808.042 2.1.042.266-.014.378-.1.378-.35v-10.773zM400.46 242.681c0 .9-.2 1.344-.756 1.6a6.49 6.49 0 0 1-2.689.294 6.324 6.324 0 0 0-.533-1.6c.785.042 1.709.027 1.961.027s.365-.084.365-.336v-2.1h-2.956v3.908h-1.681v-3.908h-2.858a8.019 8.019 0 0 1-1.764 4.161 6.189 6.189 0 0 0-1.317-1.08c1.527-1.68 1.653-4.173 1.653-6.134v-5h10.575zM394.171 239v-1.723h-2.633v.252c0 .449-.015.953-.042 1.471zm-2.633-4.9v1.625h2.633V234.1zm7.27 0h-2.956v1.625h2.956zm0 4.9v-1.723h-2.956V239zM100.982 175.306a5.788 5.788 0 0 0-.42.744 17.614 17.614 0 0 1-1.882 3.3 33.7 33.7 0 0 1 3.346 3.43l-1.367 1.187a27.342 27.342 0 0 0-3.023-3.394 15.787 15.787 0 0 1-4.509 3.37l-1.235-1.3a13.609 13.609 0 0 0 4.917-3.442 9.3 9.3 0 0 0 1.787-2.938H94.53c-.5 0-1.163.072-1.415.084v-1.7a13.371 13.371 0 0 0 1.415.084h4.221a4.332 4.332 0 0 0 1.248-.156zM110.776 182.4a8.234 8.234 0 0 0 .108 1.57h-1.895a13.4 13.4 0 0 0 .084-1.57v-3.94a23.472 23.472 0 0 1-4.126 1.632l-.864-1.464a18.406 18.406 0 0 0 5.458-2.171 12.646 12.646 0 0 0 3.13-2.71l1.283 1.163a19.624 19.624 0 0 1-3.178 2.578zM120.09 179.672l-1.464.552a23.9 23.9 0 0 0-1.091-2.771l1.44-.515c.299.611.875 2.062 1.115 2.734zm6.093-2.5c-.144.384-.217.635-.288.876a9.677 9.677 0 0 1-1.631 3.513 9.361 9.361 0 0 1-4.018 2.975l-1.26-1.283a7.074 7.074 0 0 0 5.5-6.62zm-3.443 1.751l-1.439.5a20.044 20.044 0 0 0-.971-2.662l1.427-.468c.228.524.815 2.083.983 2.635zM138.075 177.765c.252 0 .827-.048 1.091-.073v1.548a15.513 15.513 0 0 0-1.056-.049H135a6.007 6.007 0 0 1-3.07 4.93l-1.523-1.031a4.748 4.748 0 0 0 3.01-3.9h-3.3c-.372 0-.816.025-1.127.049v-1.548a10.141 10.141 0 0 0 1.1.073h3.382v-1.7c-1.151.095-2.411.131-3.214.156l-.372-1.392a28.27 28.27 0 0 0 4.09-.191 13.037 13.037 0 0 0 3.022-.72l.984 1.319c-.408.1-.72.18-.924.228a19.1 19.1 0 0 1-2.015.4v1.908zM146.98 180.763a10.589 10.589 0 0 0 1.763-2.159c-.287.06-1.475.3-2.77.576.455 1.643.959 3.49 1.151 4.114.072.216.228.743.324.983l-1.631.4a7.036 7.036 0 0 0-.216-1.044c-.18-.648-.672-2.506-1.1-4.15-1.008.216-1.883.4-2.243.48l-.372-1.438c.384-.037.707-.073 1.1-.145.168-.023.6-.1 1.152-.2-.12-.468-.228-.852-.312-1.116a4.2 4.2 0 0 0-.336-.852l1.607-.384c.048.288.12.6.192.912l.324 1.163c1.523-.288 3.2-.611 3.67-.719a2.287 2.287 0 0 0 .612-.192l.959.684a18.9 18.9 0 0 1-2.555 3.754zM153.764 177.885c.431.036 1.307.071 1.93.071h6.441c.552 0 1.092-.048 1.4-.071v1.883c-.288-.012-.9-.06-1.4-.06h-6.441c-.683 0-1.486.023-1.93.06zM254.922 182.5l-.659 1.5a42.765 42.765 0 0 0-7.328-1.787l.6-1.511a48.264 48.264 0 0 1 7.387 1.798zm-.5-3.766l-.588 1.5a41.821 41.821 0 0 0-6.236-1.511l.551-1.452a49.593 49.593 0 0 1 6.27 1.465zm.815-3.274l-.611 1.5a41.156 41.156 0 0 0-6.489-1.5l.564-1.415a43.769 43.769 0 0 1 6.533 1.417zM268.565 179.936c-.311.023-.8.107-1.259.179-.576.1-1.547.252-2.6.42.192.984.359 1.787.432 2.159s.2.791.311 1.175l-1.727.312c-.06-.455-.1-.864-.168-1.211s-.216-1.176-.407-2.183c-1.224.2-2.351.4-2.867.491s-.924.181-1.2.252l-.336-1.606c.324-.013.863-.084 1.247-.133.552-.083 1.667-.264 2.879-.455l-.36-1.919c-1.055.168-1.979.323-2.351.384-.42.084-.743.155-1.1.252l-.324-1.656a11.011 11.011 0 0 0 1.115-.084 58.86 58.86 0 0 0 2.375-.347c-.1-.5-.18-.9-.216-1.092-.072-.336-.156-.623-.24-.911l1.692-.276c.036.24.071.648.131.935.024.168.1.564.192 1.1 1.02-.168 1.931-.312 2.363-.4.384-.072.839-.168 1.128-.252l.287 1.571c-.264.024-.744.1-1.1.144l-2.4.384.372 1.907c1.079-.18 2.063-.336 2.6-.443.468-.1.912-.193 1.224-.288zM279.858 176.266a7.2 7.2 0 0 0 1.32-.084v1.594a16.77 16.77 0 0 0-1.32-.036h-.887v.4c0 2.973-.72 4.785-3.61 6.056l-1.283-1.212c2.315-.8 3.334-1.846 3.334-4.785v-.456h-2.843v1.632c0 .527.036 1.02.049 1.259h-1.68a9.687 9.687 0 0 0 .072-1.259v-1.635h-1.019c-.6 0-1.032.025-1.295.049v-1.632a7.886 7.886 0 0 0 1.295.109h1.019v-1.188a9.726 9.726 0 0 0-.072-1.079h1.7a7.21 7.21 0 0 0-.073 1.091v1.176h2.843v-1.26a7.9 7.9 0 0 0-.072-1.115h1.7a10.3 10.3 0 0 0-.072 1.115v1.26zM283.463 177.885a28.8 28.8 0 0 0 1.931.071h6.44c.552 0 1.092-.048 1.4-.071v1.883c-.288-.012-.9-.06-1.4-.06h-6.44c-.684 0-1.487.023-1.931.06zM388.819 173.711h5.446v1.259h-1.488v.96h1.272v8.323h-1.14v-.6h-2.782v.756h-1.092v-8.479h1.392v-.96h-1.619zm3.575 6.213c-.516 0-.672-.156-.672-.864v-1.943h-.42v.947a3.306 3.306 0 0 1-.672 2.183 3.527 3.527 0 0 0-.5-.443v.947h2.782v-.827h-.515zm-2.267-2.807v2.651a2.443 2.443 0 0 0 .527-1.715v-.936zm2.782 5.433v-.816h-2.782v.816zm-1.067-7.58h-.492v.96h.492zm1.067 2.147h-.539v1.943c0 .156.011.168.108.168h.215c.108 0 .132 0 .156-.037a.239.239 0 0 0 .06.049zm5.145 5.864c.468 0 .54-.287.612-1.871a4.013 4.013 0 0 0 1.272.565c-.145 2.026-.528 2.638-1.764 2.638h-1.667c-1.331 0-1.751-.408-1.751-1.883v-4.977h3.344V175.2h-3.395v-1.38h4.773v5.734H398.1v-.744h-1.932v3.61c0 .5.073.563.54.563zM405.029 173.734a19.452 19.452 0 0 1-1.115 2.316v8.395h-1.355v-6.333a11.689 11.689 0 0 1-1 1.128 9.109 9.109 0 0 0-.744-1.451 12.766 12.766 0 0 0 2.891-4.486zm7.232 1.716v1.15h-7.676v-1.15zm-6.92 5.145h6.259v3.838h-1.439v-.444h-3.455v.48h-1.367zm6.093-2.3h-5.9v-1.1h5.9zm-5.9.6h5.853v1.116h-5.853zm5.685-4.03h-5.493v-1.115h5.493zm-4.51 6.836v1.176h3.455V181.7zM424.514 175.234h-1.979a6.033 6.033 0 0 1 .5.8l-1.32.372a7.1 7.1 0 0 0-.719-1.175h-.7a6.7 6.7 0 0 1-.659.732v.647h4.593v2.375h-1.391v-1.307h-7.64v1.307h-1.343v-2.375h4.413v-.84h.528a9.8 9.8 0 0 0-.6-.3c.1-.072.2-.156.3-.24h-1.4a6.045 6.045 0 0 1 .4.791l-1.284.361a6.816 6.816 0 0 0-.54-1.152h-.2a8.931 8.931 0 0 1-.96 1.152 7.4 7.4 0 0 0-1.163-.768 6.443 6.443 0 0 0 1.763-2.434l1.331.359c-.084.191-.18.384-.275.575h2.662v.8a5.521 5.521 0 0 0 1.139-1.738l1.355.323a7.43 7.43 0 0 1-.287.611h3.478zm-7.424 6.166h6.164v3.095h-1.415v-.324h-4.749v.324h-1.367v-6.32h6.62v2.674h-5.253zm0-2.194v.623h3.838v-.629zm0 3.238v.671h4.749v-.671zM429.905 182.082c-1.319.468-2.758.924-3.909 1.3l-.324-1.451c.419-.109.911-.24 1.463-.4v-2.818h-1.212v-1.307h1.212v-2.111h-1.32v-1.331h3.958v1.331h-1.283v2.111h1.079v1.307h-1.079v2.4c.4-.119.792-.239 1.176-.371zm7.124.731v1.3h-7.711v-1.3h3.31v-1.138h-2.483v-1.283h2.483v-1.033h-2.4v-5.576h6.261v5.576h-2.411v1.033h2.543v1.283h-2.543v1.138zm-5.516-6.824h1.235v-1h-1.235zm0 2.159h1.235v-1.031h-1.235zm3.621-3.154h-1.187v1h1.187zm0 2.123h-1.187v1.031h1.187z" fill="#222"/><path fill="none" d="M0 0h540v540H0z"/><path d="M424 410a1 1 0 0 1-1-1v-10a1 1 0 0 1 1.494-.869l8.8 5a1 1 0 0 1 0 1.738l-8.8 5A1 1 0 0 1 424 410zm1-9.281v6.562l5.775-3.281zM116 406a1 1 0 0 1-1-1v-10a1 1 0 0 1 1.494-.869l8.8 5a1 1 0 0 1 0 1.738l-8.8 5A1 1 0 0 1 116 406zm1-9.281v6.562l5.775-3.281z" fill="#fff"/><path d="M91.52 426l-7.04 4v-8z" fill="#23d152"/><path d="M267 402a1 1 0 0 1-1-1v-10a1 1 0 0 1 1.494-.869l8.8 5a1 1 0 0 1 0 1.738l-8.8 5A1 1 0 0 1 267 402zm1-9.281v6.562l5.775-3.281z" fill="#fff"/><path d="M154 101h-4.5v-5.5a1.5 1.5 0 0 0-3 0v5.5H142a2 2 0 0 0-2 2v3.5a2 2 0 0 0 2 2h4.5v23a1.5 1.5 0 0 0 1.5 1.5 1.5 1.5 0 0 0 1.5-1.5v-23h4.5a2 2 0 0 0 2-2V103a2 2 0 0 0-2-2zm-1 4.5h-10V104h10z" fill="#222"/><rect x="98" y="96" width="7" height="5" rx="1.5" fill="#23d052"/><rect x="108" y="96" width="7" height="5" rx="1.5" fill="#23d052"/><rect x="118" y="96" width="7" height="5" rx="1.5" fill="#23d052"/><rect x="128" y="96" width="7" height="5" rx="1.5" fill="#23d052"/><rect x="98" y="116" width="7" height="5" rx="1.5" fill="#23d052"/><rect x="108" y="116" width="7" height="5" rx="1.5" fill="#23d052"/><rect x="118" y="116" width="7" height="5" rx="1.5" fill="#23d052"/><rect x="128" y="116" width="7" height="5" rx="1.5" fill="#23d052"/><path fill="none" d="M90 72h74v74H90z"/><circle cx="249" cy="119" r="2" fill="#23d052"/><circle cx="263" cy="119" r="2" fill="#222"/><circle cx="277" cy="119" r="2" fill="#23d052"/><circle cx="291" cy="119" r="2" fill="#222"/><path d="M252.5 99H250v-4a1 1 0 0 0-2 0v4h-2.5a2.5 2.5 0 0 0 0 5h2.5v10a1 1 0 0 0 2 0v-10h2.5a2.5 2.5 0 0 0 0-5zM280.5 99H278v-4a1 1 0 0 0-2 0v4h-2.5a2.5 2.5 0 0 0 0 5h2.5v10a1 1 0 0 0 2 0v-10h2.5a2.5 2.5 0 0 0 0-5z" fill="#23d052"/><path d="M294.5 102H292v-7a1 1 0 0 0-2 0v7h-2.5a2.5 2.5 0 0 0 0 5h2.5v7a1 1 0 0 0 2 0v-7h2.5a2.5 2.5 0 0 0 0-5zM266.5 107H264V95a1 1 0 0 0-2 0v12h-2.5a2.5 2.5 0 0 0 0 5h2.5v2a1 1 0 0 0 2 0v-2h2.5a2.5 2.5 0 0 0 0-5zM413 138a4 4 0 1 1-4 4 4 4 0 0 1 4-4m0-3a7 7 0 1 0 7 7 7 7 0 0 0-7-7zM404 166v-6a5.006 5.006 0 0 1 5-5h8a5.006 5.006 0 0 1 5 5v6h3v-6a8 8 0 0 0-8-8h-8a8 8 0 0 0-8 8v6z" fill="#222"/><path d="M297 77h-54a10 10 0 0 0-10 10v44a10 10 0 0 0 10 10h16.05a10.94 10.94 0 0 1 .711-3H243a7.008 7.008 0 0 1-7-7v-4.864a9.962 9.962 0 0 0 7 2.864h54a9.962 9.962 0 0 0 7-2.864V131a7.008 7.008 0 0 1-7 7h-16.761a10.94 10.94 0 0 1 .711 3H297a10 10 0 0 0 10-10V87a10 10 0 0 0-10-10zm-54 3h54a7 7 0 0 1 6.92 6h-67.84a7 7 0 0 1 6.92-6zm61 39a7.008 7.008 0 0 1-7 7h-54a7.008 7.008 0 0 1-7-7V89h68zM154 77h-54a10 10 0 0 0-10 10v44a10 10 0 0 0 10 10h16.05a10.94 10.94 0 0 1 .711-3H100a7.008 7.008 0 0 1-7-7V89h68v42a7.008 7.008 0 0 1-7 7h-16.761a10.94 10.94 0 0 1 .711 3H154a10 10 0 0 0 10-10V87a10 10 0 0 0-10-10zm-60.92 9a7 7 0 0 1 6.92-6h54a7 7 0 0 1 6.92 6z" fill="#222"/><path d="M270 138a4 4 0 1 1-4 4 4 4 0 0 1 4-4m0-3a7 7 0 1 0 7 7 7 7 0 0 0-7-7zM261 166v-6a5.006 5.006 0 0 1 5-5h8a5.006 5.006 0 0 1 5 5v6h3v-6a8 8 0 0 0-8-8h-8a8 8 0 0 0-8 8v6zM127 138a4 4 0 1 1-4 4 4 4 0 0 1 4-4m0-3a7 7 0 1 0 7 7 7 7 0 0 0-7-7zM118 166v-6a5.006 5.006 0 0 1 5-5h8a5.006 5.006 0 0 1 5 5v6h3v-6a8 8 0 0 0-8-8h-8a8 8 0 0 0-8 8v6z" fill="#222"/><rect x="98" y="106" width="7" height="5" rx="1.5" fill="#222"/><rect x="108" y="106" width="7" height="5" rx="1.5" fill="#222"/><rect x="118" y="106" width="7" height="5" rx="1.5" fill="#222"/><rect x="128" y="106" width="7" height="5" rx="1.5" fill="#222"/><rect x="98" y="126" width="7" height="5" rx="1.5" fill="#222"/><rect x="108" y="126" width="7" height="5" rx="1.5" fill="#222"/><rect x="118" y="126" width="7" height="5" rx="1.5" fill="#222"/><rect x="128" y="126" width="7" height="5" rx="1.5" fill="#222"/><path fill="none" d="M376 72h74v74h-74z"/><path d="M445.5 128h-65a4.505 4.505 0 0 1-4.5-4.5v-17.076a4.488 4.488 0 0 1 .779-2.531l7.087-10.422a4.494 4.494 0 0 1 3.722-1.971h50.824a4.494 4.494 0 0 1 3.722 1.971l7.087 10.422a4.488 4.488 0 0 1 .779 2.531V123.5a4.505 4.505 0 0 1-4.5 4.5zm-57.912-33.5a1.494 1.494 0 0 0-1.239.656l-7.089 10.424a1.493 1.493 0 0 0-.26.844V123.5a1.5 1.5 0 0 0 1.5 1.5h65a1.5 1.5 0 0 0 1.5-1.5v-17.076a1.493 1.493 0 0 0-.26-.844l-7.088-10.423a1.5 1.5 0 0 0-1.24-.657z" fill="#222"/><path fill="#222" d="M377.5 104h71v3h-71zM430.5 121.5a1.4 1.4 0 0 1-1.5-1.269v-8.462a1.521 1.521 0 0 1 3 0v8.462a1.4 1.4 0 0 1-1.5 1.269zM436.5 121.5a1.4 1.4 0 0 1-1.5-1.269v-8.462a1.521 1.521 0 0 1 3 0v8.462a1.4 1.4 0 0 1-1.5 1.269zM442.5 121.5a1.4 1.4 0 0 1-1.5-1.269v-8.462a1.521 1.521 0 0 1 3 0v8.462a1.4 1.4 0 0 1-1.5 1.269z"/><rect x="384" y="112" width="6" height="3" rx="1.5" fill="#23d152"/><rect x="384" y="117" width="6" height="3" rx="1.5" fill="#23d152"/><rect x="393" y="112" width="6" height="3" rx="1.5" fill="#23d152"/><rect x="393" y="117" width="6" height="3" rx="1.5" fill="#23d152"/><rect x="402" y="112" width="6" height="3" rx="1.5" fill="#23d152"/><rect x="402" y="117" width="6" height="3" rx="1.5" fill="#23d152"/><rect x="411" y="112" width="6" height="3" rx="1.5" fill="#23d152"/><rect x="411" y="117" width="6" height="3" rx="1.5" fill="#23d152"/><path fill="none" d="M376 72h74v74h-74z"/><path d="M259 282h22a8 8 0 0 1 8 8v11h-38v-11a8 8 0 0 1 8-8z" fill="#fff"/><circle cx="270" cy="268" r="9.5" fill="#fff"/><path d="M282 281h-24a8 8 0 0 0-8 8v12h3v-12a5.006 5.006 0 0 1 5-5h24a5.006 5.006 0 0 1 5 5v12h3v-12a8 8 0 0 0-8-8zM270 261a7 7 0 1 1-7 7 7.008 7.008 0 0 1 7-7m0-3a10 10 0 1 0 10 10 10 10 0 0 0-10-10z" fill="#222"/><path d="M290.5 307H283v-15.5a1.5 1.5 0 0 0-1.5-1.5h-23a1.5 1.5 0 0 0-1.5 1.5V307h-7.5a1.5 1.5 0 0 0 0 3h41a1.5 1.5 0 0 0 0-3zm-30.5 0v-14h20v14z" fill="#222"/></svg>