<svg id="レイヤー_1" xmlns="http://www.w3.org/2000/svg" viewBox="0 0 540 540"><style>.st0{fill:#f5f5f5}.st1{fill:#fff}.st2{fill:#222}.st3{fill:#23d152}.st4{fill-rule:evenodd;clip-rule:evenodd;fill:#222}.st5{fill:#23d052}</style><path class="st0" d="M55 40h430c8.3 0 15 6.7 15 15v178c0 8.3-6.7 15-15 15H55c-8.3 0-15-6.7-15-15V55c0-8.3 6.7-15 15-15z"/><path class="st1" d="M470 88H290c-5.5 0-10 4.5-10 10v39.3c-6.3-3-13.7-3-20 0V98c0-5.5-4.5-10-10-10H70c-5.5 0-10 4.5-10 10v120c0 5.5 4.5 10 10 10h180c5.5 0 10-4.5 10-10v-39.3c6.3 3 13.7 3 20 0V218c0 5.5 4.5 10 10 10h180c5.5 0 10-4.5 10-10V98c0-5.5-4.5-10-10-10z"/><path class="st0" d="M55 292h430c8.3 0 15 6.7 15 15v178c0 8.3-6.7 15-15 15H55c-8.3 0-15-6.7-15-15V307c0-8.3 6.7-15 15-15z"/><path class="st2" d="M182.7 264.5V271.5h-2.1c0-.3.1-.8.1-1.2v-4.7c0-.4 0-.7-.1-1.1h2.1zm6.5-.1c0 .4-.1.8-.1 1.4v2.8c0 3-.6 4.3-1.6 5.4-.9.9-2.1 1.6-3.4 2l-1.5-1.5c1.3-.2 2.5-.8 3.4-1.8 1-1.1 1.1-2.1 1.1-4.3v-2.7c0-.5 0-.9-.1-1.4l2.2.1zM198.2 272.9c0 .8.5 1.1 1.6 1.1 1.3 0 2.5-.1 3.6-.2l-.1 1.9c-.9.1-2.5.1-3.8.1-2.6 0-3.2-.9-3.2-2.3v-2.7H194c-.4 0-1.1 0-1.5.1V269c.4 0 1.1.1 1.5.1h2.3v-2.4h-2.9V265c.4 0 .9.1 1.4.1h6.7c.4 0 .8 0 1.3-.1v1.8h-4.6v2.4h4.2c.3 0 1 0 1.4-.1v1.8h-5.6v2zM206.6 268.8c.5 0 1.5.1 2.3.1h7.5c.6 0 1.3-.1 1.6-.1v2.2c-.3 0-1.1-.1-1.6-.1h-7.5c-.8 0-1.7 0-2.3.1v-2.2zM229.4 272c-1.6-.8-3.3-1.5-5.1-2.1v4c0 .4.1 1.4.1 1.9h-2.2c.1-.6.1-1.3.1-1.9v-8c0-.6 0-1.1-.1-1.7h2.2c-.1.6-.1 1.1-.1 1.7v2.1c2 .6 4 1.3 5.9 2.2l-.8 1.8zM239.9 265.3c.3 0 .5 0 .8-.1v-.3c0-.9.7-1.7 1.7-1.7.9 0 1.7.7 1.7 1.7 0 .9-.7 1.7-1.7 1.7h-.2l-.1.4c-.4 1.8-1.1 3.6-2.1 5.1-1.4 1.8-3.4 3.2-5.6 3.9l-1.5-1.7c2.2-.4 4.1-1.6 5.5-3.3.9-1.2 1.4-2.5 1.7-4h-6.5c-.6 0-1.3 0-1.7.1v-2c.6.1 1.1.1 1.7.1l6.3.1zm3.2-.3c0-.4-.4-.8-.8-.8s-.8.4-.8.8.4.8.8.8c.5 0 .8-.4.8-.8zM256.7 273.6v1.9h-1.9v-.8H248v.8h-1.9v-8.8-1.4h10.6v8.3zm-8.6-6.5v5.8h6.8v-5.8h-6.8zM269.7 266l1 .6c-.2.3-.3.7-.5 1-.5 1.4-1.1 2.6-1.9 3.8.5.3 1 .6 1.3.9l-1.3 1.7c-.3-.3-.8-.6-1.3-1-1.4 1.6-3.2 2.7-5.2 3.5l-1.6-1.4c2-.6 3.8-1.7 5.2-3.1-.9-.6-1.9-1.2-2.6-1.6l1.2-1.3c.7.4 1.7.9 2.6 1.5.6-.9 1.1-1.9 1.5-3h-4c-1 1.4-2.3 2.6-3.7 3.6L259 270c1.9-1.2 3.4-2.8 4.5-4.6.3-.5.5-1 .6-1.5l2 .6c-.3.5-.7 1.1-.9 1.4h2.9c.4 0 .7 0 1.1-.1-.3-.6-.6-1.1-.9-1.6l1.1-.4c.4.6.8 1.3 1.1 1.9l-.8.3zm1.4-2.9c.4.6.8 1.2 1.1 1.9l-1.1.5c-.3-.7-.7-1.3-1.1-1.9l1.1-.5zM284.3 266.6c-.2.3-.3.7-.5 1-.5 1.7-1.3 3.3-2.4 4.7-1.5 1.8-3.5 3.2-5.7 4l-1.7-1.5c2.2-.6 4.2-1.8 5.6-3.5.9-1.1 1.6-2.4 2-3.8h-3.9c-1 1.3-2.2 2.4-3.5 3.4l-1.6-1.2c1.8-1.1 3.3-2.7 4.4-4.5.3-.5.5-1 .6-1.5l2 .7c-.3.5-.7 1.1-.9 1.4v.1h2.8c.4 0 .8-.1 1.2-.2l1.6.9zM290.5 269.3l-1 1.6c-1-.7-2.1-1.4-3.2-2l1-1.6c1 .6 2.5 1.5 3.2 2zm1.1 3.3c2.3-1.2 4.1-3 5.5-5.3l1.1 1.9c-2.4 3.5-6.1 5.9-10.3 6.8l-1-1.8c1.6-.3 3.3-.9 4.7-1.6zm1.1-6.4l-1 1.6c-.8-.5-2.2-1.5-3.2-2l1-1.5c.9.4 2.4 1.4 3.2 1.9zM309.4 275.4v1h-1.8v-.6h-6.5v-1.7c.2 0 .7.1 1.2.1h5.3v-1.9h-6v-1.7h6V269H303c-.5 0-1.4 0-1.7.1v-1.7c.4 0 1.2.1 1.7.1h6.4v7.9zM318.2 272.1c2.2-1.3 4-3.2 5.1-5.4l1.1 2c-1.3 2.1-3.1 3.9-5.2 5.2-1.6 1-3.4 1.6-5.2 2l-1.2-1.8c1.9-.4 3.8-1 5.4-2zm0-4.5l-1.4 1.5c-1.1-1.1-2.3-2.1-3.5-3l1.3-1.4c1.3.8 2.5 1.8 3.6 2.9zM333.5 267.4c-.9.2-1.8.4-2.7.5-.1.6-.3 1.2-.4 1.8-.6 2.2-1.3 4.3-2.2 6.4l-1.9-.6c1-2 1.8-4.1 2.4-6.2l.3-1.2h-.9c-.7 0-1.2 0-1.7-.1v-1.7c.6.1 1.2.1 1.8.1h1.2c.1-.3.1-.6.1-.8.1-.5.1-.9.1-1.4l2.1.2c-.1.4-.2 1-.3 1.3l-.1.5c.8-.1 1.6-.3 2.3-.4l-.1 1.6zm-.3 4.6c-.1.4-.2.8-.2 1.2 0 .6.4 1.1 1.8 1.1 1 0 1.9-.1 2.9-.3l-.1 1.8c-.9.1-1.9.2-2.8.2-2.3 0-3.5-.8-3.5-2.2 0-.6.1-1.2.2-1.9l1.7.1zm-.8-3.5c.9-.1 1.8-.1 2.7-.1.8 0 1.6 0 2.4.1v1.7c-.8-.1-1.6-.2-2.4-.2-.9 0-1.8.1-2.7.2v-1.7zm3.6-1.4c-.3-.7-.7-1.3-1.1-1.9l1.1-.5c.4.6.8 1.3 1.1 1.9l-1.1.5zm1.7-3.1c.4.6.8 1.2 1.1 1.9l-1.1.5c-.3-.7-.7-1.3-1.1-1.9l1.1-.5zM350.1 267.1c-.4.3-.9.5-1.4.7-1.3.6-2.6 1.3-3.9 2.1-1.2.8-1.9 1.6-1.9 2.5 0 1 1 1.5 2.9 1.5 1.5 0 3-.2 4.5-.5v2c-1.5.2-3 .3-4.5.3-2.8 0-4.8-.8-4.8-3.2 0-1.5 1-2.7 2.3-3.7-.6-1.2-1.3-2.7-1.9-4.1l1.8-.7c.5 1.3 1.1 2.6 1.7 3.8 1.1-.7 2.3-1.3 3-1.6.4-.2.9-.5 1.3-.8l.9 1.7zM353.5 274.1c0-.7.6-1.3 1.3-1.2.7 0 1.3.6 1.2 1.3 0 .7-.6 1.2-1.3 1.2-.6.1-1.2-.5-1.2-1.3 0 .1 0 0 0 0zM358.5 274.1c0-.7.6-1.3 1.3-1.2.7 0 1.3.6 1.2 1.3 0 .7-.6 1.2-1.3 1.2-.6.1-1.2-.5-1.2-1.3 0 .1 0 0 0 0zM363.4 274.1c0-.7.6-1.3 1.3-1.2.7 0 1.3.6 1.2 1.3 0 .7-.6 1.2-1.3 1.2-.6.1-1.2-.5-1.2-1.3 0 .1 0 0 0 0zM200.4 67.5c.7 1 1.8 1.5 2.9 1.4 1.7.1 5 0 6.9-.1-.2.5-.4 1.1-.5 1.6-1.7.1-4.7.1-6.4 0-1.4.1-2.7-.5-3.6-1.6-.6.5-1.3 1.1-2.1 1.7l-.8-1.7c.7-.4 1.3-.8 2-1.3v-3.1H197V63h3.4v4.5zm-.8-6.3c-.7-.9-1.5-1.6-2.3-2.3l1.1-1.1c.9.6 1.7 1.3 2.4 2.2l-1.2 1.2zm3.5 7.1h-1.6v-7.2h3.1c-.6-.3-1.3-.6-1.9-.8l1.1-.9c.5.2 1.1.4 1.7.7.4-.2.8-.5 1.1-.7h-5V58h6.4l.3-.1 1 .8c-.8.7-1.6 1.3-2.5 1.9.3.2.6.3.8.4h1.7v5.8c0 .7-.1 1-.6 1.2-.6.2-1.3.3-1.9.2-.1-.5-.2-.9-.4-1.3h1.1c.2 0 .2-.1.2-.2v-.6H206v2h-1.5v-2h-1.6l.2 2.2zm0-6v.7h1.6v-.8h-1.6zm1.7 2.7v-.8h-1.6v.8h1.6zm3.1-2.7h-1.7v.7h1.7v-.7zm0 2.7v-.8h-1.7v.8h1.7zM223.8 59.5v3.4h-1.7V61h-8.8v1.9h-1.6v-3.4h1.9c-.2-.4-.5-.8-.8-1.2l1.5-.6c.4.5.7 1 1 1.5l-.8.3h2.2v-1.9h1.7v1.9h2.2l-.8-.3c.4-.5.7-1 1-1.5l1.8.5c-.4.5-.8.9-1.1 1.3h2.3zm-.8 9c0 .8-.2 1.2-.7 1.4-.7.2-1.5.3-2.3.2-.1-.5-.3-1-.5-1.5h1.6c.2 0 .3-.1.3-.2V67h-2.5v3.5h-1.7V67h-2.6v2.9h-1.7v-4.4h4.3v-.8h-3v-3.2h7.5v3.2H219v.8h4.2l-.2 3zm-7.3-4.8h4.2v-.9h-4.2v.9zM231.4 68.4c.5-.1.9-.1 1.3-.2 1.8-.3 3.2-1.9 3.2-3.7.1-1.8-1.1-3.4-2.9-3.7-.2 1.3-.5 2.5-.8 3.8-.8 2.8-2 4.5-3.5 4.5s-2.8-1.7-2.8-4c.1-3.4 3-6.1 6.4-5.9 2.9-.2 5.4 2.1 5.6 5v.4c0 2.9-1.8 5-5.3 5.5l-1.2-1.7zm-1-4.2c.3-1.1.6-2.2.7-3.4-2 .4-3.4 2-3.5 4 0 1.4.6 2.1 1.1 2.1.5 0 1.1-.8 1.7-2.7zM244.9 67.2c-1.8.5-3.6 1.1-5.1 1.5l-.4-1.6c.6-.1 1.2-.3 2-.5v-2.8h-1.6v-1.5h1.6v-2.4h-1.7v-1.5h4.9v1.5H243v2.4h1.5v1.5H243v2.4c.5-.2 1.1-.3 1.7-.5l.2 1.5zm6.2 2c.3 0 .3-.2.3-1.6.4.3.9.5 1.4.6-.1 1.9-.5 2.4-1.5 2.4h-1.1c-1.3 0-1.6-.5-1.6-1.9V66h-.9c-.3 2.3-.9 3.9-3.9 4.8-.2-.5-.5-1-.9-1.4 2.5-.6 3-1.8 3.2-3.4h-1v-7.8h6.8V66h-1.7v2.7c0 .4 0 .5.3.5h.6zm-4.4-8.9h3.7v-.9h-3.7v.9zm0 2.2h3.7v-.9h-3.7v.9zm0 2.1h3.7v-.9h-3.7v.9zM261.7 64.6c-.1.2-.3.4-.4.7h5.7v.6c-.2 2.7-.4 3.9-.8 4.3-.2.3-.6.5-.9.5-.5 0-.9.1-1.4 0 0-.5-.2-.9-.4-1.3h1c.2 0 .3 0 .4-.2.4-.8.5-1.7.5-2.6h-.5c-.6 1.6-1.5 3-2.8 4.1-.3-.4-.7-.7-1.2-.9 1.1-.8 2-1.9 2.6-3.2h-.8c-.8 1.4-1.9 2.6-3.3 3.5-.3-.4-.7-.7-1.1-1 1.1-.6 2.1-1.5 2.9-2.5h-.8c-.5.5-1 1-1.6 1.4-.3-.4-.7-.7-1.1-1-1 .5-2 1-2.9 1.4l-.6-1.7c.5-.2 1.1-.4 1.7-.7v-4h-1.4v-1.6h1.4v-2.8h1.5v2.8h1.3V62h-1.3v3.3l1.1-.5.3 1.2c.5-.4.9-.9 1.3-1.5h-1.6v-1.4h8.8v1.4h-5.6zm4.6-1.9h-6.6V58h6.6v4.7zm-1.5-3.6h-3.6v.7h3.6v-.7zm0 1.7h-3.6v.7h3.6v-.7zM273.3 64.1c0-2.5 1-5 2.8-6.7l1.3.6c-3.3 3.4-3.3 8.9 0 12.3l-1.3.6c-1.9-1.8-2.9-4.3-2.8-6.8zM278.4 66.9c0-1.2.7-2.2 1.8-2.7v-.1c-.8-.5-1.4-1.5-1.4-2.5 0-1.7 1.3-2.7 3.1-2.7 1.5-.2 2.8.9 3 2.4v.3c0 1-.5 1.8-1.3 2.4v.1c1.1.5 1.8 1.6 1.7 2.8 0 1.6-1.4 2.8-3.5 2.8-1.9-.1-3.4-1.2-3.4-2.8zm5-.1c0-1.1-1-1.5-2.3-2.1-.6.5-.9 1.2-1 1.9 0 .9.8 1.6 1.6 1.5h.1c.7.1 1.4-.4 1.5-1.2.1 0 .1 0 .1-.1zm-.2-5c.1-.7-.5-1.4-1.2-1.4h-.2c-.7 0-1.2.5-1.3 1.1v.2c0 1 .8 1.5 1.9 1.9.6-.5.8-1.2.8-1.8zM293.9 57.9v.8c.1 1.9.8 8 6 10.4-.5.4-.9.9-1.3 1.4-2.7-1.5-4.7-4-5.5-7-.8 2.9-2.6 5.4-5.2 7-.4-.5-.9-1-1.4-1.3 5.6-3.1 5.4-9.5 5.5-11.3h1.9zM304.9 66.4c-.2-.4-.5-1.1-.8-1.7v6h-1.5v-5.2c-.3 1-.7 1.9-1.3 2.8-.2-.5-.4-1-.7-1.5.9-1.4 1.5-3 1.9-4.7h-1.6v-1.5h1.7v-2.9h1.5v2.9h1.4V62h-1.4v.7c.4.5 1.4 2.2 1.7 2.5l-.9 1.2zm9 2.1h-.8v.6c0 .7-.1 1.1-.6 1.3-.6.2-1.3.3-2 .2-.1-.5-.2-.9-.4-1.3h1.3c.2 0 .2 0 .2-.2v-.6h-3.9v2.1h-1.5v-2.1h-.9v-1.2h.9v-3.5h2.7v-.5h-3.3V62h1.7v-.6h-1.1v-1.1h1.1v-.6h-1.4v-1.1h1.4v-1h1.5v1h1.5v-1h1.6v1h1.6v1.1h-1.6v.6h1.3v1.1h-1.3v.6h1.8v1.2h-3.4v.5h2.8v3.5h.8v1.3zm-6.2-3.6v.6h1.2v-.6h-1.2zm0 2.4h1.2v-.7h-1.2v.7zm1.1-7h1.5v-.6h-1.5v.6zm0 1.7h1.5v-.6h-1.5v.6zm1.5 2.9v.6h1.2v-.6h-1.2zm1.3 2.4v-.7h-1.2v.7h1.2zM327.5 62.5c-.5 1.7-1.3 3.3-2.4 4.8.4 1 .9 1.6 1.3 1.6.3 0 .5-.7.6-2.5.4.4.9.7 1.4.9-.3 2.6-.8 3.2-2.1 3.2-1 0-1.8-.7-2.4-1.8-.7.7-1.5 1.4-2.4 1.9-.4-.5-.8-.9-1.2-1.4 1.1-.6 2-1.4 2.9-2.3-.5-1.8-.8-3.7-1-5.6h-4.1v1.5h3.5v.6c0 2.9-.1 4.2-.4 4.6-.2.3-.6.5-1 .6-.5.1-1.1.1-1.6 0 0-.5-.2-1.1-.5-1.6.5 0 1 .1 1.2.1.2 0 .3 0 .4-.2.2-.9.3-1.7.2-2.6h-1.8c-.1 2-.4 4.8-1.5 6.5-.4-.4-.9-.8-1.4-1.1 1.1-1.7 1.2-4.1 1.2-5.9v-4.1h5.7c0-.7-.1-1.4-.1-2.1h1.8v2.1h2.1l-1.8-1.2 1-1c.8.4 1.6.9 2.3 1.5l-.7.7h1.5v1.7h-4.3c.1 1.3.3 2.6.6 3.8.6-1 1-2 1.3-3.1l1.7.4zM333.8 64.1c0 2.5-1 5-2.8 6.7l-1.3-.6c3.3-3.4 3.3-8.9 0-12.3l1.3-.6c1.8 1.9 2.8 4.3 2.8 6.8zM223.6 319.2c-1.8.5-3.6 1.1-5.1 1.5l-.4-1.6c.6-.1 1.2-.3 2-.5v-2.8h-1.6v-1.5h1.6v-2.4h-1.7v-1.5h4.9v1.5h-1.6v2.4h1.5v1.5h-1.5v2.4c.5-.2 1.1-.3 1.7-.5l.2 1.5zm6.2 2c.3 0 .3-.2.3-1.6.4.3.9.5 1.4.6-.1 1.9-.5 2.4-1.5 2.4h-1c-1.3 0-1.6-.5-1.6-1.9V318h-.9c-.3 2.3-.9 3.9-3.9 4.8-.2-.5-.5-1-.9-1.4 2.5-.6 3-1.8 3.2-3.4h-1v-7.8h6.8v7.8H229v2.7c0 .4 0 .5.3.5h.5zm-4.4-8.9h3.7v-.9h-3.7v.9zm0 2.2h3.7v-.9h-3.7v.9zm0 2.1h3.7v-.9h-3.7v.9zM240.4 316.6c-.1.2-.3.4-.4.7h5.7v.6c-.2 2.7-.4 3.9-.8 4.3-.2.3-.6.5-.9.5-.5 0-.9.1-1.4 0 0-.5-.2-.9-.4-1.3h1c.2 0 .3 0 .4-.2.4-.8.5-1.7.5-2.6h-.5c-.6 1.6-1.5 3-2.8 4.1-.3-.4-.7-.7-1.2-.9 1.1-.8 2-1.9 2.6-3.2h-.8c-.8 1.4-1.9 2.6-3.3 3.5-.3-.4-.7-.7-1.1-1 1.1-.6 2.1-1.5 2.9-2.5h-.9c-.5.5-1 1-1.6 1.4-.3-.4-.7-.7-1.1-1-1 .5-2 1-2.9 1.4l-.6-1.7c.5-.2 1.1-.4 1.7-.7v-4h-1.4v-1.6h1.4v-2.8h1.5v2.8h1.3v1.6H236v3.3l1.1-.5.3 1.2c.5-.4.9-.9 1.3-1.5h-1.6v-1.4h8.8v1.4l-5.5.1zm4.7-1.9h-6.6V310h6.6v4.7zm-1.6-3.6h-3.6v.7h3.6v-.7zm0 1.7h-3.6v.7h3.6v-.7zM252 316.1c0-2.5 1-5 2.8-6.7l1.3.6c-3.3 3.4-3.3 8.9 0 12.3l-1.3.6c-1.8-1.8-2.8-4.2-2.8-6.8zM264.3 318.8H263v2.7h-1.9v-2.7h-4.4v-1.4l3.9-6.3h2.5v6.1h1.2v1.6zm-3.2-1.6v-2.1c0-.6.1-1.5.1-2.1h-.1c-.3.5-.5 1.1-.8 1.7l-1.6 2.6h2.4zM272.6 309.9v.8c.1 1.9.8 8 6 10.4-.5.4-.9.9-1.3 1.4-2.7-1.5-4.7-4-5.5-7-.8 2.9-2.6 5.4-5.2 7-.4-.5-.9-1-1.4-1.3 5.6-3.1 5.4-9.5 5.5-11.3h1.9zM283.6 318.4c-.2-.4-.5-1.1-.8-1.7v6h-1.5v-5.2c-.3 1-.7 1.9-1.3 2.8-.2-.5-.4-1-.7-1.5.9-1.4 1.5-3 1.9-4.7h-1.6v-1.5h1.7v-2.9h1.5v2.9h1.4v1.5h-1.4v.7c.4.5 1.4 2.2 1.7 2.5l-.9 1.1zm9 2.1h-.8v.6c0 .7-.1 1-.6 1.3-.6.2-1.3.3-2 .2-.1-.5-.2-.9-.4-1.3h1.3c.2 0 .2 0 .2-.2v-.6h-3.9v2.1h-1.5v-2.1h-.9v-1.2h.9v-3.5h2.7v-.5h-3.3V314h1.7v-.6h-1.1v-1.1h1.1v-.6h-1.4v-1.1h1.4v-1h1.5v1h1.5v-1h1.6v1h1.6v1.1h-1.6v.6h1.3v1.1h-1.3v.6h1.8v1.2H289v.5h2.8v3.5h.8v1.3zm-6.2-3.6v.6h1.2v-.6h-1.2zm0 2.3h1.2v-.7h-1.2v.7zm1.1-6.9h1.5v-.6h-1.5v.6zm0 1.7h1.5v-.6h-1.5v.6zm1.5 2.9v.6h1.2v-.6H289zm1.3 2.3v-.7H289v.7h1.3zM306.2 314.5c-.5 1.7-1.3 3.3-2.4 4.8.4 1 .9 1.6 1.3 1.6.3 0 .5-.7.6-2.5.4.4.9.7 1.4.9-.3 2.6-.8 3.2-2.1 3.2-1 0-1.8-.7-2.4-1.8-.7.7-1.5 1.4-2.4 1.9-.4-.5-.8-.9-1.2-1.4 1.1-.6 2-1.4 2.9-2.3-.5-1.8-.8-3.7-1-5.6h-4.1v1.5h3.5v.6c0 2.9-.1 4.2-.4 4.6-.2.3-.6.5-1 .6-.5.1-1.1.1-1.6 0 0-.5-.2-1.1-.5-1.6.5 0 1 .1 1.2.1.2 0 .3 0 .4-.2.2-.9.3-1.7.2-2.6h-1.8c-.1 2-.4 4.8-1.5 6.5-.4-.4-.9-.8-1.4-1.1 1.1-1.7 1.2-4.1 1.2-5.9v-4.1h5.7c0-.7-.1-1.4-.1-2.1h1.8v2.1h2.1l-1.8-1.2 1-1c.8.4 1.6.9 2.3 1.5l-.7.7h1.5v1.7h-4.3c.1 1.3.3 2.6.6 3.8.6-1 1-2 1.3-3.1l1.7.4zM312.5 316.1c0 2.5-1 5-2.8 6.7l-1.3-.6c3.3-3.4 3.3-8.9 0-12.3l1.3-.6c1.8 1.9 2.8 4.3 2.8 6.8zM125.7 106.5c0 .2-.1.4-.1.6 0 1.3-.2 4.6-.7 5.9-.2.6-.9 1-1.5.9-.7 0-1.4 0-2-.1l-.2-1.6c.6.1 1.1.2 1.7.2.3 0 .6-.1.7-.4.4-1.5.5-3 .5-4.4h-2.7c-.2 2.6-1.6 5.1-3.7 6.6l-1.4-1.1c.6-.3 1.1-.7 1.6-1.2 1.1-1.2 1.8-2.7 2-4.3h-3.2V106c.5 0 1.1.1 1.6.1h1.7v-1c0-.4 0-.7-.1-1.1h1.8c0 .3-.1.8-.1 1.1v1.1h2.3c.3 0 .6 0 .9-.1l.9.4zM136.7 104.8c-.2.3-.3.7-.5 1.1-.4 1.1-1 2.2-1.6 3.3 1 .8 2 1.7 2.9 2.6l-1.2 1.4c-.8-.9-1.7-1.8-2.7-2.6-1.2 1.5-2.7 2.8-4.5 3.7l-1.4-1.2c1.8-.8 3.3-2 4.6-3.5-1-.8-2.1-1.6-3.2-2.3l1-1.2c1 .6 2.2 1.4 3.2 2.2.6-.9 1-1.8 1.3-2.8.1-.4.2-.7.3-1.1l1.8.4zM148.2 107.8c-.1.2-.2.3-.2.5-.3 1.2-.9 2.4-1.8 3.3-1.2 1.3-2.6 2.1-4.3 2.6l-1.2-1.4c1.6-.3 3-1 4.2-2.1.6-.6 1-1.3 1.2-2.1h-5.8c-.3 0-.9 0-1.4.1v-1.6c.5 0 1 .1 1.4.1h5.9c.3 0 .6 0 .9-.1l1.1.7zm-8.2-3.4c.4 0 .8.1 1.2.1h4.6c.4 0 .9 0 1.3-.1v1.5H140v-1.5zM160.2 106c-.2.2-.3.3-.4.5-1.1 1.8-2.5 3.3-4.1 4.7.7.7 1.4 1.5 1.9 2l-1.4 1.1a28.482 28.482 0 0 0-4.9-4.9l1.3-1c.5.4 1.3 1 2 1.7 1.2-1 2.2-2.1 3-3.5h-6.3c-.5 0-1.1.1-1.4.1V105c.5.1.9.1 1.4.1h6.7c.4 0 .8 0 1.1-.1l1.1 1zM166.5 110.9c1.9-1.1 3.4-2.7 4.4-4.7l.9 1.7c-1.1 1.8-2.6 3.4-4.4 4.4-1.4.8-2.9 1.4-4.4 1.7l-1-1.6c1.6-.2 3.1-.7 4.5-1.5zm0-3.9l-1.2 1.3c-.9-.9-1.9-1.8-3-2.6l1.1-1.2c1.1.7 2.2 1.6 3.1 2.5zM177.1 109c0-2.2.8-4.2 2.4-5.8l1.1.5c-2.9 2.9-2.9 7.6 0 10.5l-1.1.5c-1.5-1.5-2.4-3.5-2.4-5.7zM187.6 111.3h-1.1v2.3h-1.6v-2.3h-3.8v-1.2l3.3-5.4h2.1v5.2h1.1v1.4zm-2.7-1.4v-1.8c0-.5 0-1.3.1-1.8-.2.5-.5 1-.7 1.4l-1.4 2.2h2zM194.8 103.7v.7c.1 1.7.7 6.8 5.2 8.9-.4.3-.8.7-1.1 1.2-2.3-1.3-4.1-3.4-4.7-6-.7 2.5-2.3 4.6-4.4 6-.3-.4-.7-.8-1.2-1.1 4.8-2.7 4.6-8.1 4.7-9.7h1.5zM204.5 109c0 2.2-.8 4.2-2.4 5.8l-1.1-.5c2.9-2.9 2.9-7.6 0-10.5l1.1-.5c1.6 1.5 2.4 3.5 2.4 5.7zM357.4 105.5v6h-1.5v-.6h-2.7v3.7h-1.5v-3.7H349v.7h-1.4v-6h4.1v-2.1h1.5v2.1l4.2-.1zm-5.7 4v-2.6H349v2.6h2.7zm4.2 0v-2.6h-2.7v2.6h2.7zM360.7 110.6c-.1 1.1-.3 2.1-.7 3.1-.3-.2-.7-.3-1-.5.4-.9.6-1.8.6-2.8l1.1.2zm9.7 3.5H365v.5h-1.3v-4.7l-.9.4c0-.2-.1-.5-.2-.7h-.6v5h-1.2v-4.9l-1.6.1-.1-1.2h.9c.2-.2.3-.5.5-.7-.4-.6-.9-1.2-1.4-1.7l.7-.9.3.3.9-2.1 1.2.4c-.4.8-.9 1.8-1.3 2.4.1.2.3.3.4.5.4-.7.8-1.4 1-2l1.1.5c-.4.7-1 1.5-1.5 2.3l.9-.4c.4.7.6 1.4.9 2.2v-5.6h1.3v6.9c.7-.7 1.3-1.5 1.7-2.4h-1.4V107h1.8v-3.5h1.2v3.5h1.9v1.3h-1.9v.2c.5.4 1.8 1.7 2 2l-.8 1.1c-.4-.6-.8-1.1-1.2-1.7v2.6h-1.2V110c-.4.8-.9 1.5-1.5 2.1-.1-.4-.3-.9-.6-1.3v1.9h5.4v1.4zm-8.1-5.6c-.1-.3-.2-.6-.4-.8l-.6.9 1-.1zm.7 1.9c.3.7.5 1.4.6 2.2l-1 .3c-.1-.8-.3-1.5-.6-2.2l1-.3zm2.9-3.4c-.1-.8-.4-1.6-.7-2.3l1-.3c.3.7.6 1.5.8 2.3l-1.1.3zm4.4-2.4c-.3.8-.7 1.8-1 2.4l-.9-.3c.3-.8.6-1.6.7-2.5l1.2.4zM382.8 113H378v1.6h-1.5V113h-4.6v-1.3h4.6v-.6H373v-4.8h3.5v-.6h-4.4v-1.3h4.4v-1h1.5v1h4.4v1.3H378v.6h3.5v4.8H378v.6h4.8v1.3zm-8.3-4.9h2.1v-.7h-2.1v.7zm2.1 1.8v-.7h-2.1v.7h2.1zm1.4-2.5v.7h2.1v-.7H378zm2.1 1.8H378v.7h2.1v-.7zM387.9 109c0-2.2.8-4.2 2.4-5.8l1.1.5c-2.9 2.9-2.9 7.6 0 10.5l-1.1.5c-1.6-1.5-2.5-3.5-2.4-5.7zM398.4 111.3h-1.1v2.3h-1.6v-2.3h-3.8v-1.2l3.3-5.4h2.1v5.2h1.1v1.4zm-2.7-1.4v-1.8c0-.5 0-1.3.1-1.8-.2.5-.5 1-.7 1.4l-1.4 2.2h2zM405.5 103.7v.7c.1 1.7.7 6.8 5.2 8.9-.4.3-.8.7-1.1 1.2-2.3-1.3-4.1-3.4-4.7-6-.7 2.5-2.3 4.6-4.4 6-.3-.4-.7-.8-1.2-1.1 4.8-2.7 4.6-8.1 4.7-9.7h1.5zM415.2 109c0 2.2-.8 4.2-2.4 5.8l-1.1-.5c2.9-2.9 2.9-7.6 0-10.5l1.1-.5c1.6 1.5 2.4 3.5 2.4 5.7z"/><path class="st3" d="M161.5 135H120v60h80v-60h-38.5zm-3 37.4c-4.1-.5-7-4.3-6.4-8.4.4-3.4 3.1-6 6.4-6.4v14.8zm3-14.8c4.1.5 7 4.3 6.4 8.4-.4 3.4-3.1 6-6.4 6.4v-14.8zm-38.5.4h6v14h-6v-14zm0 34v-17h9v-20h-9v-17h35.5v16.6c-5.8.5-10 5.7-9.5 11.4.5 5 4.4 9 9.5 9.5V192H123zm74-20h-6v-14h6v14zm-9-17v20h9v17h-35.5v-16.6c5.8-.5 10-5.7 9.5-11.4-.5-5-4.4-9-9.5-9.5V138H197v17h-9z"/><path class="st2" d="M102 128c2.2 0 4 1.8 4 4s-1.8 4-4 4-4-1.8-4-4 1.8-4 4-4m0-3c-3.9 0-7 3.1-7 7s3.1 7 7 7 7-3.1 7-7-3.1-7-7-7zM93 156v-6c0-2.8 2.2-5 5-5h8c2.8 0 5 2.2 5 5v6h3v-6c0-4.4-3.6-8-8-8h-8c-4.4 0-8 3.6-8 8v6h3zM218 128c2.2 0 4 1.8 4 4s-1.8 4-4 4-4-1.8-4-4 1.8-4 4-4m0-3c-3.9 0-7 3.1-7 7s3.1 7 7 7 7-3.1 7-7-3.1-7-7-7zM209 156v-6c0-2.8 2.2-5 5-5h8c2.8 0 5 2.2 5 5v6h3v-6c0-4.4-3.6-8-8-8h-8c-4.4 0-8 3.6-8 8v6h3zM102 177c2.2 0 4 1.8 4 4s-1.8 4-4 4-4-1.8-4-4 1.8-4 4-4m0-3c-3.9 0-7 3.1-7 7s3.1 7 7 7 7-3.1 7-7-3.1-7-7-7zM93 205v-6c0-2.8 2.2-5 5-5h8c2.8 0 5 2.2 5 5v6h3v-6c0-4.4-3.6-8-8-8h-8c-4.4 0-8 3.6-8 8v6h3zM218 177c2.2 0 4 1.8 4 4s-1.8 4-4 4-4-1.8-4-4 1.8-4 4-4m0-3c-3.9 0-7 3.1-7 7s3.1 7 7 7 7-3.1 7-7-3.1-7-7-7zM209 205v-6c0-2.8 2.2-5 5-5h8c2.8 0 5 2.2 5 5v6h3v-6c0-4.4-3.6-8-8-8h-8c-4.4 0-8 3.6-8 8v6h3z"/><path class="st1" d="M70 340h160c5.5 0 10 4.5 10 10v120c0 5.5-4.5 10-10 10H70c-5.5 0-10-4.5-10-10V350c0-5.5 4.5-10 10-10z"/><path class="st2" d="M115.7 358.5c0 .2-.1.4-.1.6 0 1.3-.2 4.6-.7 5.9-.2.6-.9 1-1.5.9-.7 0-1.4 0-2-.1l-.2-1.6c.6.1 1.1.2 1.7.2.3 0 .6-.1.7-.4.4-1.5.5-3 .5-4.5h-2.7c-.2 2.6-1.6 5.1-3.7 6.6l-1.4-1.1c.6-.3 1.1-.7 1.6-1.2 1.1-1.2 1.8-2.7 2-4.3h-3.2V358c.5 0 1.1.1 1.6.1h1.7v-1c0-.4 0-.7-.1-1.1h1.8c0 .3-.1.8-.1 1.1v1.1h2.3c.3 0 .6 0 .9-.1l.9.4zM126.7 356.8c-.2.3-.3.7-.5 1.1-.4 1.1-1 2.2-1.6 3.3 1 .8 2 1.7 2.9 2.6l-1.2 1.4c-.8-.9-1.7-1.8-2.7-2.6-1.2 1.5-2.7 2.8-4.5 3.7l-1.4-1.2c1.8-.8 3.3-2 4.6-3.5-1-.8-2.1-1.6-3.2-2.3l1-1.2c1 .6 2.2 1.4 3.2 2.2.6-.9 1-1.8 1.3-2.8.1-.4.2-.7.3-1.1l1.8.4zM138.2 359.8c-.1.2-.2.3-.2.5-.3 1.2-.9 2.4-1.8 3.3-1.2 1.3-2.6 2.1-4.3 2.6l-1.2-1.4c1.6-.3 3-1 4.2-2.1.6-.6 1-1.3 1.2-2.1h-5.8c-.3 0-.9 0-1.4.1v-1.6c.5 0 1 .1 1.4.1h5.9c.3 0 .6 0 .9-.1l1.1.7zm-8.2-3.4c.4 0 .8.1 1.2.1h4.6c.4 0 .9 0 1.3-.1v1.5H130v-1.5zM150.2 358c-.2.2-.3.3-.4.5-1.1 1.8-2.5 3.3-4.1 4.7.7.7 1.4 1.5 1.9 2l-1.4 1.1a28.482 28.482 0 0 0-4.9-4.9l1.3-1c.5.4 1.3 1 2 1.7 1.2-1 2.2-2.1 3-3.5h-6.3c-.5 0-1.1.1-1.4.1V357c.5.1.9.1 1.4.1h6.7c.4 0 .8 0 1.1-.1l1.1 1zM156.5 362.9c1.9-1.1 3.4-2.7 4.4-4.7l.9 1.7c-1.1 1.8-2.6 3.4-4.4 4.4-1.4.8-2.9 1.4-4.4 1.7l-1-1.6c1.6-.2 3.1-.7 4.5-1.5zm0-3.9l-1.2 1.3c-.9-.9-1.9-1.8-3-2.6l1.1-1.2c1.1.7 2.2 1.6 3.1 2.5zM167.1 361c0-2.2.8-4.2 2.4-5.8l1.1.5c-2.9 2.9-2.9 7.6 0 10.5l-1.1.5c-1.5-1.5-2.4-3.5-2.4-5.7zM177.6 363.3h-1.1v2.3h-1.6v-2.3h-3.8v-1.2l3.3-5.4h2.1v5.2h1.1v1.4zm-2.7-1.4v-1.8c0-.5 0-1.3.1-1.8-.2.5-.5 1-.7 1.4l-1.4 2.2h2zM184.8 355.7v.7c.1 1.7.7 6.8 5.2 8.9-.4.3-.8.7-1.1 1.2-2.3-1.3-4.1-3.4-4.7-6-.7 2.5-2.3 4.6-4.4 6-.3-.4-.7-.8-1.2-1.1 4.8-2.6 4.6-8.1 4.7-9.7h1.5zM194.5 361c0 2.2-.8 4.2-2.4 5.8l-1.1-.5c2.9-2.9 2.9-7.6 0-10.5l1.1-.5c1.6 1.5 2.4 3.5 2.4 5.7z"/><path class="st3" d="M151.5 387H110v60h80v-60h-38.5zm-3 37.4c-4.1-.5-7-4.3-6.4-8.4.4-3.4 3.1-6 6.4-6.4v14.8zm3-14.8c4.1.5 7 4.3 6.4 8.4-.4 3.4-3.1 6-6.4 6.4v-14.8zm-38.5.4h6v14h-6v-14zm0 34v-17h9v-20h-9v-17h35.5v16.6c-5.8.5-10 5.7-9.5 11.4.5 5 4.4 9 9.5 9.5V444H113zm74-20h-6v-14h6v14zm-9-17v20h9v17h-35.5v-16.6c5.8-.5 10-5.7 9.5-11.4-.5-5-4.4-9-9.5-9.5V390H187v17h-9z"/><path class="st2" d="M92 380c2.2 0 4 1.8 4 4s-1.8 4-4 4-4-1.8-4-4 1.8-4 4-4m0-3c-3.9 0-7 3.1-7 7s3.1 7 7 7 7-3.1 7-7-3.1-7-7-7zM83 408v-6c0-2.8 2.2-5 5-5h8c2.8 0 5 2.2 5 5v6h3v-6c0-4.4-3.6-8-8-8h-8c-4.4 0-8 3.6-8 8v6h3zM208 380c2.2 0 4 1.8 4 4s-1.8 4-4 4-4-1.8-4-4 1.8-4 4-4m0-3c-3.9 0-7 3.1-7 7s3.1 7 7 7 7-3.1 7-7-3.1-7-7-7zM199 408v-6c0-2.8 2.2-5 5-5h8c2.8 0 5 2.2 5 5v6h3v-6c0-4.4-3.6-8-8-8h-8c-4.4 0-8 3.6-8 8v6h3zM92 429c2.2 0 4 1.8 4 4s-1.8 4-4 4-4-1.8-4-4 1.8-4 4-4m0-3c-3.9 0-7 3.1-7 7s3.1 7 7 7 7-3.1 7-7-3.1-7-7-7zM83 457v-6c0-2.8 2.2-5 5-5h8c2.8 0 5 2.2 5 5v6h3v-6c0-4.4-3.6-8-8-8h-8c-4.4 0-8 3.6-8 8v6h3zM208 429c2.2 0 4 1.8 4 4s-1.8 4-4 4-4-1.8-4-4 1.8-4 4-4m0-3c-3.9 0-7 3.1-7 7s3.1 7 7 7 7-3.1 7-7-3.1-7-7-7zM199 457v-6c0-2.8 2.2-5 5-5h8c2.8 0 5 2.2 5 5v6h3v-6c0-4.4-3.6-8-8-8h-8c-4.4 0-8 3.6-8 8v6h3zM426 158c2.2 0 4 1.8 4 4s-1.8 4-4 4-4-1.8-4-4 1.8-4 4-4m0-3c-3.9 0-7 3.1-7 7s3.1 7 7 7 7-3.1 7-7-3.1-7-7-7zM417 186v-6c0-2.8 2.2-5 5-5h8c2.8 0 5 2.2 5 5v6h3v-6c0-4.4-3.6-8-8-8h-8c-4.4 0-8 3.6-8 8v6h3zM399 158c2.2 0 4 1.8 4 4s-1.8 4-4 4-4-1.8-4-4 1.8-4 4-4m0-3c-3.9 0-7 3.1-7 7s3.1 7 7 7 7-3.1 7-7-3.1-7-7-7zM390 186v-6c0-2.8 2.2-5 5-5h8c2.8 0 5 2.2 5 5v6h3v-6c0-4.4-3.6-8-8-8h-8c-4.4 0-8 3.6-8 8v6h3zM372 158c2.2 0 4 1.8 4 4s-1.8 4-4 4-4-1.8-4-4 1.8-4 4-4m0-3c-3.9 0-7 3.1-7 7s3.1 7 7 7 7-3.1 7-7-3.1-7-7-7zM363 186v-6c0-2.8 2.2-5 5-5h8c2.8 0 5 2.2 5 5v6h3v-6c0-4.4-3.6-8-8-8h-8c-4.4 0-8 3.6-8 8v6h3zM345 158c2.2 0 4 1.8 4 4s-1.8 4-4 4-4-1.8-4-4 1.8-4 4-4m0-3c-3.9 0-7 3.1-7 7s3.1 7 7 7 7-3.1 7-7-3.1-7-7-7zM336 186v-6c0-2.8 2.2-5 5-5h8c2.8 0 5 2.2 5 5v6h3v-6c0-4.4-3.6-8-8-8h-8c-4.4 0-8 3.6-8 8v6h3z"/><path class="st3" d="M406.4 139h28.5v3h-28.5z"/><path class="st3" d="M426.9 139l-4.7-6.9c3.5-2.5 6-6.2 7.3-10.3.2-.8-.2-1.6-1-1.9s-1.6.2-1.9 1c-2.8 9-12.3 14.1-21.3 11.3-1.5-.5-3-1.1-4.3-2-.7-.4-1.6-.2-2.1.5-.4.7-.2 1.6.4 2 3.2 2.1 7 3.2 10.9 3.3.4 0 .9 0 1.3-.1l.3 3H337l-11 22-12 7v28h10c0 5 4 9 9 9s9-4 9-9h76c0 5 4 9 9 9s9-4 9-9h10v-57h-19.1zm-12.4-3.4c1.8-.4 3.5-1 5.1-1.9l3.6 5.3h-8.4l-.3-3.4zM333 202c-3.3 0-6-2.7-6-6h12c0 3.3-2.7 6-6 6zm94 0c-3.3 0-6-2.7-6-6h12c0 3.3-2.7 6-6 6zm16-9H317v-23.3l10.5-6.1.8-.4.4-.8 10.2-20.3H443V193z"/><path class="st2" d="M277.5 156.5h-6v-6c0-.8-.7-1.5-1.5-1.5s-1.5.7-1.5 1.5v6h-6c-.8 0-1.5.7-1.5 1.5s.7 1.5 1.5 1.5h6v6c0 .8.7 1.5 1.5 1.5s1.5-.7 1.5-1.5v-6h6c.8 0 1.5-.7 1.5-1.5s-.7-1.5-1.5-1.5z"/><path class="st1" d="M310 340h160c5.5 0 10 4.5 10 10v120c0 5.5-4.5 10-10 10H310c-5.5 0-10-4.5-10-10V350c0-5.5 4.5-10 10-10z"/><path class="st2" d="M237.1 393c0 .5 0 1.1.1 1.6h-1.9c.1-.5.1-1 .1-1.6v-4c-1.3.7-2.7 1.2-4.1 1.6l-.9-1.5c1.9-.4 3.8-1.2 5.5-2.2 1.2-.7 2.2-1.6 3.1-2.7l1.3 1.2c-1 1-2 1.8-3.2 2.6v5zM247 391.3c1.9-1.1 3.4-2.7 4.4-4.7l.9 1.7c-1.1 1.8-2.6 3.4-4.4 4.4-1.4.8-2.9 1.4-4.4 1.7l-1-1.6c1.5-.1 3-.7 4.5-1.5zm0-3.9l-1.2 1.3c-.9-.9-1.9-1.8-3-2.6l1.1-1.2c1.1.7 2.1 1.6 3.1 2.5zM263.8 386.3c-.2.3-.3.6-.4.9-.4 1.2-1 2.3-1.7 3.3.4.3.9.6 1.2.8l-1.1 1.4c-.4-.3-.7-.6-1.1-.9-1.2 1.3-2.7 2.4-4.4 3l-1.4-1.2c1.7-.5 3.2-1.4 4.5-2.7-.8-.5-1.6-1-2.2-1.4l1-1.1c.6.3 1.5.8 2.3 1.3.6-.8 1-1.6 1.2-2.6h-3.4c-.9 1.2-2 2.2-3.2 3.1l-1.3-1c1.6-1 2.9-2.3 3.8-4 .2-.4.4-.8.5-1.3l1.7.5c-.3.4-.6 1-.7 1.2h2.5c.4 0 .7 0 1-.1l1.2.8zM265.7 388.4c.4 0 1.3.1 1.9.1h6.4c.6 0 1.1 0 1.4-.1v1.9c-.3 0-.9-.1-1.4-.1h-6.4c-.7 0-1.5 0-1.9.1v-1.9zM286.7 386.8c-.3.3-.7.7-.9 1-.8.9-1.6 1.6-2.5 2.4v3c0 .5 0 1.2.1 1.5h-1.7c.1-.5.1-1 .1-1.5v-2.1c-1.2.6-2.4 1.1-3.7 1.5l-.9-1.4c1.7-.4 3.4-1 4.9-2 .8-.5 1.5-1.1 2-1.8h-4.3c-.4 0-1.2 0-1.6.1v-1.6c.5.1 1 .1 1.5.1h2.1v-.6c0-.4 0-.7-.1-1.1h1.7c0 .4-.1.7-.1 1.1v.6h1.4c.3 0 .7 0 1-.1l1 .9zm-1.7 2.8c1 .5 2 1.1 2.9 1.7l-1 1.3c-.9-.7-1.9-1.4-2.9-1.9l1-1.1zM292 390.2l-1.5.6c-.3-.9-.7-1.9-1.1-2.8l1.4-.5c.3.6.9 2.1 1.2 2.7zm6.1-2.5c-.1.4-.2.6-.3.9-.3 1.3-.9 2.5-1.6 3.5-1 1.3-2.4 2.4-4 3l-1.3-1.3c3.1-.7 5.4-3.4 5.5-6.6l1.7.5zm-3.5 1.8l-1.4.5c-.3-.9-.6-1.8-1-2.7l1.4-.5c.3.6.8 2.1 1 2.7zM307.7 391.2c-1.4-.7-2.8-1.3-4.3-1.8v3.4c0 .3.1 1.2.1 1.7h-1.9c.1-.6.1-1.1.1-1.7V386c0-.5 0-1-.1-1.5h1.9c-.1.5-.1 1-.1 1.5v1.8c1.7.5 3.4 1.1 5 1.9l-.7 1.5z"/><path class="st4" d="M285.2 415.3c-.2-5.4-5.8-9.1-11.2-7.7-5.2-7.3-17.2-4.3-17.6 4.6-9.7 2.5-7.8 16.3 2.4 16.3h24.1c8.1 0 9.8-10.9 2.3-13.2z"/><path class="st2" d="M353.5 357.4c-.2.2-.3.5-.4.7-.5 1.2-1.1 2.3-1.9 3.3 1.2 1.1 2.3 2.2 3.3 3.4l-1.4 1.2c-.9-1.2-1.9-2.3-3-3.4-1.3 1.4-2.8 2.5-4.5 3.4l-1.2-1.3c1.9-.8 3.6-1.9 4.9-3.4.8-.9 1.4-1.9 1.8-2.9H347c-.5 0-1.2.1-1.4.1v-1.7c.5.1.9.1 1.4.1h4.2c.4 0 .8 0 1.2-.2l1.1.7zM365.8 357.9c-.2.3-.3.6-.4.9-.4 1.2-1 2.3-1.7 3.3.4.3.9.6 1.2.8l-1.1 1.4c-.3-.3-.7-.5-1.1-.9-1.2 1.3-2.7 2.4-4.4 3l-1.4-1.2c1.7-.5 3.2-1.4 4.5-2.7-.8-.5-1.6-1-2.2-1.4l1-1.1c.6.3 1.5.8 2.3 1.3.6-.8 1-1.6 1.2-2.6h-3.4c-.9 1.2-2 2.2-3.2 3.1l-1.3-1c1.6-1 2.9-2.3 3.8-4 .2-.4.4-.8.5-1.3l1.7.5c-.3.4-.6 1-.7 1.2h2.5c.4 0 .7 0 1-.1l1.2.8zM371 360.5l-.9 1.3c-.7-.5-1.9-1.3-2.7-1.7l.9-1.3c.8.5 2.1 1.3 2.7 1.7zm1 2.8c1.9-1 3.5-2.6 4.7-4.5l.9 1.6c-1.2 1.8-2.9 3.3-4.8 4.3-1.3.7-2.6 1.2-4 1.5l-.9-1.6c1.4-.2 2.8-.6 4.1-1.3zm.9-5.5l-.9 1.3c-.7-.5-1.9-1.3-2.7-1.7l.9-1.3c.7.5 2 1.3 2.7 1.7zm3.5.4l-1 .4c-.3-.7-.6-1.3-1.1-1.9l1-.4c.4.6.8 1.3 1.1 1.9zm1.7-.6l-1 .5c-.3-.6-.7-1.3-1.1-1.8l1-.4c.4.4.8 1 1.1 1.7zM388.2 358c.4 0 .8 0 1.2-.1v1.6h-2.7c0 1.8.1 3.8.1 5.4 0 .8-.4 1.2-1.3 1.2-.7 0-1.4 0-2.1-.1l-.1-1.6c.5.1 1.1.1 1.6.1.3 0 .4-.2.4-.5v-3.2c-1.4 1.7-3 3-4.9 4.1l-1.1-1.2c2.1-1 3.9-2.4 5.3-4.2H379.9v-1.6c.4.1.9.1 1.3.1h4v-.9c0-.3-.1-.8-.1-1.2h1.7c0 .4-.1.8-.1 1.2v.9h1.5zM394.9 361c0-2.2.8-4.2 2.4-5.8l1.1.5c-2.9 2.9-2.9 7.6 0 10.5l-1.1.5c-1.6-1.5-2.4-3.5-2.4-5.7zM402.5 363.9c.6.8 1.5 1.3 2.5 1.2 1.4.1 4.3 0 5.9-.1-.2.4-.3.9-.4 1.4-1.5.1-4 .1-5.5 0-1.2.1-2.3-.4-3.1-1.3-.5.5-1 .9-1.6 1.4l-.7-1.4c.5-.3 1-.7 1.5-1.1v-2.6h-1.3v-1.3h2.7v3.8zm-.9-5.4c-.5-.7-1.1-1.4-1.8-2l1.1-.8c.7.6 1.3 1.2 1.9 1.9l-1.2.9zm4.4 6.3V363c-.7.6-1.5 1.1-2.4 1.4-.2-.4-.5-.7-.8-1.1 1-.3 2-.8 2.7-1.5h-1.8v-2.7h6v2.4l.9.5c-.5.3-1 .7-1.5.9.5.3 1.1.4 1.7.5-.3.3-.6.7-.8 1.1-1-.2-1.9-.7-2.6-1.4v1.6l-1.4.1zm4.6-6.2h-7.7v-1h3.1v-.5h-2.4v-1h2.4v-.7h1.4v.7h2.5v1h-2.5v.5h3.2v1zm-5.5 2.2h3.3v-.8h-3.3v.8zm2.4 1c.2.3.4.5.7.7.3-.2.6-.4.9-.7h-1.6zM416.4 356.4c-.3 1-.7 2.4-1 3.3.6.7.9 1.6.9 2.4.1.6-.1 1.1-.5 1.5-.2.1-.4.2-.7.2h-.7c0-.4-.1-.8-.3-1.2h.5c.1 0 .2 0 .3-.1.2-.2.2-.4.2-.7 0-.8-.3-1.5-.8-2.1.2-.7.5-1.8.7-2.6h-.9v9.4h-1.2v-10.7h2.5l.2-.1.8.7zm6.7 8.9c0 .6-.1.9-.4 1.1-.5.2-1 .2-1.4.2-.1-.4-.2-.8-.4-1.2h.8c.1 0 .2 0 .2-.2v-1.9h-.9c-.7 0-.9-.2-.9-1v-.5h-.5c0 .8-.6 1.5-1.5 1.7-.1-.2-.2-.4-.4-.6v3.7h-1.3v-5.8h6.8l-.1 4.5zm0-8.2h-6.6v-1.2h6.6v1.2zm-6.1 3.2v-2.7h5.5v2.7H417zm.6 2.6c.5-.1.9-.5 1-1h-1v1zm2.7 1.8v1.7h-1.1v-1.7h-1.1v-1h3.3v.9l-1.1.1zm-1.9-5.3h2.7v-.8h-2.7v.8zm3.4 3.1v-.6h-1v.5c0 .2 0 .2.2.2h.6c.1-.1.2-.1.2-.1zM428.2 361c0 2.2-.8 4.2-2.4 5.8l-1.1-.5c2.9-2.9 2.9-7.6 0-10.5l1.1-.5c1.6 1.5 2.4 3.5 2.4 5.7z"/><circle class="st2" cx="243" cy="420" r="2"/><circle class="st2" cx="236" cy="420" r="2"/><circle class="st2" cx="297" cy="420" r="2"/><circle class="st2" cx="304" cy="420" r="2"/><path class="st2" d="M260.7 282.8v7.5h-5.5c-.3 0-.5.2-.5.5 0 .2.1.3.2.4l14.5 9.3c.3.2.7.2 1.1 0l14.5-9.3c.2-.1.3-.5.2-.7-.1-.1-.3-.2-.4-.2h-5.5v-7.5"/><path class="st5" d="M456 453h-59.7l-4.6-8c-.5-1-1.8-1.3-2.7-.7-.3.2-.6.4-.7.7l-4.6 8H324c-9.4 0-17 7.6-17 17s7.6 17 17 17h132c9.4 0 17-7.6 17-17s-7.6-17-17-17z"/><path class="st1" d="M326.9 473.2c.6.9 1.7 1.4 2.7 1.3 1.6.1 4.6 0 6.4-.1-.2.5-.4 1-.5 1.5-1.6.1-4.4.1-6 0-1.3.1-2.5-.5-3.4-1.4-.5.5-1.1 1-1.7 1.6l-.7-1.5c.6-.4 1.1-.8 1.6-1.2v-2.8H324v-1.4h2.9v4zm-.9-5.8c-.5-.8-1.2-1.5-2-2.2l1.2-.9c.8.6 1.5 1.3 2 2.1l-1.2 1zm4.7 6.8v-1.9c-.8.6-1.6 1.1-2.6 1.5l-.9-1.2c1.1-.3 2.1-.9 3-1.7h-1.9V468h6.5v2.6l.9.6c-.6.4-1.1.7-1.7 1 .6.3 1.2.5 1.9.6l-.9 1.2c-1.1-.2-2.1-.8-2.9-1.5v1.7h-1.4zm5-6.6h-8.3v-1.1h3.3v-.6H328v-1.1h2.7v-.7h1.5v.7h2.8v1.1h-2.8v.6h3.5v1.1zm-6 2.3h3.6v-.8h-3.6v.8zm2.6 1c.2.3.4.5.7.7.3-.2.7-.5 1-.7h-1.7zM341.8 465.1c-.3 1.1-.8 2.5-1.1 3.5.6.7.9 1.7.9 2.7.1.6-.1 1.2-.6 1.7-.2.1-.5.2-.7.3h-.8c0-.4-.1-.9-.3-1.3h.5c.1 0 .2 0 .4-.1.2-.2.2-.5.2-.8 0-.9-.3-1.7-.9-2.3.3-.8.5-1.9.7-2.8h-1v10.2h-1.3v-11.6h2.8l.2-.1 1 .6zm7.3 9.7c0 .6-.1.9-.5 1.2-.5.2-1 .3-1.6.2-.1-.4-.2-.9-.4-1.3h.9c.2 0 .2 0 .2-.2v-2.1h-1c-.8 0-1-.2-1-1.1v-.5h-.6c-.1.9-.7 1.7-1.6 1.9-.1-.3-.3-.5-.5-.7v4h-1.4v-6.3h7.4l.1 4.9zm-.1-8.9h-7.2v-1.2h7.2v1.2zm-6.5 3.4v-2.9h5.9v2.9h-5.9zm.6 2.8c.5-.1 1-.5 1.1-1.1h-1.1v1.1zm2.9 2v1.8h-1.2v-1.8h-1.2v-1h3.6v1H346zm-2-5.8h2.9v-.9H344v.9zm3.7 3.4v-.7h-1.1v.5c0 .2 0 .2.2.2h.6c.2.1.2.1.3 0zM352.4 466.1c1.1-.1 3.2-.3 5.6-.5 1.3-.1 2.7-.2 3.6-.2v1.7c-.8 0-1.7 0-2.5.2-1.6.5-2.7 1.9-2.7 3.6 0 2.1 2 2.9 4.2 3l-.6 1.8c-2.7-.2-5.3-1.6-5.3-4.4 0-1.5.7-3 1.9-4-1.1.1-3.8.4-5.3.7l-.2-1.8c.6 0 1.1-.1 1.3-.1zm8.5 4l-1 .4c-.3-.6-.6-1.2-1-1.8l1-.4c.3.6.7 1.2 1 1.8zm1.5-.7l-1 .5c-.3-.6-.7-1.2-1.1-1.8l.9-.4c.5.6.9 1.1 1.2 1.7zM369.7 474.1c.4 0 .8-.1 1.2-.2 1.7-.3 2.9-1.7 2.9-3.4.1-1.7-1-3.2-2.7-3.4-.2 1.2-.4 2.4-.8 3.5-.8 2.6-1.9 4.2-3.3 4.2s-2.6-1.6-2.6-3.7c.1-3.2 2.8-5.6 5.9-5.5 2.7-.2 5 1.9 5.2 4.6v.4c0 2.7-1.7 4.6-4.9 5.1l-.9-1.6zm-1-3.9c.3-1 .5-2.1.7-3.1-1.8.4-3.2 1.9-3.3 3.7 0 1.3.5 1.9 1 1.9.6 0 1.1-.8 1.6-2.5zM381.8 464.6c-.3.9-.8 1.8-1.2 2.7v8.9H379v-6.5c-.3.3-.5.6-.8.9-.2-.6-.5-1.1-.9-1.7 1.3-1.4 2.3-3 3-4.9l1.5.6zm4.1 3v1.4h3.4v1.4h-3.4v1.5h3.5v1.4h-3.5v2.9h-1.6v-8.6h-.5c-.5.9-1 1.7-1.7 2.5-.4-.4-.8-.7-1.2-1.1 1.3-1.4 2.2-3.1 2.8-4.9l1.5.4c-.2.5-.4 1.1-.6 1.6h5v1.5h-3.7zM398.9 473.2c1.3.7 2.7 1.2 4.1 1.4-.4.4-.8.9-1 1.4-1.6-.4-3.1-1.2-4.4-2.2v2.3h-1.5v-2.3c-1.3 1-2.8 1.7-4.4 2.1-.3-.5-.6-.9-1-1.3 1.4-.3 2.8-.8 4.1-1.5h-3.7V472h5v-.6h-3.7v-1.1h3.7v-.6h-4.4v-1.2h2.5c-.1-.4-.3-.7-.4-1h.2-2.7v-1.3h1.7c-.2-.6-.5-1.1-.8-1.6l1.3-.5c.4.6.7 1.2 1 1.8l-.6.2h1.2V464h1.4v2.1h1V464h1.5v2.1h1.2l-.5-.1c.3-.6.6-1.2.8-1.9l1.6.4c-.4.6-.7 1.2-1 1.6h1.7v1.3h-2.4c-.2.4-.4.7-.6 1h2.5v1.2h-4.5v.6h3.9v1.1h-3.9v.6h5.1v1.3h-4zm-3.5-5.8c.2.3.3.7.4 1h-.2 2.4c.2-.3.3-.7.5-1h-3.1zM409.7 464.9c-.1.3-.2.7-.2 1.1-.1.4-.2.9-.3 1.3.4 0 .8-.1 1.1-.1 1.4 0 2.3.6 2.3 2.5.1 1.6-.2 3.2-.7 4.7-.4.8-1.2 1.3-2.1 1.2-.5 0-1-.1-1.5-.2l-.3-1.7c.5.1 1 .2 1.6.3.4 0 .8-.2 1-.6.4-1.1.6-2.3.5-3.5 0-1-.4-1.2-1.2-1.2-.2 0-.5 0-.9.1-.6 2.4-1.5 4.7-2.6 6.9l-1.7-.7c1.2-1.8 2.1-3.9 2.6-6-.5.1-.9.1-1.1.1-.4 0-1 .1-1.4.2l-.1-1.7h1.4c.4 0 1-.1 1.7-.1.2-.9.3-1.8.3-2.7l1.6.1zm4.6 1.6c.8 1.4 1.5 2.9 2.1 4.5l-1.6.8c-.4-1.7-1.2-3.4-2.2-4.8l1.2-.5-.9-1.5 1-.4c.3.5.8 1.3 1 1.8l-.6.1zm1.2-.5c-.3-.6-.7-1.2-1.1-1.8l1-.4c.4.6.7 1.2 1.1 1.8l-1 .4zM429.6 466.5h-1.5v7.7c0 .9-.2 1.4-.8 1.7-1 .3-1.9.4-2.9.3-.1-.6-.4-1.1-.6-1.6.9.1 2.1 0 2.4 0s.4-.1.4-.4v-7.7H418v-1.6h11.7v1.6zm-9.1 6.5v1H419v-6h5.5v5h-4zm0-3.6v2.1h2.5v-2.1h-2.5zM436 464.9c.7.9 1.2 1.9 1.6 3l-1.4.6c-.1-.2-.1-.5-.2-.7-1.7.1-3.5.2-4.8.3l-.1-1.5h1c.4-.8.7-1.7.9-2.6l1.6.3c-.3.8-.6 1.5-1 2.2l1.7-.1c-.2-.4-.4-.7-.6-1.1l1.3-.4zm.7 9.7c0 .7-.1 1.1-.6 1.3-.6.2-1.2.3-1.8.3-.1-.5-.3-.9-.5-1.4h1.1c.2 0 .2 0 .2-.2v-.9h-2v2.5h-1.4v-7.5h4.9l.1 5.9zm-3.5-4.6v.7h2v-.7h-2zm1.9 2.6v-.8h-2v.8h2zm4.5-2.7c-1.5 0-1.9-.5-1.9-1.9v-3.9h1.5v1.9c.8-.3 1.6-.7 2.3-1.1l1 1.1c-1.1.5-2.2.9-3.3 1.2v.8c0 .5.1.5.6.5h1.4c.4 0 .5-.2.6-1.3.4.3.9.5 1.4.6-.2 1.7-.6 2.1-1.8 2.1h-1.8zm1.7 4.9c.4 0 .5-.2.6-1.6.4.3.9.5 1.4.6-.2 1.8-.6 2.3-1.8 2.3h-1.8c-1.5 0-1.9-.4-1.9-1.9v-4.1h1.5v1.8c.9-.3 1.7-.7 2.4-1.2l1 1.1c-1.1.6-2.3 1-3.5 1.4v1c0 .5.1.5.6.5l1.5.1zM447.8 465.1c-.1.4-.2.8-.3 1.1-.3 1.6-.5 3.1-.6 4.7 0 .3 0 .6.1.8.2-.5.4-.9.6-1.3l.8.6c-.4 1-.7 2.1-.9 3.2 0 .2-.1.4-.1.6v.5l-1.5.1c-.4-1.4-.5-2.8-.5-4.2.1-1.7.2-3.4.5-5.1.1-.4.1-.8.1-1.3l1.8.3zm3 6.4c-.1.4-.2.7-.2 1.1 0 .6.5.9 1.8.9 1.1 0 2.2-.1 3.2-.3v1.7c-1.1.2-2.2.3-3.3.3-2.2 0-3.3-.8-3.3-2.1 0-.6.1-1.1.2-1.7l1.6.1zm4.5-5.5v1.7c-1.8.1-3.7.1-5.5 0V466c1.8.2 3.7.2 5.5 0z"/><path class="st3" d="M424 442h-3v-13h-8v13h-3v-16h14zM374 442h-3v-13h-9v13h-3v-16h15z"/><path class="st2" d="M424.4 399l.4-4c.4 0 .9.1 1.3.1 3.9 0 7.6-1.1 10.9-3.3.7-.5.9-1.4.4-2.1s-1.4-.9-2.1-.4c-7.9 5.1-18.5 2.9-23.6-5-.9-1.3-1.5-2.8-2-4.3-.3-.8-1.1-1.2-1.9-1-.8.2-1.2 1.1-1 1.8 1.2 4.1 3.8 7.7 7.3 10.3l-5.4 7.9H395v-19h-57v62h3v-59h51v59h3v-40h44v40h3v-43h-17.6zm-7.7-6.3c1.6.9 3.3 1.5 5.1 1.9l-.4 4.4h-9l4.3-6.3z"/><path class="st3" d="M364 404h-12v-12h12v12zm-9-3h6v-6h-6v6zM381 404h-12v-12h12v12zm-9-3h6v-6h-6v6zM364 421h-12v-12h12v12zm-9-3h6v-6h-6v6zM381 421h-12v-12h12v12zm-9-3h6v-6h-6v6zM415 421h-12v-12h12v12zm-9-3h6v-6h-6v6zM431 421h-12v-12h12v12zm-9-3h6v-6h-6v6z"/></svg>