<svg xmlns="http://www.w3.org/2000/svg" viewBox="0 0 540 540"><rect x="40" y="40" width="460" height="241" rx="15" fill="#f5f5f5"/><rect x="60" y="60" width="345" height="201" rx="10" fill="#fff"/><path d="M395 262.5h-3.445v-3H395c.159 0 .318 0 .475-.013l.159 3q-.315.013-.634.013zm-9.445 0h-4v-3h4zm-10 0h-4v-3h4zm-10 0h-4v-3h4zm-10 0h-4v-3h4zm-10 0h-4v-3h4zm-10 0h-4v-3h4zm-10 0h-4v-3h4zm-10 0h-4v-3h4zm-10 0h-4v-3h4zm-10 0h-4v-3h4zm-10 0h-4v-3h4zm-10 0h-4v-3h4zm-10 0h-4v-3h4zm-10 0h-4v-3h4zm-10 0h-4v-3h4zm-10 0h-4v-3h4zm-10 0h-4v-3h4zm-10 0h-4v-3h4zm-10 0h-4v-3h4zm-10 0h-4v-3h4zm-10 0h-4v-3h4zm-10 0h-4v-3h4zm-10 0h-4v-3h4zm-10 0h-4v-3h4zm-10 0h-4v-3h4zm-10 0h-4v-3h4zm-10 0h-4v-3h4zm-10 0h-4v-3h4zm-10 0h-4v-3h4zm-10 0h-4v-3h4zm-10 0h-4v-3h4zm-10 0h-4v-3h4zm-10.5-1.115a11.5 11.5 0 0 1-3.649-2.743l2.24-2a8.5 8.5 0 0 0 2.7 2.032zm336.955-1.267l-1.831-2.377a8.482 8.482 0 0 0 2.219-2.551l2.608 1.483a11.484 11.484 0 0 1-2.997 3.445zm-343.419-7.666A11.7 11.7 0 0 1 58.5 251v-2.731h3V251a8.579 8.579 0 0 0 .067 1.077zm347.909-2.293h-3v-4h3zm-345-7.89h-3v-4h3zm345-2.11h-3v-4h3zm-345-7.89h-3v-4h3zm345-2.11h-3v-4h3zm-345-7.89h-3v-4h3zm345-2.11h-3v-4h3zm-345-7.89h-3v-4h3zm345-2.11h-3v-4h3zm-345-7.89h-3v-4h3zm345-2.11h-3v-4h3zm-345-7.89h-3v-4h3zm345-2.11h-3v-4h3zm-345-7.89h-3v-4h3zm345-2.11h-3v-4h3zm-345-7.89h-3v-4h3zm345-2.11h-3v-4h3zm-345-7.89h-3v-4h3zm345-2.11h-3v-4h3zm-345-7.89h-3v-4h3zm345-2.11h-3v-4h3zm-345-7.89h-3v-4h3zm345-2.11h-3v-4h3zm-345-7.89h-3v-4h3zm0-10h-3v-4h3zm0-10h-3v-4h3zm0-10h-3v-4h3zm0-10h-3v-4h3zm345-8.854h-3V81.3h3zm-345-1.146h-3v-4h3zm345-6.967h-3v-4h3zm-345-3.033h-3V70a11.571 11.571 0 0 1 .17-1.979l2.956.513A8.543 8.543 0 0 0 61.5 70zm341.083-6.115a8.493 8.493 0 0 0-2.1-2.648l1.936-2.291a11.438 11.438 0 0 1 2.836 3.58zM63.915 64.065l-2.148-2.094A11.45 11.45 0 0 1 65.54 59.4l1.165 2.765a8.454 8.454 0 0 0-2.79 1.9zm331.948-2.522A8.764 8.764 0 0 0 395 61.5h-2.983v-3H395a11.5 11.5 0 0 1 1.165.059zm-9.846-.043h-4v-3h4zm-10 0h-4v-3h4zm-10 0h-4v-3h4zm-10 0h-4v-3h4zm-10 0h-4v-3h4zm-10 0h-4v-3h4zm-10 0h-4v-3h4zm-10 0h-4v-3h4zm-10 0h-4v-3h4zm-10 0h-4v-3h4zm-10 0h-4v-3h4zm-10 0h-4v-3h4zm-10 0h-4v-3h4zm-10 0h-4v-3h4zm-10 0h-4v-3h4zm-10 0h-4v-3h4zm-10 0h-4v-3h4zm-10 0h-4v-3h4zm-10 0h-4v-3h4zm-10 0h-4v-3h4zm-10 0h-4v-3h4zm-10 0h-4v-3h4zm-10 0h-4v-3h4zm-10 0h-4v-3h4zm-10 0h-4v-3h4zm-10 0h-4v-3h4zm-10 0h-4v-3h4zm-10 0h-4v-3h4zm-10 0h-4v-3h4zm-10 0h-4v-3h4zm-10 0h-4v-3h4zm-10 0h-4v-3h4z" fill="#222"/><rect x="40" y="296" width="146" height="94" rx="10" fill="#f5f5f5"/><rect x="197" y="296" width="146" height="94" rx="10" fill="#f5f5f5"/><rect x="354" y="296" width="146" height="94" rx="10" fill="#f5f5f5"/><path d="M427 298a1.5 1.5 0 0 1-1.5-1.5v-17a1.5 1.5 0 0 1 3 0v17a1.5 1.5 0 0 1-1.5 1.5zM270 298a1.5 1.5 0 0 1-1.5-1.5v-17a1.5 1.5 0 0 1 3 0v17a1.5 1.5 0 0 1-1.5 1.5zM113 298a1.5 1.5 0 0 1-1.5-1.5v-17a1.5 1.5 0 0 1 3 0v17a1.5 1.5 0 0 1-1.5 1.5z" fill="#f5f5f5"/><rect x="40" y="410" width="460" height="40" rx="20" fill="#23d152"/><path d="M75.758 433.782h2.227v-6.555h-1.877v-1.275a6.731 6.731 0 0 0 2.41-.868h1.526v8.7h1.947v1.667h-6.233zM91.021 423.907c-.013.224-.027.5-.042.8.113 1.934.813 7.971 6.038 10.422a5.5 5.5 0 0 0-1.289 1.415 11.108 11.108 0 0 1-5.519-7.032 11.963 11.963 0 0 1-5.183 7.032 5.824 5.824 0 0 0-1.4-1.331c5.59-3.1 5.394-9.455 5.492-11.3zM100.077 425.8c1.162-.1 3.46-.308 6-.532 1.428-.113 2.942-.2 3.922-.239l.014 1.793a14.329 14.329 0 0 0-2.675.183 4.209 4.209 0 0 0-2.928 3.88c0 2.283 2.129 3.109 4.482 3.221l-.644 1.919c-2.913-.181-5.659-1.751-5.659-4.762a5.5 5.5 0 0 1 2.045-4.273c-1.2.126-4.118.435-5.729.785l-.182-1.905a23.98 23.98 0 0 0 1.354-.07zm9.105 4.272l-1.065.477a10.686 10.686 0 0 0-1.093-1.947l1.037-.435a18.476 18.476 0 0 1 1.121 1.903zm1.625-.686l-1.051.5a12.293 12.293 0 0 0-1.149-1.886l1.023-.476a21.2 21.2 0 0 1 1.177 1.86zM124.834 432.13a6.4 6.4 0 0 1-1.863 2.381 12.348 12.348 0 0 0 2.914.7 6.235 6.235 0 0 0-1.023 1.457 10.566 10.566 0 0 1-3.39-1.19 13.769 13.769 0 0 1-3.74 1.2 5.643 5.643 0 0 0-.826-1.414 13.539 13.539 0 0 0 3.179-.786 6.573 6.573 0 0 1-.854-.91 10.146 10.146 0 0 1-1.092.672 4.74 4.74 0 0 0-1.079-1.092 7.744 7.744 0 0 0 2.914-2.185h-1.415v-3.516c-.126.154-.267.294-.407.434a4.6 4.6 0 0 0-.98-.855 16.911 16.911 0 0 1-1.172 2.638l.351.435a14.746 14.746 0 0 0 .728-1.331l.938.658a36.934 36.934 0 0 1-1.05 1.485c.294.378.546.714.658.868l-.924 1.093a16.013 16.013 0 0 0-.911-1.555v5.351h-1.49v-4.5a10.808 10.808 0 0 1-1.162 1.218 5.4 5.4 0 0 0-.757-1.471 11.806 11.806 0 0 0 3.124-4.328h-2.7v-1.443h1.485v-2.493h1.484v2.493h.448l.253-.056.84.532a8.876 8.876 0 0 0 1.863-3.039l1.541.252c-.14.336-.294.658-.448.994h5.238v1.373H119.5a5.925 5.925 0 0 1-.42.6h5.659v4.16h-2.914a7.285 7.285 0 0 1-.49.658h2.228l.294-.056zm-4.763-3.727h3.082v-.574h-3.082zm0 1.541h3.082v-.589h-3.082zm.337 2.9a5.054 5.054 0 0 0 1.092.925 5.06 5.06 0 0 0 1.093-.925zM139.282 427.647a15.748 15.748 0 0 1-1.527 5.225 6.576 6.576 0 0 0 2.479 2.325 6.434 6.434 0 0 0-1.148 1.443 7.62 7.62 0 0 1-2.354-2.227 9.089 9.089 0 0 1-2.955 2.3 6.322 6.322 0 0 0-.532-.952l-.631.643a13.272 13.272 0 0 0-1.456-1.049 8.605 8.605 0 0 1-3.446 1.33 3.864 3.864 0 0 0-.659-1.387 7.468 7.468 0 0 0 2.662-.742 7.847 7.847 0 0 0-.784-.378l-.155.265-1.457-.448c.309-.49.659-1.12 1.009-1.793H127v-1.345h2.03c.169-.349.337-.686.477-.994l.308.071v-1.345a10.156 10.156 0 0 1-2.1 1.624 5.013 5.013 0 0 0-.841-1.2 7.462 7.462 0 0 0 2.466-1.751h-2.186v-1.317h1.065a7.465 7.465 0 0 0-.728-1.625l1.2-.5a5.948 5.948 0 0 1 .841 1.737l-.9.392h1.177v-2.353h1.527v2.353h1.106l-.924-.406a13.6 13.6 0 0 0 .938-1.779l1.4.56a81.72 81.72 0 0 1-1.2 1.625h1.331v1.317h-2.3c.672.378 1.667.967 1.975 1.177l-.882 1.148c-.308-.294-.9-.784-1.443-1.219v1.7h-.9l.6.126-.336.671h3.334a9.693 9.693 0 0 0-1.134-.965c1.19-1.43 1.862-3.811 2.2-6.3l1.681.224a24.043 24.043 0 0 1-.449 2.3h3.726v1.541zm-9.665 5.294c.42.169.826.337 1.233.534a4.27 4.27 0 0 0 .532-1.276h-1.359zm3.334-.742a5.649 5.649 0 0 1-.743 1.989 12.7 12.7 0 0 1 1.163.743 6.866 6.866 0 0 0 2.465-2.116 14.846 14.846 0 0 1-.952-2.758 8.782 8.782 0 0 1-.645 1.007c-.056-.055-.112-.126-.2-.21v1.346zm3-4.552a17.655 17.655 0 0 0 .855 3.291 14.976 14.976 0 0 0 .756-3.291zM150.69 424.985a18.6 18.6 0 0 1 3.768 3.951l-1.442 1.106a8.993 8.993 0 0 0-.9-1.274c-3.7.2-7.606.35-10.211.448l-.1-1.681c.644-.014 1.372-.042 2.157-.056a24.016 24.016 0 0 0 2.059-3.993l1.919.618a43.11 43.11 0 0 1-1.961 3.305c1.513-.056 3.138-.126 4.748-.2-.448-.448-.91-.868-1.344-1.247zm-7.4 5.5h9.33v6.15h-1.793v-.546H145v.56h-1.709zm1.71 1.588v2.427h5.828v-2.424zM161.973 434.385c.532-.071.924-.141 1.288-.225a3.755 3.755 0 0 0 3.152-3.712 3.434 3.434 0 0 0-2.9-3.67 30.17 30.17 0 0 1-.826 3.769c-.827 2.8-2.031 4.51-3.544 4.51s-2.83-1.695-2.83-4.035a6.186 6.186 0 0 1 6.388-5.938 5.293 5.293 0 0 1 5.6 5.421c0 2.913-1.793 4.986-5.3 5.518zm-1.079-4.2a22.294 22.294 0 0 0 .742-3.363 4.349 4.349 0 0 0-3.515 4.021c0 1.4.56 2.087 1.078 2.087.574-.002 1.134-.87 1.695-2.747zM182.01 427.213a6.052 6.052 0 0 0-.1.742c-.056 1.513-.224 5.421-.827 6.85a1.724 1.724 0 0 1-1.807 1.079c-.8 0-1.638-.057-2.325-.113l-.21-1.876a11.608 11.608 0 0 0 1.961.2.744.744 0 0 0 .8-.49 19.148 19.148 0 0 0 .589-5.2h-3.152c-.518 3.7-1.849 5.9-4.356 7.676l-1.625-1.316a8.038 8.038 0 0 0 1.835-1.373 8.234 8.234 0 0 0 2.307-4.992h-1.849c-.476 0-1.246 0-1.849.056v-1.835c.589.057 1.317.1 1.849.1h2c.014-.393.028-.8.028-1.219a10.377 10.377 0 0 0-.1-1.289h2.06c-.042.322-.071.911-.084 1.247-.015.434-.029.854-.057 1.261h2.634a6.717 6.717 0 0 0 1.064-.1zM196.052 425.168a11.07 11.07 0 0 0-.574 1.246 20 20 0 0 1-1.892 3.811 36.282 36.282 0 0 1 3.334 3.081l-1.442 1.611a28.147 28.147 0 0 0-3.1-3.082 17.523 17.523 0 0 1-5.211 4.329l-1.611-1.443a15.292 15.292 0 0 0 5.323-4.132 36.342 36.342 0 0 0-3.754-2.648l1.2-1.443c1.121.7 2.564 1.682 3.7 2.522a15.274 15.274 0 0 0 1.54-3.32 10.437 10.437 0 0 0 .337-1.289zM211.3 428.768a5.178 5.178 0 0 0-.266.587 10.068 10.068 0 0 1-2.073 3.881 10.488 10.488 0 0 1-5 3.026l-1.4-1.583a9.45 9.45 0 0 0 4.86-2.451 6.1 6.1 0 0 0 1.443-2.424H202.1c-.336 0-1.036.014-1.625.07v-1.821c.589.056 1.191.085 1.625.085h6.934a2.949 2.949 0 0 0 1.022-.141zm-9.539-4.063a11.615 11.615 0 0 0 1.457.07h5.392a13.011 13.011 0 0 0 1.514-.07v1.808a24.37 24.37 0 0 0-1.541-.042h-5.365c-.448 0-1.051.013-1.457.042zM220.115 433.432c.028-.406.042-1.05.056-1.653-1.023.561-1.583 1.107-1.583 1.793 0 .771.659.981 2.017.981a21.24 21.24 0 0 0 3.937-.407l-.057 1.807a38.358 38.358 0 0 1-3.922.225c-2.171 0-3.81-.519-3.81-2.312 0-1.764 1.681-2.886 3.264-3.7a1.084 1.084 0 0 0-.967-.476 3.437 3.437 0 0 0-2.171.953 17.652 17.652 0 0 0-1.289 1.527l-1.484-1.108a13.56 13.56 0 0 0 3.053-3.809h-.168c-.56 0-1.583-.028-2.339-.1v-1.624a17.812 17.812 0 0 0 2.437.154h.673a7.726 7.726 0 0 0 .28-1.582l1.821.153c-.07.337-.168.812-.336 1.373a32.048 32.048 0 0 0 3.922-.406l-.014 1.625c-1.331.2-3.04.307-4.525.364a8.469 8.469 0 0 1-.8 1.4 4.366 4.366 0 0 1 1.569-.28 1.889 1.889 0 0 1 1.849 1.079c.714-.336 1.3-.574 1.877-.826.532-.238 1.022-.477 1.527-.715l.7 1.611a14.784 14.784 0 0 0-1.653.588c-.616.239-1.4.546-2.255.939.014.77.042 1.793.056 2.423zM240.922 425.868h-2.311a6.984 6.984 0 0 1 .588.939l-1.54.434a8.339 8.339 0 0 0-.841-1.373h-.812a7.82 7.82 0 0 1-.771.855v.756h5.365v2.773h-1.625v-1.526h-8.922v1.526h-1.57v-2.773h5.156v-.979h.616c-.253-.14-.519-.266-.7-.35a6.14 6.14 0 0 0 .351-.28h-1.639a7 7 0 0 1 .462.925l-1.5.42a7.922 7.922 0 0 0-.63-1.345h-.238a10.289 10.289 0 0 1-1.121 1.345 8.655 8.655 0 0 0-1.359-.9 7.511 7.511 0 0 0 2.059-2.843l1.555.42c-.1.224-.21.448-.322.672h3.11v.939a6.459 6.459 0 0 0 1.33-2.031l1.583.378q-.147.357-.336.714h4.062zm-8.671 7.2h7.2v3.614H237.8v-.382h-5.548v.378h-1.6V429.3h7.732v3.124h-6.136zm0-2.563v.728h4.483v-.728zm0 3.781v.785h5.549v-.785zM247.2 433.866c-1.541.547-3.222 1.079-4.567 1.513l-.378-1.694a74.065 74.065 0 0 0 1.709-.463v-3.291h-1.415V428.4h1.415v-2.465h-1.541v-1.555h4.623v1.555h-1.5v2.465h1.261v1.528h-1.261v2.8c.462-.139.925-.28 1.373-.433zm8.32.855v1.512h-9.006v-1.512h3.866v-1.331h-2.9v-1.5h2.9v-1.2h-2.8v-6.514h7.312v6.514h-2.815v1.2h2.969v1.5h-2.969v1.331zm-6.443-7.97h1.442v-1.163h-1.442zm0 2.52h1.442v-1.2h-1.442zm4.23-3.683h-1.387v1.163h1.387zm0 2.479h-1.387v1.2h1.387zM283.73 433.222c-1.765.518-3.642 1.064-5.084 1.485l-.421-1.569c.561-.126 1.247-.308 2-.5v-2.816h-1.556v-1.527h1.556v-2.437h-1.682v-1.541h4.9v1.541h-1.611v2.437h1.468v1.527h-1.457v2.4c.547-.154 1.121-.309 1.667-.463zm6.22 1.947c.252 0 .308-.224.336-1.625a4.281 4.281 0 0 0 1.386.616c-.139 1.919-.5 2.438-1.54 2.438h-1.051c-1.289 0-1.569-.477-1.569-1.891v-2.746h-.854c-.252 2.283-.9 3.908-3.88 4.791a4.957 4.957 0 0 0-.924-1.373c2.535-.63 2.983-1.778 3.165-3.418H284v-7.844h6.835v7.844h-1.723v2.746c0 .406.028.462.266.462zm-4.4-8.824h3.656v-.869h-3.656zm0 2.129h3.656v-.869h-3.656zm0 2.129h3.656v-.869h-3.656zM300.321 430.6a8.345 8.345 0 0 1-.392.672h5.687s-.014.378-.028.575c-.2 2.731-.42 3.851-.8 4.257a1.307 1.307 0 0 1-.925.477 8.8 8.8 0 0 1-1.414.028 3.334 3.334 0 0 0-.379-1.3c.449.042.813.042 1 .042a.48.48 0 0 0 .42-.155 6.11 6.11 0 0 0 .518-2.619h-.546a9.985 9.985 0 0 1-2.8 4.146 4.566 4.566 0 0 0-1.177-.924 7.708 7.708 0 0 0 2.605-3.222h-.826a10.7 10.7 0 0 1-3.278 3.516 4.922 4.922 0 0 0-1.092-.981 8.451 8.451 0 0 0 2.857-2.535h-.84a8.75 8.75 0 0 1-1.625 1.372 5.777 5.777 0 0 0-1.093-.98c-1.008.5-2.017 1.009-2.872 1.428l-.616-1.68c.477-.183 1.065-.42 1.723-.687v-3.95h-1.4v-1.568h1.4v-2.76h1.541v2.76h1.317v1.568h-1.317v3.306l1.12-.491.3 1.192a6.871 6.871 0 0 0 1.288-1.485h-1.583v-1.4h8.806v1.4zm4.623-1.933h-6.626v-4.735h6.626zm-1.541-3.586h-3.614v.672h3.611zm0 1.765h-3.614v.672h3.611zM313.369 434.385c.532-.071.924-.141 1.288-.225a3.755 3.755 0 0 0 3.152-3.712 3.434 3.434 0 0 0-2.9-3.67 30.17 30.17 0 0 1-.826 3.769c-.827 2.8-2.031 4.51-3.544 4.51s-2.83-1.695-2.83-4.035a6.186 6.186 0 0 1 6.388-5.938 5.293 5.293 0 0 1 5.6 5.421c0 2.913-1.793 4.986-5.3 5.518zm-1.079-4.2a22.294 22.294 0 0 0 .742-3.363 4.349 4.349 0 0 0-3.515 4.021c0 1.4.56 2.087 1.078 2.087.574-.002 1.134-.87 1.695-2.747zM332.873 425.952a6.615 6.615 0 0 0-.49.868 20.609 20.609 0 0 1-2.2 3.853 39.294 39.294 0 0 1 3.908 4.006l-1.6 1.386a31.955 31.955 0 0 0-3.53-3.963 18.458 18.458 0 0 1-5.267 3.935l-1.443-1.513a15.859 15.859 0 0 0 5.749-4.019 10.881 10.881 0 0 0 2.087-3.433h-4.749c-.588 0-1.358.084-1.653.1v-1.989a15.938 15.938 0 0 0 1.653.1h4.931a5.111 5.111 0 0 0 1.457-.181zM348.2 426.513a6.591 6.591 0 0 0-.463.994 16.124 16.124 0 0 1-1.932 3.838c.518.322.994.644 1.344.9l-1.275 1.64a15.967 15.967 0 0 0-1.3-.995 13.388 13.388 0 0 1-5.169 3.488l-1.625-1.415a11.853 11.853 0 0 0 5.225-3.138 60.346 60.346 0 0 0-2.62-1.6l1.191-1.331c.742.377 1.7.91 2.633 1.47a10.17 10.17 0 0 0 1.457-2.983h-4.02a16.493 16.493 0 0 1-3.7 3.614l-1.512-1.163a12.834 12.834 0 0 0 4.468-4.65 6.2 6.2 0 0 0 .63-1.471l2.031.63c-.336.49-.7 1.135-.868 1.429l-.014.014h2.871a4.453 4.453 0 0 0 1.219-.154zM355.158 431.051l-1.709.644a28.5 28.5 0 0 0-1.275-3.236l1.681-.6c.35.712 1.022 2.408 1.303 3.192zm7.115-2.913c-.168.448-.252.742-.336 1.022a11.291 11.291 0 0 1-1.905 4.1 10.944 10.944 0 0 1-4.692 3.474l-1.471-1.5a8.257 8.257 0 0 0 6.429-7.732zm-4.02 2.045l-1.681.588a23.342 23.342 0 0 0-1.134-3.11l1.666-.547c.267.603.953 2.424 1.149 3.069zM376.9 426.12a5.712 5.712 0 0 0-.308.981 14.411 14.411 0 0 1-2.1 5.1 11.194 11.194 0 0 1-5.631 3.866l-1.527-1.68a9.245 9.245 0 0 0 5.491-3.279 8.862 8.862 0 0 0 1.639-3.95h-6.528c-.63 0-1.3.029-1.667.057v-1.976c.42.042 1.219.113 1.681.113h6.472a4.646 4.646 0 0 0 1.106-.113zM385.245 424.523c-.084.365-.168.8-.239 1.149-.084.42-.195.925-.294 1.429.462-.029.883-.056 1.163-.056 1.471 0 2.507.658 2.507 2.647a13.569 13.569 0 0 1-.784 5.057 2.216 2.216 0 0 1-2.284 1.274 7.849 7.849 0 0 1-1.652-.2l-.308-1.835a8.09 8.09 0 0 0 1.708.294 1.02 1.02 0 0 0 1.037-.6 10.6 10.6 0 0 0 .56-3.8c0-1.108-.476-1.261-1.345-1.261-.224 0-.56.027-.952.056a30.074 30.074 0 0 1-2.829 7.41l-1.807-.729a20.582 20.582 0 0 0 2.787-6.485c-.49.056-.925.112-1.191.154-.392.042-1.106.14-1.54.21l-.155-1.877a12.891 12.891 0 0 0 1.471 0 41.837 41.837 0 0 0 1.793-.112 15.457 15.457 0 0 0 .295-2.942zm4.972 1.653a27.587 27.587 0 0 1 2.256 4.833l-1.765.826a15.729 15.729 0 0 0-2.34-5.225l1.289-.546a15.668 15.668 0 0 0-.952-1.653l1.106-.462c.35.518.84 1.4 1.121 1.919zm1.275-.462a13.886 13.886 0 0 0-1.135-1.933l1.107-.463a16.745 16.745 0 0 1 1.135 1.906zM401.583 429.062a9.352 9.352 0 0 0 5.239 6 6.685 6.685 0 0 0-1.232 1.569 10.443 10.443 0 0 1-5.253-5.939 9.643 9.643 0 0 1-5.239 5.953 4.936 4.936 0 0 0-1.246-1.415 8.4 8.4 0 0 0 5.084-6.163h-4.818v-1.723h5.1c.14-1.317.126-2.592.14-3.74h1.821c-.014 1.148-.028 2.437-.168 3.74h5.5v1.723zM413.482 432.115a1.49 1.49 0 0 1-.35 1.191 1.528 1.528 0 0 1-1.107.3 3.789 3.789 0 0 0-.364-1.36v4.427h-1.4v-9.049h-.6v6.15h-1.219v-7.621h1.821V423.6h1.4v2.549h1.821zm-1.289.1c.07 0 .1-.028.1-.141v-4.454h-.631v4.595zm8.853-8.026v1.344h-7.2v-1.344zm-7.2 6.275h7.144v6.177h-1.541v-.407h-4.118v.421h-1.485zm6.64-4.231v3.488h-6.037v-3.488zm-5.155 5.519v.953h1.317v-.953zm1.317 3.194v-1h-1.317v1zm2.381-7.48h-3.18v1.034h3.18zm.42 4.286h-1.4v.953h1.4zm0 3.194v-1h-1.4v1zM426.277 424.762a11.652 11.652 0 0 0-.336 1.232 34.323 34.323 0 0 0-.672 5.085 6.705 6.705 0 0 0 .056.9c.2-.491.42-.954.616-1.4l.869.673a33.217 33.217 0 0 0-1 3.4 4.1 4.1 0 0 0-.084.645c.014.154.014.379.028.574l-1.6.112a17.711 17.711 0 0 1-.546-4.538 38.475 38.475 0 0 1 .574-5.491 10.377 10.377 0 0 0 .14-1.358zm3.25 6.849a4.575 4.575 0 0 0-.168 1.162c0 .617.532.981 1.933.981a15.935 15.935 0 0 0 3.474-.364l.042 1.878a19.31 19.31 0 0 1-3.586.279c-2.395 0-3.53-.868-3.53-2.283a8.553 8.553 0 0 1 .238-1.807zm4.847-5.939v1.793a38.423 38.423 0 0 1-5.954 0l-.014-1.793a28.327 28.327 0 0 0 5.968 0zM439.226 430.042a9.181 9.181 0 0 0-2.241-1.387l.911-1.232a8.8 8.8 0 0 1 2.311 1.274zm1 1.724a57.412 57.412 0 0 1-1.653 4.608l-1.513-.827a40.375 40.375 0 0 0 1.821-4.651zm-.323-5.421a8.873 8.873 0 0 0-2.269-1.457l.939-1.233a10.136 10.136 0 0 1 2.32 1.345zm9.96 1.932a17.237 17.237 0 0 1-1.821 4.805c.224.98.462 1.568.714 1.583.2.014.336-.7.407-1.989a4.454 4.454 0 0 0 1.176.854c-.35 2.549-1.036 3.1-1.611 3.1-.77-.014-1.358-.7-1.793-1.947a10.457 10.457 0 0 1-2.045 1.891 8.79 8.79 0 0 0-1.093-1.065 8.638 8.638 0 0 0 2.676-2.564 41.826 41.826 0 0 1-.616-5.84h-3.684v2.437c0 2.1-.2 5.154-1.373 7.116a5.451 5.451 0 0 0-1.247-.841c1.065-1.806 1.163-4.384 1.163-6.275v-3.912h5.071a80.478 80.478 0 0 1-.056-1.891h1.526q0 .966.042 1.891h1.583a9 9 0 0 0-1.554-1.177l.9-.84a7.359 7.359 0 0 1 1.793 1.345l-.686.672h.574v1.47h-2.535c.07 1.3.168 2.507.294 3.557a15.814 15.814 0 0 0 .77-2.647zm-6.2 5.534v.755h-1.103v-4.677h3.166v3.922zm1.961-4.707h-2.994v-1.219h2.984zm-1.961 1.989v1.5h.966v-1.5zM455.8 425.77a15.515 15.515 0 0 1-2.9 5.015 12.66 12.66 0 0 0-1.513-.981 10.993 10.993 0 0 0 2.549-4.468zm6.78 4.216c-1.373 4.315-4.16 5.94-9.217 6.738a5.765 5.765 0 0 0-.883-1.667c4.637-.518 7.172-1.849 8.307-5.589zm-3.754-6.4v6.794c0 .882-.168 1.358-.77 1.61a6.8 6.8 0 0 1-2.592.323 6.259 6.259 0 0 0-.588-1.723c.8.027 1.667.027 1.919.014s.336-.056.336-.252v-6.766zm2.872 1.541a19.047 19.047 0 0 1 2.913 4.608l-1.709.911a18.559 18.559 0 0 0-2.759-4.721z" fill="#fff"/><rect x="40" y="460" width="460" height="40" rx="20" fill="#23d152"/><path d="M95.967 477.3a9.8 9.8 0 0 1-.826.728 15.435 15.435 0 0 0-1.359-1.092 8.628 8.628 0 0 0 2.9-3.348l1.625.477a7.733 7.733 0 0 1-.547.98h8.405v1.471h-1.317v1.793h1.821v1.484h-1.821v1.779h1.625v1.485H94.3v-1.485h1.667v-1.782H94.09v-1.484h1.877zm-2.017 8.74a6.9 6.9 0 0 0 1.569-2.689l1.611.392a7.672 7.672 0 0 1-1.6 2.942zm3.488-7.731h1.009v-1.793h-1.009zm0 3.263h1.009v-1.782h-1.009zm2.143 2.087a18.018 18.018 0 0 1 .336 2.619l-1.625.239a17.8 17.8 0 0 0-.266-2.676zm1.289-5.35v-1.793h-1.037v1.793zm-1.037 1.484v1.779h1.037v-1.782zm2.536 3.811a15.611 15.611 0 0 1 .812 2.605l-1.667.321a14.949 14.949 0 0 0-.714-2.661zm.952-7.088h-1.064v1.793h1.064zm0 3.277h-1.064v1.779h1.064zm1.849 3.5a18.961 18.961 0 0 1 1.765 2.8l-1.709.574a18.055 18.055 0 0 0-1.653-2.872zM115.528 473.907c-.014.224-.028.5-.042.8.112 1.934.812 7.971 6.037 10.422a5.5 5.5 0 0 0-1.289 1.415 11.111 11.111 0 0 1-5.519-7.032 11.965 11.965 0 0 1-5.182 7.032 5.843 5.843 0 0 0-1.4-1.331c5.589-3.1 5.393-9.455 5.491-11.3zM124.583 475.8c1.163-.1 3.46-.308 6-.532 1.429-.113 2.942-.2 3.922-.239l.014 1.793a14.329 14.329 0 0 0-2.675.183 4.21 4.21 0 0 0-2.928 3.88c0 2.283 2.13 3.109 4.483 3.221l-.644 1.919c-2.914-.181-5.66-1.751-5.66-4.762a5.5 5.5 0 0 1 2.045-4.273c-1.2.126-4.118.435-5.729.785l-.182-1.905a23.927 23.927 0 0 0 1.354-.07zm9.1 4.272l-1.064.477a10.806 10.806 0 0 0-1.093-1.947l1.036-.435a18.476 18.476 0 0 1 1.126 1.903zm1.625-.686l-1.051.5a12.291 12.291 0 0 0-1.143-1.886l1.022-.476a20.967 20.967 0 0 1 1.177 1.86zM148.836 477.213a6.052 6.052 0 0 0-.1.742c-.056 1.513-.224 5.421-.826 6.85a1.725 1.725 0 0 1-1.808 1.079c-.8 0-1.638-.057-2.325-.113l-.21-1.876a11.608 11.608 0 0 0 1.961.2.745.745 0 0 0 .8-.49 19.191 19.191 0 0 0 .588-5.2h-3.151c-.519 3.7-1.849 5.9-4.357 7.676l-1.625-1.316a8.016 8.016 0 0 0 1.835-1.373 8.241 8.241 0 0 0 2.312-4.987h-1.849c-.477 0-1.247 0-1.85.056v-1.835c.589.057 1.317.1 1.85.1h2c.015-.393.029-.8.029-1.219a10.572 10.572 0 0 0-.1-1.289h2.059c-.042.322-.071.911-.084 1.247-.014.434-.029.854-.056 1.261h2.633a6.717 6.717 0 0 0 1.064-.1zM162.878 475.168a11.07 11.07 0 0 0-.574 1.246 19.993 19.993 0 0 1-1.891 3.811 36.282 36.282 0 0 1 3.334 3.081l-1.443 1.611a27.973 27.973 0 0 0-3.1-3.082 17.5 17.5 0 0 1-5.21 4.329l-1.611-1.443a15.279 15.279 0 0 0 5.322-4.132 36.32 36.32 0 0 0-3.753-2.648l1.2-1.443c1.121.7 2.564 1.682 3.7 2.522a15.233 15.233 0 0 0 1.541-3.32 10.258 10.258 0 0 0 .336-1.289zM178.125 478.768a5.38 5.38 0 0 0-.267.587 10.066 10.066 0 0 1-2.072 3.881 10.488 10.488 0 0 1-5 3.026l-1.4-1.583a9.454 9.454 0 0 0 4.861-2.451 6.1 6.1 0 0 0 1.443-2.424h-6.766c-.337 0-1.037.014-1.625.07v-1.821c.588.056 1.191.085 1.625.085h6.933a2.951 2.951 0 0 0 1.023-.141zm-9.54-4.063a11.634 11.634 0 0 0 1.457.07h5.393a12.983 12.983 0 0 0 1.513-.07v1.808a24.326 24.326 0 0 0-1.541-.042h-5.365c-.448 0-1.05.013-1.457.042zM186.255 474.523c-.084.365-.168.8-.238 1.149-.084.42-.2.925-.294 1.429.462-.029.882-.056 1.163-.056 1.47 0 2.507.658 2.507 2.647a13.549 13.549 0 0 1-.785 5.057 2.215 2.215 0 0 1-2.283 1.274 7.867 7.867 0 0 1-1.653-.2l-.308-1.835a8.1 8.1 0 0 0 1.709.294 1.02 1.02 0 0 0 1.037-.6 10.6 10.6 0 0 0 .56-3.8c0-1.108-.476-1.261-1.345-1.261-.224 0-.56.027-.952.056a30.038 30.038 0 0 1-2.83 7.41l-1.807-.729a20.562 20.562 0 0 0 2.788-6.485c-.49.056-.925.112-1.191.154-.392.042-1.106.14-1.541.21l-.154-1.877a12.891 12.891 0 0 0 1.471 0 41.936 41.936 0 0 0 1.793-.112 15.369 15.369 0 0 0 .294-2.942zm4.973 1.653a27.507 27.507 0 0 1 2.255 4.833l-1.765.826a15.707 15.707 0 0 0-2.339-5.225l1.288-.546a15.326 15.326 0 0 0-.952-1.653l1.107-.462c.35.518.84 1.4 1.12 1.919zm1.274-.462a13.98 13.98 0 0 0-1.134-1.933l1.107-.463a16.585 16.585 0 0 1 1.134 1.906zM206.46 475.392v11.248h-1.779v-.687h-6.653v.7h-1.695v-11.261h3.586a15.9 15.9 0 0 0 .378-1.835l2.017.224c-.21.56-.434 1.107-.658 1.611zm-8.432 1.6v1.444h6.653v-1.444zm0 2.985v1.442h6.653v-1.442zm6.653 4.44v-1.457h-6.653v1.457zM221.973 476.736s-.014.547-.014.743c-.126 5.729-.238 7.76-.687 8.405a1.566 1.566 0 0 1-1.106.7 9.4 9.4 0 0 1-1.737.056 3.889 3.889 0 0 0-.491-1.6c.617.056 1.149.07 1.416.07a.51.51 0 0 0 .476-.238c.294-.378.434-2.087.518-6.611h-1.261c-.182 3.754-.826 6.639-3.179 8.5a5.523 5.523 0 0 0-.981-1.107c-2.017.21-4.034.42-5.547.547l-.2-1.4a1005.8 1005.8 0 0 1 2.843-.2v-.839h-2.465v-1.177h2.465v-.547h-2.409v-4.328h2.409v-.546h-2.759v-1.2h2.759v-.56c-.812.056-1.61.1-2.367.112a5.193 5.193 0 0 0-.364-1.177 43.423 43.423 0 0 0 6.037-.686l.729 1.246c-.743.155-1.611.281-2.521.378v.687h2.689v.77h1.316c.015-.924.015-1.89.015-2.927h1.6c0 1.022 0 2-.028 2.927zm-11.038 2.648h1.092v-.616h-1.092zm1.092 1.625v-.63h-1.092v.63zm1.514 3.473c.8-.055 1.624-.126 2.437-.2 1.092-1.513 1.428-3.515 1.526-6.022h-1.274v-1.093h-2.689v.546h2.479v4.328h-2.479v.547h2.535v1.177h-2.535zm1.092-5.1v-.616h-1.092v.616zm-1.092 1v.63h1.092v-.63zM236.393 480.785a9.5 9.5 0 0 1-1.163 3.7 5.362 5.362 0 0 0 1.639 1.08 5.072 5.072 0 0 0-.911 1.134 5.788 5.788 0 0 1-1.583-1.134 5.476 5.476 0 0 1-1.6 1.12 5.853 5.853 0 0 0-.6-.994v1.036H230.8v-1.246c-1.121.223-2.227.448-3.138.616l-.378-1.387c.336-.042.714-.084 1.134-.141v-4.412h-.672l.112.784-1.246.379v3.614c0 .77-.127 1.176-.561 1.428a3.458 3.458 0 0 1-1.905.309 6.607 6.607 0 0 0-.406-1.513c.49.028.981.028 1.149.028s.238-.056.238-.252v-3.165c-.463.126-.911.252-1.317.364l-.364-1.6c.476-.1 1.05-.237 1.681-.406v-2.367H223.7v-1.527h1.429V473.6h1.485v2.633h1.078v1.527h-1.078v1.975l.98-.28v-.589h9.133v1.289h-4.553v5.267a4.433 4.433 0 0 0 1.317-.966 9.563 9.563 0 0 1-.994-2.13l1.176-.307a7.3 7.3 0 0 0 .6 1.288 6.163 6.163 0 0 0 .518-1.4h-2.438v-1.26h2.9l.266-.029zm-.6-2.424h-6.977v-4.37h6.977zm-6.066 1.793v.617h1.073v-.617zm0 2.354h1.073v-.645h-1.079zm1.079 1.709v-.631h-1.079v.785zm3.389-9.148h-3.865v.6h3.865zm0 1.612h-3.865v.616h3.865zM240.756 483.881a8.533 8.533 0 0 1-1.639 2.436 8.733 8.733 0 0 0-1.191-.8 5.992 5.992 0 0 0 1.443-2.018zm5.449-4.133h-8.125v-1.274h3.292v-.6h-2.381v-3.824h6.4v3.824h-2.507v.6h3.32zm-3.32 3.558v1.947c0 .644-.126.967-.589 1.163a4.181 4.181 0 0 1-1.793.238 5.3 5.3 0 0 0-.6-1.275c.533.028 1.093.028 1.247.015.182 0 .224-.042.224-.183v-1.905h-2.3v-2.984h6.205v2.984zm-2.409-7.774h3.389v-.547h-3.389zm0 1.429h3.389v-.574h-3.389zm.014 5.267h3.291v-.841h-3.291zm10.743-.168a10.914 10.914 0 0 1-4.776 4.608 5.094 5.094 0 0 0-.8-1.022l-.938.475a14.166 14.166 0 0 0-1.387-2l1.233-.6a17.849 17.849 0 0 1 1.19 1.526 8.53 8.53 0 0 0 3.839-3.558zm-.588-7.607a13.392 13.392 0 0 1-3.726 3.292 6.829 6.829 0 0 0-1.19-1.19 9.653 9.653 0 0 0 3.319-2.76zm.2 3.9a14.319 14.319 0 0 1-3.866 3.376 6.8 6.8 0 0 0-1.19-1.192 10.606 10.606 0 0 0 3.515-2.843zM277.324 483.488a3.221 3.221 0 0 0 2.955 1.387c1.681.07 4.987.028 6.92-.126a7.582 7.582 0 0 0-.518 1.625c-1.737.084-4.707.111-6.416.042a4.366 4.366 0 0 1-3.628-1.555 33.831 33.831 0 0 1-1.849 1.681l-.788-1.653a16.932 16.932 0 0 0 1.737-1.288v-3.054h-1.569v-1.527h3.152zm-1-6.275a10.9 10.9 0 0 0-2.1-2.325l1.274-.953a12.184 12.184 0 0 1 2.2 2.227zm5.085 7.3v-2.087a11.055 11.055 0 0 1-2.76 1.638 8.606 8.606 0 0 0-.966-1.247 8.835 8.835 0 0 0 3.208-1.806h-2.087v-3.124h6.975v2.83l1 .616c-.6.406-1.219.784-1.779 1.093a7.62 7.62 0 0 0 2 .616 5.716 5.716 0 0 0-.924 1.274 6.622 6.622 0 0 1-3.076-1.654v1.849zm5.407-7.144h-8.979v-1.191h3.572v-.616h-2.858V474.4h2.858v-.8h1.611v.8h2.969v1.163h-2.969v.616h3.8zm-6.486 2.535h3.838v-.9h-3.838zm2.858 1.107a4.067 4.067 0 0 0 .77.784c.336-.224.715-.518 1.037-.784zM293.312 474.733c-.364 1.2-.812 2.746-1.2 3.825a4.41 4.41 0 0 1 1.008 2.857 2.06 2.06 0 0 1-.616 1.779 1.646 1.646 0 0 1-.771.281 5.491 5.491 0 0 1-.854.027 3.445 3.445 0 0 0-.35-1.387c.224.015.42.015.56.015a.577.577 0 0 0 .378-.112 1.082 1.082 0 0 0 .225-.813 3.734 3.734 0 0 0-.967-2.479c.28-.869.574-2.087.8-3.054h-1.065v11h-1.42v-12.48h2.97l.238-.071zm7.915 10.394c0 .658-.1 1.022-.519 1.261a3.622 3.622 0 0 1-1.681.238 5.256 5.256 0 0 0-.434-1.358c.392.013.785.013.925.013s.182-.042.182-.182v-2.255h-1.065c-.868 0-1.078-.252-1.078-1.177v-.546h-.6a2.182 2.182 0 0 1-1.709 2 2.321 2.321 0 0 0-.491-.728v4.272h-1.47v-6.794h7.942zm-.07-9.567h-7.719v-1.345h7.719zm-7.046 3.726v-3.138h6.4v3.138zm.644 3a1.42 1.42 0 0 0 1.135-1.162h-1.135zm3.124 2.1v1.947h-1.3v-1.947h-1.261v-1.107h3.867v1.107zm-2.185-6.192h3.138v-.966h-3.138zm4.006 3.684v-.756h-1.163v.546c0 .238.028.252.238.252h.645c.168 0 .21-.014.252-.056zM306.135 481.7c.435-.182.869-.364 1.289-.547l.378 1.472c-1.485.742-3.081 1.484-4.37 2.087l-.672-1.681c.5-.182 1.12-.421 1.821-.7v-3.941h-1.639v-1.583h1.639v-3.04h1.554v3.04h1.415v1.583h-1.415zm7.481 3.222c.77 0 .91-.322 1.036-1.751a4.212 4.212 0 0 0 1.457.6c-.224 1.96-.714 2.632-2.354 2.632h-2.983c-1.891 0-2.438-.517-2.438-2.451v-3.6l-.756.322-.616-1.485 1.372-.575v-3.684h1.6v3l1.162-.49v-3.87h1.555v3.195l1.106-.477.3-.2.294-.2 1.162.407-.055.279c0 2.662-.029 4.343-.1 4.917a1.2 1.2 0 0 1-.715 1.163 3.908 3.908 0 0 1-1.457.2 4.585 4.585 0 0 0-.35-1.4 6.37 6.37 0 0 0 .672.028c.168 0 .252-.056.309-.308.028-.224.042-1.246.042-3.236l-1.2.533v4.944h-1.555v-4.272l-1.162.5v4.315c0 .826.126.952.98.952zM319.239 475.8c1.162-.1 3.46-.308 6-.532 1.429-.113 2.941-.2 3.922-.239l.014 1.793a14.329 14.329 0 0 0-2.675.178 4.21 4.21 0 0 0-2.928 3.88c0 2.283 2.129 3.109 4.482 3.221l-.644 1.919c-2.913-.181-5.659-1.751-5.659-4.762a5.5 5.5 0 0 1 2.045-4.273c-1.2.126-4.118.435-5.729.785l-.182-1.905a20.705 20.705 0 0 0 1.354-.065zm9.105 4.272l-1.065.477a10.743 10.743 0 0 0-1.092-1.947l1.036-.435a18.476 18.476 0 0 1 1.121 1.903zm1.624-.686l-1.05.5A12.291 12.291 0 0 0 327.77 478l1.022-.476a20.959 20.959 0 0 1 1.176 1.86zM333.715 484.007v1.232H332.2v-10.758h4.1v9.526zm0-8.041v2.466h1.092v-2.466zm1.092 6.542v-2.619h-1.092v2.619zm7.046-.813a6.183 6.183 0 0 0 3.152 3.684 6.471 6.471 0 0 0-1.051 1.331 7.045 7.045 0 0 1-3.138-3.7 6.463 6.463 0 0 1-4 3.614 5.406 5.406 0 0 0-1.037-1.247c2.367-.882 3.4-2.185 3.824-3.684h-2.97v-1.5h.7v-4.524h2.563V473.7h1.527v1.975h2.788v4.525h.672v1.5zm-2-1.5c.028-.378.042-.756.042-1.12v-1.92H338.8v3.04zm1.569-3.04v1.934c0 .364-.014.742-.028 1.106h1.275v-3.04zM350.208 474.062a27.214 27.214 0 0 1-1.064 2.716v9.876h-1.583v-7a11.189 11.189 0 0 1-.869 1.149 11.548 11.548 0 0 0-.8-1.793 15.38 15.38 0 0 0 2.773-5.407zm9.035 6.918a17.764 17.764 0 0 1-1.933 1.486 5.739 5.739 0 0 0 2.115 2.339 5.627 5.627 0 0 0-1.064 1.3c-1.863-1.26-2.872-3.572-3.46-6.4h-.28a8.686 8.686 0 0 1-.785.574c2.255 1.919 2.227 4.9 1.149 5.827a2.042 2.042 0 0 1-1.485.575c-.28 0-.63-.014-.98-.042a3.627 3.627 0 0 0-.351-1.345 16.317 16.317 0 0 1-1.807.883 5.743 5.743 0 0 0-.882-1.177 13.872 13.872 0 0 0 4.454-2.367c-.07-.168-.154-.322-.238-.49a17.681 17.681 0 0 1-3.222 1.737 5.271 5.271 0 0 0-.756-1.037 12.951 12.951 0 0 0 3.334-1.555 3.564 3.564 0 0 0-.337-.336 14.135 14.135 0 0 1-2.171.994 10.915 10.915 0 0 0-.924-1.078 13.958 13.958 0 0 0 2.885-1.163h-2.129v-2.171a4.8 4.8 0 0 0-1.022-.742 8.949 8.949 0 0 0 2.787-3.194l1.569.28c-.1.183-.21.378-.322.56h2.157l.294-.1.981.7a15.558 15.558 0 0 1-.925 1.345h2.872v3.319h-2.452a13.119 13.119 0 0 0 .449 1.541 15.455 15.455 0 0 0 1.359-1.261zm-7.368-2.394h1.807v-1.065h-1.807zm.687-2.942c-.2.252-.393.5-.6.743h2.171a6.589 6.589 0 0 0 .547-.743zm1.652 8.348a19.418 19.418 0 0 1-1.961 1.261 8.332 8.332 0 0 0 .939.057.8.8 0 0 0 .686-.281 1.516 1.516 0 0 0 .336-1.037zm2.956-6.471h-2v1.065h2zM365.5 482.731a19.583 19.583 0 0 0-1.205-1.526v5.463h-1.639v-4.749a11.317 11.317 0 0 1-1.555 1.261 7.185 7.185 0 0 0-.756-1.583 10.447 10.447 0 0 0 3.67-3.922h-3.155v-1.5h1.793V473.6h1.639v2.577h.574l.28-.07.925.6a14.042 14.042 0 0 1-1.457 2.857c.616.533 1.625 1.5 1.891 1.779zm6.625 2.41c.238 0 .295-.182.322-1.555a4.125 4.125 0 0 0 1.331.589c-.14 1.89-.518 2.367-1.471 2.367h-.98c-1.219 0-1.485-.448-1.485-1.808v-2.548h-.7c-.224 2-.841 3.557-3.152 4.482a4.177 4.177 0 0 0-.939-1.289 3.344 3.344 0 0 0 2.508-3.193h-.911v-7.915h6.178v7.915h-1.471v2.521c0 .392.028.434.238.434zm-3.964-8.628h3.068v-.925h-3.068zm0 2.184h3.068v-.938h-3.068zm0 2.172h3.068v-.938h-3.068zM379.833 485.323a6.6 6.6 0 0 0 .938-2.676l1.317.407a7.147 7.147 0 0 1-1.065 3.082l-1.19-.673v1.219h-1.458v-2.143c-1.176.153-2.338.266-3.319.378l-.182-1.555.91-.07v-7.536h-.6v-1.5h5.253v1.5h-.6zm-2.634-9.567v1.471h1.176v-1.471zm0 4.314h1.176v-1.484H377.2zm1.176 2.984v-1.625H377.2v1.737zm8.559 3.082a7.611 7.611 0 0 0-.476-1.415c-.154 1.485-.546 1.863-1.457 1.863h-1.19c-1.289 0-1.555-.435-1.555-1.737v-2.255h1.344a9.509 9.509 0 0 0-.939-.658l.728-.6h-2.8v-4.062h2.773v-.972h-2.857v-1.4h2.857v-1.176h1.6v1.176h2.914v1.4h-2.914v.966h2.83v4.062h-3.7a6.981 6.981 0 0 1 1.653 1.331l-1.051.966a6.98 6.98 0 0 0-.966-.939v2.144c0 .336.042.392.322.392h.77c.252 0 .322-.14.35-1.191a3.863 3.863 0 0 0 1.219.532 9.313 9.313 0 0 0-.841-1.47l1.275-.6a9.4 9.4 0 0 1 1.5 3zm-4.258-7.62h-.757v1.568h.757zm1.863 0h-.8v1.568h.8zm1.05 1.568h.813v-1.568h-.813zM395.331 474.523c-.084.365-.168.8-.238 1.149-.084.42-.2.925-.294 1.429.462-.029.882-.056 1.162-.056 1.471 0 2.508.658 2.508 2.647a13.569 13.569 0 0 1-.785 5.057 2.215 2.215 0 0 1-2.283 1.274 7.859 7.859 0 0 1-1.653-.2l-.308-1.835a8.1 8.1 0 0 0 1.709.294 1.022 1.022 0 0 0 1.037-.6 10.623 10.623 0 0 0 .56-3.8c0-1.108-.476-1.261-1.345-1.261-.224 0-.56.027-.952.056a30.077 30.077 0 0 1-2.83 7.41l-1.807-.729a20.585 20.585 0 0 0 2.788-6.485c-.491.056-.925.112-1.191.154-.392.042-1.107.14-1.541.21l-.154-1.877a12.891 12.891 0 0 0 1.471 0 42.035 42.035 0 0 0 1.793-.112 15.369 15.369 0 0 0 .294-2.942zm4.973 1.653a27.579 27.579 0 0 1 2.255 4.833l-1.765.826a15.727 15.727 0 0 0-2.339-5.225l1.288-.546a15.5 15.5 0 0 0-.952-1.653l1.106-.462c.351.518.841 1.4 1.121 1.919zm1.274-.462a13.98 13.98 0 0 0-1.134-1.933l1.106-.463a16.457 16.457 0 0 1 1.135 1.906zM416.712 476.2H415.1v8.349c0 1.009-.238 1.5-.9 1.779a9.461 9.461 0 0 1-3.165.308 7.589 7.589 0 0 0-.687-1.765c1 .056 2.213.042 2.55.042.322 0 .448-.1.448-.393v-8.32h-9.259v-1.681h12.62zm-9.707 6.99v1.065h-1.625v-6.486h5.94v5.421zm0-3.839v2.249h2.662v-2.242zM423.667 474.51a13.7 13.7 0 0 1 1.694 3.249l-1.527.616a5.158 5.158 0 0 0-.251-.742c-1.85.126-3.754.238-5.183.322l-.14-1.583c.336 0 .7-.014 1.092-.027a22.01 22.01 0 0 0 1.023-2.817l1.737.351c-.322.812-.7 1.653-1.051 2.395l1.863-.084a22.39 22.39 0 0 0-.658-1.148zm.7 10.463c0 .728-.14 1.134-.6 1.373a4.154 4.154 0 0 1-1.961.28 6.2 6.2 0 0 0-.533-1.471 11.648 11.648 0 0 0 1.233 0c.168 0 .224-.042.224-.21v-.938h-2.1v2.647h-1.541v-8.041h5.281zm-3.74-4.987v.729h2.1v-.729zm2.1 2.787v-.826h-2.1v.826zm4.776-2.9c-1.638 0-2.03-.49-2.03-2.031v-4.216h1.652v2a21.846 21.846 0 0 0 2.522-1.163l1.064 1.205a25.669 25.669 0 0 1-3.586 1.316v.827c0 .5.084.56.617.56h1.527c.448 0 .546-.21.6-1.429a4.563 4.563 0 0 0 1.471.616c-.182 1.793-.616 2.312-1.905 2.312zm1.85 5.239c.476 0 .574-.266.644-1.681a5.162 5.162 0 0 0 1.457.617c-.183 1.974-.6 2.521-1.947 2.521h-1.989c-1.639 0-2.045-.476-2.045-2.017v-4.4h1.638v1.891a15.883 15.883 0 0 0 2.634-1.316l1.107 1.218a21.259 21.259 0 0 1-3.741 1.485v1.121c0 .49.1.56.645.56zM436.364 474.762a11.428 11.428 0 0 0-.337 1.232 34.323 34.323 0 0 0-.672 5.085 6.705 6.705 0 0 0 .056.9c.2-.491.42-.954.616-1.4l.869.673a33.474 33.474 0 0 0-1 3.4 4.1 4.1 0 0 0-.084.645c.014.154.014.379.028.574l-1.6.112a17.658 17.658 0 0 1-.547-4.538 38.623 38.623 0 0 1 .574-5.491 10.206 10.206 0 0 0 .141-1.358zm3.249 6.849a4.575 4.575 0 0 0-.168 1.162c0 .617.533.981 1.933.981a15.935 15.935 0 0 0 3.474-.364l.042 1.878a19.3 19.3 0 0 1-3.586.279c-2.395 0-3.53-.868-3.53-2.283a8.493 8.493 0 0 1 .239-1.807zm4.847-5.939v1.793a38.41 38.41 0 0 1-5.953 0l-.014-1.793a28.317 28.317 0 0 0 5.967 0zM272 430l-7-4v8l7-4zM268 480l-7-4v8l7-4zM70 310h86a10 10 0 0 1 10 10v70H60v-70a10 10 0 0 1 10-10z" fill="#fff"/><path d="M62.5 390h-3v-4h3zm104-1.51h-3v-4h3zM62.5 380h-3v-4h3zm104-1.51h-3v-4h3zM62.5 370h-3v-4h3zm104-1.51h-3v-4h3zM62.5 360h-3v-4h3zm104-1.51h-3v-4h3zM62.5 350h-3v-4h3zm104-1.51h-3v-4h3zM62.5 340h-3v-4h3zm104-1.51h-3v-4h3zM62.5 330h-3v-4h3zm104-1.51h-3v-4h3zM62.5 320h-3a11.594 11.594 0 0 1 .888-4.473l2.77 1.151A8.608 8.608 0 0 0 62.5 320zm100.906-1.286a8.527 8.527 0 0 0-1.144-3.181l2.566-1.553a11.544 11.544 0 0 1 1.546 4.294zm-97.041-5.9l-1.632-2.514a11.1 11.1 0 0 1 4.277-1.654l.484 2.96a8.13 8.13 0 0 0-3.129 1.211zm92.148-.61a8.086 8.086 0 0 0-3.276-.707l.016-3a11.072 11.072 0 0 1 4.486.969zm-9.268-.707h-4v-3h4zm-10 0h-4v-3h4zm-10 0h-4v-3h4zm-10 0h-4v-3h4zm-10 0h-4v-3h4zm-10 0h-4v-3h4zm-10 0h-4v-3h4zm-10 0h-4v-3h4z" fill="#222"/><path d="M227 310h86a10 10 0 0 1 10 10v70H217v-70a10 10 0 0 1 10-10zM384 310h86a10 10 0 0 1 10 10v70H374v-70a10 10 0 0 1 10-10z" fill="#fff"/><path d="M219.5 390h-3v-4h3zm104-1.51h-3v-4h3zm-104-8.49h-3v-4h3zm104-1.51h-3v-4h3zm-104-8.49h-3v-4h3zm104-1.51h-3v-4h3zm-104-8.49h-3v-4h3zm104-1.51h-3v-4h3zm-104-8.49h-3v-4h3zm104-1.51h-3v-4h3zm-104-8.49h-3v-4h3zm104-1.51h-3v-4h3zm-104-8.49h-3v-4h3zm104-1.51h-3v-4h3zm-104-8.49h-3a11.594 11.594 0 0 1 .888-4.473l2.77 1.151A8.608 8.608 0 0 0 219.5 320zm100.906-1.286a8.527 8.527 0 0 0-1.144-3.181l2.566-1.553a11.544 11.544 0 0 1 1.546 4.294zm-97.041-5.9l-1.632-2.517a11.1 11.1 0 0 1 4.277-1.654l.484 2.96a8.13 8.13 0 0 0-3.129 1.214zm92.148-.61a8.086 8.086 0 0 0-3.276-.707l.016-3a11.072 11.072 0 0 1 4.486.969zm-9.268-.707h-4v-3h4zm-10 0h-4v-3h4zm-10 0h-4v-3h4zm-10 0h-4v-3h4zm-10 0h-4v-3h4zm-10 0h-4v-3h4zm-10 0h-4v-3h4zm-10 0h-4v-3h4zM376.5 390h-3v-4h3zm104-1.51h-3v-4h3zm-104-8.49h-3v-4h3zm104-1.51h-3v-4h3zm-104-8.49h-3v-4h3zm104-1.51h-3v-4h3zm-104-8.49h-3v-4h3zm104-1.51h-3v-4h3zm-104-8.49h-3v-4h3zm104-1.51h-3v-4h3zm-104-8.49h-3v-4h3zm104-1.51h-3v-4h3zm-104-8.49h-3v-4h3zm104-1.51h-3v-4h3zm-104-8.49h-3a11.594 11.594 0 0 1 .888-4.473l2.77 1.151A8.608 8.608 0 0 0 376.5 320zm100.906-1.286a8.527 8.527 0 0 0-1.144-3.181l2.566-1.553a11.544 11.544 0 0 1 1.546 4.294zm-97.041-5.9l-1.632-2.517a11.1 11.1 0 0 1 4.277-1.654l.484 2.96a8.13 8.13 0 0 0-3.129 1.214zm92.148-.61a8.086 8.086 0 0 0-3.276-.707l.016-3a11.072 11.072 0 0 1 4.486.969zm-9.268-.707h-4v-3h4zm-10 0h-4v-3h4zm-10 0h-4v-3h4zm-10 0h-4v-3h4zm-10 0h-4v-3h4zm-10 0h-4v-3h4zm-10 0h-4v-3h4zm-10 0h-4v-3h4zM427 342a6 6 0 1 1-6 6 6.007 6.007 0 0 1 6-6m0-3a9 9 0 1 0 9 9 9 9 0 0 0-9-9zM445 390h-3v-20.638a6.439 6.439 0 0 0-6.5-6.362h-17a6.439 6.439 0 0 0-6.5 6.362V390h-3v-20.638a9.443 9.443 0 0 1 9.5-9.362h17a9.443 9.443 0 0 1 9.5 9.362z" fill="#222"/><circle cx="427" cy="326" r="4.5" fill="#222"/><circle cx="113" cy="326" r="4.5" fill="#222"/><path d="M113 342a6 6 0 1 1-6 6 6.007 6.007 0 0 1 6-6m0-3a9 9 0 1 0 9 9 9 9 0 0 0-9-9z" fill="#222"/><path d="M128 390h-3v-20.761l9.981-27.825a2 2 0 0 0-1.614-2.676 2.072 2.072 0 0 0-2.174 1.388l-7.386 20.294a3.982 3.982 0 0 1-3.823 2.58h-13.955a3.986 3.986 0 0 1-3.836-2.58l-7.386-20.294a2.073 2.073 0 0 0-2.174-1.388 2 2 0 0 0-1.616 2.67L101 369.239V390h-3v-20.239l-9.8-27.333a5 5 0 0 1 3.991-6.657 5.053 5.053 0 0 1 5.44 3.33l7.386 20.294a1.034 1.034 0 0 0 1.006.605h13.937a1.081 1.081 0 0 0 1.033-.605l7.386-20.294a5 5 0 0 1 9.028-.933 4.988 4.988 0 0 1 .4 4.266L128 369.761zM299.938 372.028l-14.481 3.881-3.757-14.325a6.842 6.842 0 0 0-3.251-4.612l-10.357-5.98a6.881 6.881 0 0 0-5.54-.535l-19.179 5.236a5.513 5.513 0 0 0-3.321 2.965l-9.618 16.659a5 5 0 1 0 8.66 5l8.964-15.526 4.685-1.255L237.468 390h3.464l16.224-28.1a1.5 1.5 0 0 0-1.687-2.2l-8.783 2.354a1.5 1.5 0 0 0-.911.7l-9.275 16.063a2 2 0 1 1-3.464-2l9.618-16.659c.61-1.056.96-1.423 1.506-1.568l19.189-5.239.1-.03a3.783 3.783 0 0 1 3.146.27l10.358 5.979a3.86 3.86 0 0 1 1.828 2.688l4.156 15.871a1.5 1.5 0 0 0 1.839 1.069l15.938-4.27a2 2 0 0 1 1.036 3.863l-19.319 5.177a2 2 0 0 1-2.45-1.415l-2.757-10.291a1.5 1.5 0 0 0-2.748-.362l-10.45 18.1h3.464l7.773-13.465 1.821 6.793a5 5 0 0 0 6.124 3.537l19.318-5.177a5 5 0 0 0-2.588-9.66zM288.024 329.9a4.5 4.5 0 1 0-1.647-6.147 4.5 4.5 0 0 0 1.647 6.147zM279.282 334.588a9 9 0 1 0 4.492 1.207 9 9 0 0 0-4.492-1.207zm5.188 12a6 6 0 1 1-2.2-8.2 6.024 6.024 0 0 1 2.2 8.201zM59 239h340v3H59z" fill="#222"/><path d="M297.5 158a3 3 0 0 0-3 3v1.261l-13-2.5v15.468l13-2.5V174a3 3 0 0 0 6 0v-13a3 3 0 0 0-3-3zM429.563 151.079l-2.8 11.407a6.5 6.5 0 0 0 2.8-11.407z" fill="#fff"/><path d="M450 207.5h-10l-5-25h-2.08l-7.463-26.382h-.034a21.258 21.258 0 0 0 2.078-2.124c.148-.177.285-.362.428-.544a20.806 20.806 0 0 0 4.491-12.95c0-.705-.038-1.4-.106-2.088-.023-.233-.069-.459-.1-.69-.06-.449-.117-.9-.2-1.338-.055-.273-.131-.537-.2-.807-.093-.386-.182-.773-.3-1.151-.086-.285-.191-.561-.289-.84-.121-.349-.24-.7-.379-1.038-.118-.287-.252-.564-.382-.845-.147-.317-.292-.635-.454-.943-.149-.284-.312-.559-.473-.835s-.337-.575-.519-.854-.372-.545-.565-.814-.375-.516-.573-.766a21.26 21.26 0 0 0-.656-.784c-.2-.23-.4-.456-.616-.677-.243-.256-.493-.5-.75-.748q-.317-.3-.645-.586a19.322 19.322 0 0 0-1.51-1.2 20.253 20.253 0 0 0-.938-.647c-.221-.142-.447-.275-.673-.409-.341-.2-.682-.4-1.035-.582-.219-.114-.443-.216-.666-.321a20.992 20.992 0 0 0-1.135-.509c-.211-.084-.428-.156-.642-.234-.411-.151-.821-.3-1.244-.424-.192-.057-.39-.1-.585-.151-.454-.12-.909-.239-1.375-.328-.149-.029-.3-.044-.453-.07-.52-.088-1.04-.172-1.572-.221v-.008l-72.258-6.992v.01c-.2-.024-.394-.042-.593-.058a12.795 12.795 0 0 0-1.112-.056c-.447 0-.887.026-1.322.067-.142.013-.281.036-.422.053-.293.036-.583.078-.869.133-.162.03-.321.065-.481.1-.262.06-.521.126-.778.2-.1.028-.2.046-.292.075-.063.02-.123.048-.187.069-.258.084-.51.18-.761.279-.144.056-.291.107-.432.169q-.532.23-1.042.5c-.161.086-.313.183-.47.275-.206.121-.412.24-.611.371-.18.118-.352.245-.526.371-.152.111-.3.221-.451.337-.184.145-.363.294-.539.448q-.182.159-.357.324c-.185.173-.368.347-.544.53-.08.083-.154.17-.232.255a13.957 13.957 0 0 0-1.757 2.378c-.023.039-.048.076-.07.115-.157.274-.3.555-.44.841-.036.073-.072.146-.106.22q-.2.426-.368.867c-.027.07-.051.14-.077.211-.079.216-.168.426-.237.647-.03.1-.049.2-.077.3-.044.137-.079.277-.119.416l-.119.413-.12.415-.119.415-.12.415-.119.414-.119.415-.12.415-.119.415-.119.415-.119.414-.12.416-.119.414c-.039.139-.08.276-.12.415l-.119.414-.119.415-.12.415-.119.415-.119.415c-.039.139-.08.276-.12.414l-.119.415-.119.415c-.039.139-.08.276-.12.414l-.119.416c-.039.139-.08.276-.12.414l-.119.415-.119.415c-.039.139-.08.276-.12.415l-.119.414-.119.415-.119.414-.12.415-.119.416c-.039.139-.08.276-.12.414l-.119.415-.119.415c-.039.139-.08.276-.12.415l-.119.414-.119.415c-.039.139-.08.276-.12.415l-.119.414-.12.416-.119.414-.119.415-.119.415c-.039.139-.08.276-.12.414l-.119.416-.119.414c-.039.139-.081.276-.12.415l-.119.414-.12.416-.119.414-.119.415c-.039.139-.08.276-.12.414l-.119.415-.119.416c-.039.139-.08.275-.12.414l-.119.415-.119.415c-.039.139-.08.276-.12.415l-.119.414-.119.415c-.039.139-.081.276-.12.415l-.119.414-.12.415-.119.415-.119.415-.119.414c-.039.138-.081.276-.12.415l-.119.415-.12.415-.119.415-.119.414-.12.415-.119.414-.12.416-.119.414-.119.415-.119.415c-.039.139-.081.276-.12.415l-.119.415-.119.414c-.039.138-.081.277-.12.416l-.119.414-.119.414c-.039.138-.081.277-.12.416l-.119.414-.12.415-.119.415-.119.415c-.039.139-.081.275-.119.414s-.081.277-.12.416l-.119.414c-.039.139-.081.276-.12.414l-.119.416-.119.414c-.039.139-.081.276-.12.415l-.119.414c-.039.138-.081.277-.12.416l-.119.415a11 11 0 0 0 20.646 7.54c.059-.131.12-.261.175-.394s.12-.261.175-.395.12-.261.175-.4.12-.26.175-.394.12-.26.175-.394.12-.261.175-.394.121-.261.175-.4.121-.26.175-.394.121-.261.175-.394.121-.261.176-.4.12-.261.175-.4.12-.26.175-.393.12-.261.175-.395.12-.261.175-.394.12-.261.175-.4.12-.26.175-.394.12-.261.175-.394.121-.261.175-.4.121-.261.176-.4.12-.26.174-.393.121-.261.175-.395.121-.261.176-.394.12-.261.175-.4.12-.26.175-.394.12-.261.175-.394.12-.261.175-.4.12-.261.175-.4.12-.26.175-.393.121-.261.175-.395.12-.261.175-.394.121-.261.176-.4.12-.261.174-.394.121-.261.175-.394.121-.262.176-.4.12-.261.175-.394.12-.261.175-.395.12-.26.175-.394.12-.261.175-.394.12-.261.175-.4.12-.261.175-.394.12-.261.175-.394.121-.262.175-.4.121-.261.176-.4.12-.26.174-.393.121-.261.176-.395.12-.261.175-.4.12-.26.175-.394.12-.261.175-.394.12-.261.175-.394.12-.262.175-.4.12-.261.175-.4.12-.26.175-.394.12-.26.175-.394.121-.261.175-.394.121-.262.176-.4.12-.261.174-.394.121-.261.176-.4.12-.261.175-.394.12-.261.175-.394.12-.261.175-.395.12-.26.175-.394.12-.261.175-.4.12-.26.175-.394.12-.261.175-.394.121-.261.175-.394.121-.262.176-.4.12-.261.174-.394.121-.261.176-.395.12-.261.175-.394.12-.261.175-.394.12-.261.175-.4l.11-.249 43.674 13.034a6.494 6.494 0 0 0 5.173 6.168l-1.226-5 2.126.629-7.053 24.385H388l-5 25h-10a16.5 16.5 0 0 0 0 33h77a16.5 16.5 0 0 0 0-33z" fill="#fff"/><path d="M395.772 163.956a8 8 0 0 1-3.444-14.039l1.9 2.324a5 5 0 0 0 2.149 8.775zM280 177.049v-19.1l16 3.07v12.958zm3-15.467v11.836l10-1.918v-8z" fill="#222"/><path d="M297.5 178.5a4.505 4.505 0 0 1-4.5-4.5v-13a4.5 4.5 0 0 1 9 0v13a4.505 4.505 0 0 1-4.5 4.5zm0-19a1.5 1.5 0 0 0-1.5 1.5v13a1.5 1.5 0 0 0 3 0v-13a1.5 1.5 0 0 0-1.5-1.5zM339.419 142a15.5 15.5 0 1 1 15.5-15.5 15.518 15.518 0 0 1-15.5 15.5zm0-28a12.5 12.5 0 1 0 12.5 12.5 12.514 12.514 0 0 0-12.5-12.5z" fill="#222"/><path d="M339.419 132a5.5 5.5 0 1 1 5.5-5.5 5.506 5.506 0 0 1-5.5 5.5zm0-8a2.5 2.5 0 1 0 2.5 2.5 2.5 2.5 0 0 0-2.5-2.5zM324.5 173a5.5 5.5 0 1 1 5.5-5.5 5.506 5.506 0 0 1-5.5 5.5zm0-8a2.5 2.5 0 1 0 2.5 2.5 2.5 2.5 0 0 0-2.5-2.5zM411.419 163a22.5 22.5 0 1 1 22.5-22.5 22.526 22.526 0 0 1-22.5 22.5zm0-42a19.5 19.5 0 1 0 19.5 19.5 19.523 19.523 0 0 0-19.5-19.5z" fill="#222"/><path d="M411.419 146a5.5 5.5 0 1 1 5.5-5.5 5.506 5.506 0 0 1-5.5 5.5zm0-8a2.5 2.5 0 1 0 2.5 2.5 2.5 2.5 0 0 0-2.5-2.5zM434.903 184h-46.967l8.003-28.291 2.887.817L391.903 181h39.033l-6.923-24.474 2.887-.817L434.903 184z" fill="#222"/><path d="M427.067 163.956l-.6-2.94a5 5 0 0 0 2.149-8.775l1.9-2.324a8 8 0 0 1-3.444 14.039zM446.055 209h-69.11l8.96-28H437.1zm-65-3h60.89l-7.04-22H388.1z" fill="#222"/><path d="M450 242h-77a18 18 0 0 1 0-36h77a18 18 0 0 1 0 36zm-77-33a15 15 0 0 0 0 30h77a15 15 0 0 0 0-30z" fill="#222"/><path d="M373 236.546A12.553 12.553 0 1 1 386 224a12.794 12.794 0 0 1-13 12.546zm0-22.091A9.556 9.556 0 1 0 383 224a9.791 9.791 0 0 0-10-9.545zM450 236.546A12.553 12.553 0 1 1 463 224a12.794 12.794 0 0 1-13 12.546zm0-22.091A9.556 9.556 0 1 0 460 224a9.791 9.791 0 0 0-10-9.545zM346.798 144.848l.85-2.877 43.66 12.904-.851 2.877z" fill="#222"/><path d="M411.419 163a22.575 22.575 0 0 1-5.442-.689l-.848-.222a21.964 21.964 0 0 1-.677-.2l-7.9-2.336.85-2.877 7.943 2.348c.226.073.416.126.606.18l.766.2a19.487 19.487 0 1 0 6.537-38.31l-.756-.081-70.149-6.783-.007.034-1.394-.16a12.493 12.493 0 0 0-5.1 24.371l-.858 2.875a15.5 15.5 0 0 1 4.429-30.35c.159 0 .32 0 .485.009v-.019l1.364.121 73 7.059.012.019A22.5 22.5 0 0 1 411.419 163zM301 159h14v3h-14zM301 173h15v3h-15z" fill="#222"/><path d="M324.5 180a12.494 12.494 0 0 1-11.89-16.35c.168-.6 11.9-41.356 11.934-41.474a15.494 15.494 0 0 1 30.375 4.324 15.38 15.38 0 0 1-1.359 6.329c-.619 1.4-17.387 39.169-17.511 39.444A12.434 12.434 0 0 1 324.5 180zm14.919-66a12.546 12.546 0 0 0-12 9.048c-.183.616-11.846 41.163-11.935 41.474A9.5 9.5 0 0 0 324.5 177a9.466 9.466 0 0 0 8.794-5.914c.14-.315 17.289-38.935 17.52-39.466l.009-.018a12.486 12.486 0 0 0-11.4-17.6z" fill="#222"/><path d="M405.868 110.481L409 105h-8l3.132 5.481a1 1 0 0 0 1.736 0z" fill="#23d152"/><rect x="340" y="76" width="130" height="30" rx="15" fill="#23d152"/><path d="M373.354 86.419v1.212h-10.483v-1.212h4.438v-1.007h1.451v1.007zm-.384 8.7c0 .659-.132 1.044-.6 1.26a4.784 4.784 0 0 1-1.943.228 4.034 4.034 0 0 0-.276-.96h-3.094v.54h-1.247v-3.232h4.581v2.327c.408.012.78.012.912 0 .179-.011.228-.048.228-.192v-2.674h-6.789v4.209h-1.391v-5.4h9.619zm-1.583-7.028v2.639h-6.549v-2.644zm-1.451.947h-3.743v.733h3.743zm-.8 4.87h-2.075v.78h2.075zM386.013 94.887v1.354h-7.46v-1.354h3.2v-2.4h-2.314v-1.331h2.314v-1.967h-1.318a8.256 8.256 0 0 1-.672 1.656 12.619 12.619 0 0 0-1.272-.648c.12-.216.24-.444.36-.7l-.684.312a8.322 8.322 0 0 0-.455-1.379v8.191h-1.427V88.05a15.283 15.283 0 0 1-.54 3.179l-1.056-.384a14.255 14.255 0 0 0 .588-3.118l1.008.143v-2.446h1.427v2.266l.7-.288a13.942 13.942 0 0 1 .659 1.512 14.514 14.514 0 0 0 .636-2.927l1.391.193c-.084.563-.18 1.127-.3 1.667h.959V85.5h1.428v2.352h2.446v1.342h-2.446v1.967h2.194v1.331h-2.194v2.4zM391.861 86.215A11.725 11.725 0 0 1 393.312 89l-1.307.527a4.382 4.382 0 0 0-.216-.635c-1.583.108-3.214.2-4.437.276l-.12-1.355c.288 0 .6-.013.935-.025a18.826 18.826 0 0 0 .875-2.41l1.488.3c-.276.695-.6 1.415-.9 2.051l1.6-.073a19.478 19.478 0 0 0-.564-.983zm.6 8.959c0 .624-.12.972-.516 1.176a3.563 3.563 0 0 1-1.679.24 5.28 5.28 0 0 0-.456-1.26 9.97 9.97 0 0 0 1.056 0c.144 0 .192-.036.192-.18v-.8h-1.8v2.266h-1.32v-6.887h4.522zm-3.2-4.27v.624h1.8V90.9zm1.8 2.387v-.707h-1.8v.707zm4.089-2.482c-1.4 0-1.739-.42-1.739-1.74V85.46h1.416v1.715a18.911 18.911 0 0 0 2.158-.995l.912 1.031a22.036 22.036 0 0 1-3.07 1.127v.708c0 .432.072.479.527.479h1.308c.383 0 .467-.179.515-1.223a3.945 3.945 0 0 0 1.26.528c-.156 1.535-.528 1.979-1.632 1.979zm1.583 4.485c.408 0 .492-.228.552-1.439a4.449 4.449 0 0 0 1.247.528c-.155 1.691-.515 2.158-1.667 2.158h-1.7c-1.4 0-1.751-.407-1.751-1.727v-3.765h1.4v1.619a13.565 13.565 0 0 0 2.254-1.128l.948 1.044a18.124 18.124 0 0 1-3.2 1.271v.959c0 .42.084.48.551.48zM404.449 93.3h-2.879l-.623 2.278h-1.8l2.842-8.875h2.087l2.855 8.875h-1.859zm-.384-1.38l-.264-.972c-.276-.923-.515-1.942-.78-2.9h-.047a63.1 63.1 0 0 1-.756 2.9l-.264.972zM408.339 86.707h1.775v8.875h-1.775zM422.026 88.53a5.138 5.138 0 0 0-.084.636c-.048 1.3-.192 4.641-.708 5.864a1.476 1.476 0 0 1-1.547.924c-.684 0-1.4-.048-1.991-.1l-.18-1.606a10.035 10.035 0 0 0 1.679.168.638.638 0 0 0 .684-.42 16.408 16.408 0 0 0 .5-4.449h-2.7a8.709 8.709 0 0 1-3.73 6.572l-1.391-1.128a6.863 6.863 0 0 0 1.571-1.175 7.05 7.05 0 0 0 1.979-4.269h-1.578c-.408 0-1.068 0-1.583.048v-1.569c.5.048 1.127.084 1.583.084h1.715c.012-.336.024-.683.024-1.044a8.88 8.88 0 0 0-.084-1.1h1.763c-.036.276-.06.78-.072 1.067-.012.372-.024.733-.048 1.08h2.255a5.857 5.857 0 0 0 .911-.084zM434.062 86.779a9.408 9.408 0 0 0-.492 1.068 17.146 17.146 0 0 1-1.619 3.261 31.3 31.3 0 0 1 2.854 2.639l-1.235 1.379a24.014 24.014 0 0 0-2.651-2.639 14.967 14.967 0 0 1-4.461 3.706l-1.379-1.235a13.066 13.066 0 0 0 4.557-3.538 31.232 31.232 0 0 0-3.214-2.267l1.031-1.235c.96.6 2.2 1.439 3.167 2.159a13.116 13.116 0 0 0 1.319-2.843 8.721 8.721 0 0 0 .288-1.1zM447.129 89.861a4.7 4.7 0 0 0-.227.5 8.645 8.645 0 0 1-1.775 3.323 8.982 8.982 0 0 1-4.282 2.589l-1.2-1.354a8.084 8.084 0 0 0 4.162-2.1 5.208 5.208 0 0 0 1.235-2.074h-5.792c-.288 0-.888.012-1.391.06V89.25c.5.048 1.019.071 1.391.071h5.937a2.525 2.525 0 0 0 .875-.12zm-8.167-3.478a10.109 10.109 0 0 0 1.247.06h4.618a11.285 11.285 0 0 0 1.3-.06v1.548a20.701 20.701 0 0 0-1.319-.036h-4.594c-.383 0-.9.011-1.247.036z" fill="#fff"/><path d="M424.8 257.528a6.2 6.2 0 0 0 .081 1.18h-1.422a10.1 10.1 0 0 0 .063-1.18v-2.953a17.532 17.532 0 0 1-3.1 1.225l-.648-1.1a13.822 13.822 0 0 0 4.1-1.629 9.507 9.507 0 0 0 2.35-2.035l.963.873a14.627 14.627 0 0 1-2.386 1.937zM436.622 254.018a3.183 3.183 0 0 0-.171.378 6.468 6.468 0 0 1-1.332 2.493 6.749 6.749 0 0 1-3.214 1.945l-.9-1.018a6.066 6.066 0 0 0 3.123-1.575 3.9 3.9 0 0 0 .928-1.557h-4.348c-.216 0-.666.008-1.045.045v-1.171c.379.036.766.054 1.045.054h4.456a1.9 1.9 0 0 0 .657-.09zm-6.13-2.612a7.587 7.587 0 0 0 .936.045h3.466a8.485 8.485 0 0 0 .972-.045v1.161a17.038 17.038 0 0 0-.99-.026h-3.448c-.288 0-.676.009-.936.026zM445.082 252.208a4.253 4.253 0 0 0-.315.558 13.2 13.2 0 0 1-1.413 2.475 25.4 25.4 0 0 1 2.511 2.575l-1.026.892a20.389 20.389 0 0 0-2.269-2.548 11.859 11.859 0 0 1-3.385 2.529l-.927-.971a10.206 10.206 0 0 0 3.691-2.584 7.011 7.011 0 0 0 1.342-2.206h-3.053c-.378 0-.873.053-1.062.063v-1.278a10.06 10.06 0 0 0 1.062.062h3.169a3.217 3.217 0 0 0 .937-.117zM454.154 256.241a26.015 26.015 0 0 0-3.25-1.342v2.548c0 .261.045.892.081 1.251h-1.4a9.6 9.6 0 0 0 .089-1.251v-5.168a6.293 6.293 0 0 0-.089-1.089h1.4a9.806 9.806 0 0 0-.081 1.089v1.321a29.263 29.263 0 0 1 3.763 1.4zM458.688 251.389a7.413 7.413 0 0 0-.215.792 23.407 23.407 0 0 0-.424 3.448 4.294 4.294 0 0 0 .036.576c.117-.315.262-.612.4-.909l.55.44a20.826 20.826 0 0 0-.639 2.125 1.664 1.664 0 0 0-.045.414c0 .09 0 .244.008.37l-1.008.072a10.759 10.759 0 0 1-.351-2.845 26.449 26.449 0 0 1 .369-3.719 6.671 6.671 0 0 0 .081-.873zm5.474 6.724a9.076 9.076 0 0 0-1.08-.89c-.054.845-.54 1.458-1.747 1.458-1.224 0-2-.523-2-1.458 0-.911.765-1.532 1.98-1.532a3.99 3.99 0 0 1 .585.037c-.027-.549-.053-1.2-.063-1.828-.215.009-.432.009-.639.009-.522 0-1.026-.017-1.557-.054v-1.062a14.779 14.779 0 0 0 1.557.081c.207 0 .424 0 .631-.009-.01-.441-.01-.8-.019-.99a4.847 4.847 0 0 0-.054-.586h1.279a5.748 5.748 0 0 0-.054.576c-.009.2-.027.531-.027.928.486-.054.954-.117 1.377-.207v1.107c-.432.063-.9.118-1.386.154.018.863.063 1.575.1 2.177a5.677 5.677 0 0 1 1.719 1.153zm-2.215-1.449a2.777 2.777 0 0 0-.719-.1c-.5 0-.847.207-.847.54 0 .36.36.522.828.522.549 0 .738-.288.738-.81zM424.8 269.528a6.2 6.2 0 0 0 .081 1.18h-1.422a10.1 10.1 0 0 0 .063-1.18v-2.953a17.532 17.532 0 0 1-3.1 1.225l-.648-1.1a13.822 13.822 0 0 0 4.1-1.629 9.507 9.507 0 0 0 2.35-2.035l.963.873a14.627 14.627 0 0 1-2.386 1.937zM436.091 263.7a7.131 7.131 0 0 0-.369.8 12.835 12.835 0 0 1-1.215 2.448 23.306 23.306 0 0 1 2.142 1.982l-.927 1.035a17.806 17.806 0 0 0-1.99-1.981 11.26 11.26 0 0 1-3.349 2.782l-1.035-.927a9.838 9.838 0 0 0 3.421-2.656 23.249 23.249 0 0 0-2.413-1.7l.775-.927c.72.45 1.647 1.08 2.376 1.621a9.892 9.892 0 0 0 .991-2.134 6.675 6.675 0 0 0 .216-.828zM438.582 266.144c.324.026.981.053 1.45.053h4.834c.414 0 .819-.036 1.053-.053v1.413c-.216-.009-.675-.045-1.053-.045h-4.834c-.513 0-1.117.017-1.45.045zM450.175 266.549l-.657 1.008a24.9 24.9 0 0 0-2.053-1.287l.648-.991a23.59 23.59 0 0 1 2.062 1.27zm.72 2.052a9.109 9.109 0 0 0 3.5-3.376l.693 1.224a10.852 10.852 0 0 1-3.574 3.241 11.364 11.364 0 0 1-3.007 1.108l-.675-1.18a9.632 9.632 0 0 0 3.068-1.018zm.657-4.087l-.666.99c-.5-.351-1.441-.954-2.034-1.287l.648-.99c.594.324 1.584.962 2.052 1.287zm2.683.279l-.783.333a8.262 8.262 0 0 0-.792-1.413l.747-.316a13.561 13.561 0 0 1 .828 1.396zm1.26-.486l-.765.341a8.694 8.694 0 0 0-.846-1.368l.765-.314a11.406 11.406 0 0 1 .851 1.341zM457.644 264.108c.748-.062 2.224-.2 3.854-.341.918-.073 1.89-.126 2.52-.154l.009 1.153a9.12 9.12 0 0 0-1.719.117 2.707 2.707 0 0 0-1.882 2.494c0 1.467 1.368 2 2.881 2.07l-.414 1.234c-1.873-.118-3.637-1.125-3.637-3.061a3.535 3.535 0 0 1 1.314-2.746c-.774.081-2.647.279-3.682.5l-.117-1.225c.36-.004.702-.022.873-.041zm5.852 2.746l-.684.306a6.947 6.947 0 0 0-.7-1.251l.667-.279a11.8 11.8 0 0 1 .721 1.224zm1.044-.441l-.675.324a7.918 7.918 0 0 0-.738-1.215l.657-.306a13.462 13.462 0 0 1 .756 1.197zM473.756 265.171a55.514 55.514 0 0 0-2.584-.045c.01.45.01.936.01 1.323a2.2 2.2 0 0 1 .333 1.234c0 1.161-.684 2.637-2.863 3.25l-.945-.954a4.082 4.082 0 0 0 2.178-1.018 1.924 1.924 0 0 1-.4.045 1.571 1.571 0 0 1-1.54-1.639 1.679 1.679 0 0 1 1.783-1.665 2.138 2.138 0 0 1 .351.027l-.009-.594a88.75 88.75 0 0 0-3.826.136l-.027-1.082c1.017 0 2.638-.044 3.835-.062a2.312 2.312 0 0 0-.009-.271 6.051 6.051 0 0 0-.081-.774h1.3c-.026.145-.053.621-.063.766 0 .072-.008.162-.008.27.9 0 2.115-.01 2.583 0zm-4.06 2.845c.369 0 .7-.28.585-1.053a.635.635 0 0 0-.585-.316.685.685 0 0 0 0 1.369z" fill="#222"/><path d="M183.359 174.533l.172-.218.213-.274z"/><circle cx="247.5" cy="84.629" r="5.5" fill="#222"/><path d="M243.224 160.222h-.416l-15.6.064-2.983-19.258c-.127-.943-.152-1.239-.287-2.091a10.657 10.657 0 0 0-2.84-4.882 11 11 0 0 0-2.778-1.883l-9.366-4.787a10.242 10.242 0 0 0-4.707-1.181h-1.324l-26.391.32a7.975 7.975 0 0 0-6.047 2.808l-16.8 19.96a8.169 8.169 0 0 0 .128 10.93 7.981 7.981 0 0 0 11.281.144q.26-.252.493-.527l14.664-17.264h8.95l-27.271 34.573-.064.083-.144.192-17.17 21.716h-29.386a7.98 7.98 0 1 0-.408 15.955q.2.006.408 0h33.19a7.977 7.977 0 0 0 6.239-3.015l15.364-19.466 17.168 11.344 4.149 2.744-17.344 25.53a8.169 8.169 0 0 0 1.468 10.993 7.981 7.981 0 0 0 11.2-1.394q.2-.252.373-.523l22.018-32.373a7.981 7.981 0 0 0-2.149-11.076l-.02-.013-14.568-9.574 19.146-25.927 1.1 7.1a7.979 7.979 0 0 0 7.981 6.733h22.337a7.98 7.98 0 1 0 .409-15.955z" fill="#fff"/><path d="M204.242 126.205a10.242 10.242 0 0 1 4.707 1.181l9.366 4.787a11 11 0 0 1 2.778 1.883 10.657 10.657 0 0 1 2.84 4.882c.135.852.16 1.148.287 2.091l2.983 19.258 15.6-.064H243.219a7.98 7.98 0 0 1-.2 15.958h-22.641a7.981 7.981 0 0 1-7.881-6.734l-1.1-7.1-19.147 25.924 14.568 9.574.02.013a7.981 7.981 0 0 1 2.149 11.076l-22.018 32.373q-.177.272-.373.523a7.98 7.98 0 0 1-11.2 1.394 8.169 8.169 0 0 1-1.468-10.993l17.344-25.53-4.149-2.744-17.168-11.344-15.355 19.466a7.977 7.977 0 0 1-6.239 3.015h-33.59a7.98 7.98 0 0 1 .2-15.958H144.565l17.17-21.716.144-.192.064-.083 27.257-34.569h-8.95l-14.668 17.264q-.234.274-.493.527a7.98 7.98 0 0 1-11.281-.144 8.169 8.169 0 0 1-.128-10.93l16.8-19.96a7.975 7.975 0 0 1 6.047-2.808l26.391-.32h1.324m.01-3h-1.334l-26.428.32a10.954 10.954 0 0 0-8.3 3.863l-16.79 19.951a11.145 11.145 0 0 0 .2 14.917l.029.031.029.031a10.98 10.98 0 0 0 15.522.2c.237-.23.469-.478.686-.733l13.766-16.207h1.375l-23.435 29.715-.081.1-.147.195-16.244 20.551H114.957a10.98 10.98 0 0 0-.278 21.957H148.354a10.922 10.922 0 0 0 8.587-4.149l13.663-17.309 14.868 9.824 1.614 1.068-15.624 23a11.225 11.225 0 0 0 2.022 15.01l.035.029.037.028a10.979 10.979 0 0 0 15.4-1.919c.174-.222.344-.459.5-.7l22-32.352a11 11 0 0 0-2.951-15.249l-.016-.011-.036-.023-11.92-7.834 12.989-17.589a10.932 10.932 0 0 0 10.844 9.263H243.009a10.98 10.98 0 0 0 .277-21.957H242.751l-12.992.054-2.57-16.68c-.04-.3-.07-.529-.1-.734-.058-.453-.1-.8-.2-1.4l-.024-.15-.039-.147a13.667 13.667 0 0 0-3.64-6.257l-.028-.028-.029-.027a13.971 13.971 0 0 0-3.493-2.376l-9.329-4.768a13.251 13.251 0 0 0-6.053-1.51z" fill="#222"/><path d="M230.58 125.636a14.676 14.676 0 1 0-17.659-10.906 14.676 14.676 0 0 0 17.659 10.906z" fill="#fff"/><path d="M227.216 96.674a14.69 14.69 0 1 1-3.388.4 14.682 14.682 0 0 1 3.388-.4m0-3A17.688 17.688 0 0 0 210 115.42a17.605 17.605 0 0 0 17.189 13.613 17.688 17.688 0 0 0 17.215-21.746 17.606 17.606 0 0 0-17.19-13.613z" fill="#222"/><path d="M243.044 165.224a2.99 2.99 0 0 0-2.816 2h-16.934a2.99 2.99 0 0 0-2.28-1.946l-3.326-20.548a2.969 2.969 0 0 0 .448-4.933l9.061-25.444h.007a3 3 0 1 0-2.757-1.819l-20.588 18.981a2.957 2.957 0 0 0-1.391-.357 2.99 2.99 0 0 0-2.816 2h-20.179a2.989 2.989 0 0 0-5.359 2.648l-13.756 16.154a3.041 3.041 0 1 0 1.519 1.3l13.644-16.021a2.966 2.966 0 0 0 1.311.314 3 3 0 0 0 2.939-2.4h19.881a3 3 0 0 0 1.18 1.51l-4.263 17.637a2.976 2.976 0 0 0-2.468 4.088l-23.775 20.992a2.982 2.982 0 0 0-4 4.168l-16.844 20.709a2.948 2.948 0 0 0-3.817 1.816h-27.914a3 3 0 1 0 0 2h27.913a2.991 2.991 0 1 0 5.37-2.555l16.843-20.71a2.908 2.908 0 0 0 2.731-.371l8.317 5.872a2.963 2.963 0 0 0-.14.857 2.99 2.99 0 0 0 4.77 2.412l14.9 10.52a2.873 2.873 0 0 0 .5 2.616l-17.8 27.2a2.946 2.946 0 0 0-.707-.093 3.029 3.029 0 1 0 2.379 1.191l17.8-27.205a3 3 0 1 0-1.022-5.352l-14.927-10.538a2.931 2.931 0 0 0-.771-2.877l12.749-28.8c.075 0 .147.022.224.022a2.966 2.966 0 0 0 2.833-3.947l14.932-11.684a2.966 2.966 0 0 0 1.069.419l3.327 20.548a2.991 2.991 0 1 0 4.253 3.618h16.934a2.995 2.995 0 1 0 2.816-4zm-38.638-28.792l8.9 5.136a3.049 3.049 0 0 0-.055.544 2.973 2.973 0 0 0 .168.947l-14.89 11.652 4.251-17.583a2.973 2.973 0 0 0 1.626-.696zm11.844 2.68a2.974 2.974 0 0 0-1.937.727l-8.9-5.135a2.908 2.908 0 0 0-.188-1.727l19.675-18.142-8.646 24.278zm-34.465 49.056a2.98 2.98 0 0 0-1.688.522l-8.342-5.889a2.848 2.848 0 0 0-.1-1.926l22.457-19.829-12.018 27.154c-.103-.011-.203-.032-.309-.032z" fill="#23d152"/><path fill="none" d="M0 0h540v540H0z"/></svg>